<svg width="106" height="96" viewBox="0 0 106 96" fill="none" xmlns="http://www.w3.org/2000/svg">
<path d="M4.36789 70.4103C1.44988 70.9693 -0.461917 73.7867 0.0970884 76.7048C0.589013 79.2763 2.8474 81.0651 5.3741 81.0651C5.70951 81.0651 6.05609 81.0314 6.39149 80.9645L28.5281 76.716C29.7915 76.47 30.9207 75.7881 31.7256 74.7819L41.2287 62.7968L38.0537 61.1757C35.7059 59.9906 34.0735 57.844 33.5144 55.239L24.548 66.5421L4.36789 70.4103Z" fill="#7878AB"/>
<path d="M83.2101 23.6775C89.7181 23.6775 94.994 18.4017 94.994 11.8937C94.994 5.38567 89.7181 0.109863 83.2101 0.109863C76.7021 0.109863 71.4263 5.38567 71.4263 11.8937C71.4263 18.4017 76.7021 23.6775 83.2101 23.6775Z" fill="#7878AB"/>
<path d="M57.4957 8.94195C56.2547 7.66741 55.1032 7.16431 53.8399 7.16431C53.3814 7.16431 52.9231 7.23139 52.4311 7.34319L32.2064 12.1395C29.4113 12.7991 27.6896 15.6053 28.3492 18.3891C28.9194 20.7817 31.0436 22.3916 33.4026 22.3916C33.8052 22.3916 34.2076 22.3469 34.6102 22.2463L51.8388 18.1655C52.9568 19.4065 58.558 25.4773 59.5754 26.5506C52.4537 34.1755 45.3319 41.7891 38.2101 49.414C38.0983 49.5371 37.9978 49.6599 37.897 49.7829C35.8175 52.4326 36.4549 56.5916 39.5853 58.168L43.3753 60.1023L61.42 69.3146L50.0834 87.6835C48.5294 90.2103 49.312 93.5195 51.8386 95.0847C52.7219 95.6326 53.6945 95.8897 54.656 95.8897C56.456 95.8897 58.2224 94.9841 59.2399 93.3406L73.6399 70.0077C74.4336 68.722 74.6461 67.168 74.2324 65.7258C73.8187 64.2723 72.8237 63.0649 71.4709 62.3829L56.6796 54.8587L72.2313 38.2227L83.9704 48.173C84.943 49.0002 86.1392 49.4028 87.3244 49.4028C88.5989 49.4028 89.8735 48.9332 90.8684 48.0164L104.34 35.4612C106.442 33.5047 106.565 30.2177 104.609 28.1158C103.58 27.0202 102.194 26.4612 100.808 26.4612C99.5442 26.4612 98.2696 26.9196 97.2746 27.8475L87.1902 37.2276C87.1789 37.2388 61.9118 13.4699 57.4957 8.94195Z" fill="#7878AB"/>
</svg>
