<svg width="98" height="129" viewBox="0 0 98 129" fill="none" xmlns="http://www.w3.org/2000/svg">
<path d="M97.9451 94.5959V48.1361C97.9451 42.0686 93.0089 37.1324 86.9415 37.1324C84.7729 37.1324 82.7485 37.7631 81.0427 38.8505V20.1499C81.0427 14.0825 76.1065 9.14627 70.0391 9.14627C67.8577 9.14627 65.8224 9.78438 64.1102 10.8835C63.6919 5.19481 58.9298 0.694824 53.1364 0.694824C47.069 0.694824 42.1328 5.63102 42.1328 11.6985V16.1288C40.4267 15.0414 38.4026 14.4107 36.2341 14.4107C30.1666 14.4107 25.2302 19.3469 25.2302 25.4144V68.3538L20.99 62.4423C20.9842 62.4342 20.9783 62.4263 20.9724 62.4181C17.6348 57.8788 14.0637 56.7085 11.6552 56.526C8.7025 56.3009 5.84426 57.4046 3.61749 59.6316C-0.852879 64.1019 -1.18189 69.6033 2.63939 75.9836L21.7014 112.672C21.7851 112.833 21.8836 112.982 21.9944 113.117L24.3174 116.49C29.6372 124.216 38.4146 128.828 47.7957 128.828H67.9606C77.2339 128.828 84.5743 125.974 89.7775 120.343C98.7637 110.62 98.0477 96.1174 97.9451 94.5959ZM86.0075 116.901C81.811 121.428 75.739 123.723 67.9606 123.723H47.7957C40.0944 123.723 32.8891 119.937 28.5213 113.594L26.1238 110.113L7.13248 73.5601C7.10747 73.5121 7.08118 73.4649 7.0531 73.4187C3.73644 67.9199 5.27966 65.1883 7.22667 63.2413C8.38447 62.0835 9.82048 61.5066 11.2687 61.6164C13.1895 61.7619 15.1196 63.081 16.8505 65.4308L25.648 77.6956C26.1651 78.4164 27.021 78.8158 27.9041 78.7538C28.7891 78.6905 29.5775 78.1724 29.9867 77.3855L30.0467 77.2698C30.2358 76.9061 30.3346 76.5023 30.3346 76.0924V25.4146C30.3346 22.162 32.981 19.5159 36.2336 19.5159C39.4862 19.5159 42.1323 22.162 42.1323 25.4146V47.3047C42.1323 48.7145 43.2753 49.8572 44.6847 49.8572C46.0942 49.8572 47.2372 48.7145 47.2372 47.3047V25.4146V11.6985C47.2372 8.44587 49.8833 5.79974 53.1359 5.79974C56.3885 5.79974 59.0347 8.44587 59.0347 11.6985V20.1497V63.653C59.0347 65.0627 60.1777 66.2054 61.5871 66.2054C62.9966 66.2054 64.1396 65.0627 64.1396 63.653V20.1499C64.1396 16.8973 66.7857 14.2512 70.0383 14.2512C73.2909 14.2512 75.937 16.8973 75.937 20.1499V48.1361V64.7615C75.937 66.1712 77.08 67.314 78.4895 67.314C79.899 67.314 81.042 66.1712 81.042 64.7615V48.1361C81.042 44.8835 83.6881 42.2373 86.9407 42.2373C90.1933 42.2373 92.8394 44.8835 92.8394 48.1361V94.6873C92.8394 94.7516 92.8422 94.82 92.8471 94.8843C92.8583 95.0196 93.7846 108.512 86.0075 116.901Z" fill="#7878AB"/>
<path d="M44.685 65.9286C46.0945 65.9286 47.2375 64.7859 47.2375 63.3762V57.5573C47.2375 56.1476 46.0945 55.0049 44.685 55.0049C43.2756 55.0049 42.1326 56.1476 42.1326 57.5573V63.3762C42.1326 64.7859 43.2756 65.9286 44.685 65.9286Z" fill="#7878AB"/>
<path d="M78.8204 80.1906C79.5539 78.1596 79.108 75.795 77.4831 74.1698C75.3694 72.0562 72.0035 71.9375 69.7494 73.8143C69.6136 73.6428 69.4664 73.4774 69.3079 73.3189C67.0686 71.0796 63.425 71.0796 61.1852 73.3189L52.9481 81.5559C52.8307 79.9129 52.1875 78.7931 51.5823 78.0889C50.5613 76.9002 49.0375 76.2184 47.4022 76.2184C45.5999 76.2184 42.4147 76.9045 41.2464 81.4775L36.5537 96.3185C36.5073 96.4653 36.4748 96.6133 36.4557 96.7609L36.1856 98.227C35.4482 102.225 36.7242 106.327 39.5988 109.202L44.9829 114.586C47.6605 117.263 50.6287 118.619 53.8132 118.618C53.9612 118.618 54.1105 118.615 54.2593 118.609C59.7448 118.393 63.7792 114.123 64.4079 113.419L76.7802 101.047C77.8652 99.9622 78.4628 98.5198 78.4628 96.9855C78.4628 95.4512 77.8652 94.0088 76.7802 92.924C76.6283 92.7722 76.4693 92.6297 76.3041 92.4973L79.7398 89.0616C80.8246 87.9769 81.4221 86.5345 81.4221 85.0002C81.4221 83.4659 80.8246 82.0235 79.7398 80.939C79.4559 80.6559 79.1478 80.4055 78.8204 80.1906ZM76.1296 85.4522L68.6646 92.9171C68.6623 92.9197 68.6598 92.9222 68.6575 92.9245L63.3308 98.2515C62.334 99.2482 62.334 100.864 63.3308 101.861C63.8293 102.36 64.4824 102.609 65.1356 102.609C65.7888 102.609 66.442 102.359 66.9405 101.861L72.2659 96.5355C72.2664 96.535 72.2667 96.5347 72.2672 96.5342C72.4216 96.3798 72.598 96.3474 72.7187 96.3474C72.8394 96.3474 73.0158 96.3798 73.1705 96.5345C73.3252 96.6892 73.3576 96.8655 73.3576 96.9863C73.3576 97.107 73.3252 97.2831 73.1705 97.4378L60.7416 109.867C60.6992 109.909 60.6512 109.961 60.6119 110.007C60.5828 110.04 57.6393 113.383 54.0332 113.51C52.1439 113.578 50.364 112.748 48.5931 110.977L43.209 105.593C41.5226 103.906 40.7737 101.499 41.2063 99.153L41.4774 97.681L46.1372 82.9447C46.1532 82.8931 46.1681 82.8411 46.1811 82.7885C46.5435 81.3244 46.9608 81.3244 47.4024 81.3244C47.456 81.3244 47.637 81.331 47.7102 81.4163C47.8026 81.524 47.9285 81.903 47.818 82.643L46.8942 88.2556C46.7505 89.1301 47.0701 90.0165 47.7396 90.5975C48.4089 91.1784 49.3313 91.3709 50.1772 91.1054L50.2242 91.0906C50.6167 90.9676 50.9738 90.7511 51.2648 90.4601L64.7954 76.9293C65.0447 76.6802 65.4501 76.6802 65.6989 76.9293C65.9481 77.1784 65.9481 77.5835 65.6989 77.8326C65.6974 77.8342 65.6964 77.8357 65.6949 77.837C65.6928 77.839 65.6905 77.8408 65.6885 77.8428L58.2003 85.418C57.2095 86.4206 57.2187 88.0368 58.2213 89.0277C58.7187 89.5196 59.3673 89.7649 60.0156 89.7649C60.6737 89.7649 61.3317 89.5119 61.831 89.0068L69.3191 81.4316C69.3193 81.4313 69.3199 81.4308 69.3201 81.4303L72.9706 77.7798C73.2195 77.5307 73.6248 77.5307 73.8739 77.7798C74.1231 78.0289 74.1231 78.434 73.8739 78.6831L71.6173 80.9395L60.0019 92.5547C59.0051 93.5514 59.0051 95.1676 60.0019 96.1644C60.5004 96.6629 61.1535 96.912 61.8067 96.912C62.4599 96.912 63.113 96.6626 63.6115 96.1644L75.227 84.5492C75.227 84.5492 75.2275 84.5486 75.2275 84.5484C75.3822 84.3945 75.5581 84.3621 75.6785 84.3621C75.7993 84.3621 75.9754 84.3945 76.1303 84.5492C76.2847 84.7038 76.3172 84.88 76.3172 85.0007C76.3167 85.1214 76.2842 85.2975 76.1296 85.4522Z" fill="#7878AB"/>
</svg>
