<svg width="236" height="236" viewBox="0 0 236 236" fill="none" xmlns="http://www.w3.org/2000/svg">
<g filter="url(#filter0_dddd)">
<rect x="30" y="30" width="176" height="176" rx="16" fill="#F5F5FA"/>
</g>
<path d="M178.631 157.445C179.314 158.13 180.223 158.507 181.19 158.508H181.195C182.161 158.508 183.069 158.133 183.753 157.45L188.937 152.277C190.351 150.867 190.354 148.569 188.943 147.155L176.175 134.358C175.364 133.545 174.047 133.543 173.233 134.354C172.42 135.166 172.419 136.483 173.23 137.296L185.618 149.712L181.195 154.125L154.056 126.924C152.992 125.857 151.519 125.321 150.019 125.454L111.744 128.847L111.193 122.624L153.285 118.893C154.208 118.81 155.116 119.14 155.772 119.798L166.375 130.426C167.186 131.239 168.503 131.24 169.317 130.429C170.13 129.618 170.132 128.301 169.32 127.487L158.717 116.86C157.188 115.327 155.074 114.558 152.917 114.749L142.342 115.686L144.998 108.39L147.367 108.18C148.512 108.079 149.357 107.069 149.256 105.924C149.154 104.78 148.142 103.939 147 104.036L125.341 105.956C124.197 106.057 123.351 107.067 123.452 108.211C123.548 109.293 124.456 110.108 125.522 110.108C125.584 110.108 125.646 110.105 125.708 110.1L127.396 109.95L124.74 117.247L110.289 118.527C109.325 118.613 108.453 119.068 107.832 119.81C107.211 120.552 106.916 121.492 107.002 122.455L107.648 129.75C107.825 131.74 109.587 133.211 111.576 133.039L115.152 132.722L106.584 156.255L101.047 154.907C100.082 154.672 99.0563 154.769 98.161 155.178L97.3936 155.527L94.4798 135.096C94.3176 133.958 93.2654 133.168 92.1269 133.33C90.9895 133.492 90.1991 134.546 90.3613 135.683L93.447 157.32L89.0891 159.299L82.2435 130.979L90.3211 85.168L104.566 89.1301C104.752 89.1822 104.94 89.2066 105.125 89.2066C106.035 89.2066 106.871 88.6037 107.127 87.6835C107.435 86.5769 106.787 85.4301 105.681 85.1222L91.0469 81.0516L92.9503 70.2566L107.741 72.8645C107.863 72.8861 107.984 72.8964 108.104 72.8964C109.095 72.8964 109.972 72.1864 110.151 71.1774C110.35 70.0461 109.595 68.967 108.463 68.7676L93.6728 66.1597L94.4576 61.7087C94.7364 60.1226 93.6728 58.6049 92.0875 58.3265L84.825 57.0477C84.0567 56.9084 83.2802 57.0765 82.6384 57.5227C81.9955 57.9698 81.5665 58.6404 81.43 59.4123L80.6454 63.8628L65.8564 61.2552C64.7263 61.0539 63.6463 61.8113 63.4466 62.9423C63.2472 64.0736 64.0024 65.1527 65.1339 65.3521L79.923 67.9597L78.2425 77.4906L63.9985 73.5282C62.8914 73.2195 61.7448 73.8679 61.4372 74.9748C61.1294 76.0814 61.777 77.2282 62.8839 77.5361L77.5162 81.6061L76.7202 86.1201L67.7973 84.5467C66.2106 84.2658 64.6938 85.3305 64.4145 86.9161L61.8386 101.525C61.7032 102.293 61.8749 103.068 62.3222 103.707C62.7699 104.346 63.4397 104.773 64.2076 104.908L73.1303 106.481L72.0331 112.704C71.8337 113.835 72.5892 114.914 73.7205 115.114C74.8517 115.315 75.9306 114.558 76.1303 113.427C78.0465 102.56 79.6501 93.4641 81.5432 82.7262L86.2941 84.0478L78.0709 130.684C78.0212 130.967 78.0304 131.256 78.0975 131.534L85.2318 161.051L80.6818 163.117L72.9827 131.271L74.4327 123.056C74.6324 121.925 73.8772 120.846 72.7459 120.646C71.6146 120.445 70.5357 121.202 70.3358 122.333L68.8104 130.975C68.7605 131.258 68.7696 131.547 68.837 131.826L74.9585 157.147C74.2097 156.413 73.1932 155.987 72.1088 155.987C72.0933 155.987 66.0997 155.987 66.0997 155.987C64.3937 155.998 62.8559 157.098 62.2732 158.721L61.5995 160.592C60.6574 159.312 59.056 158.688 57.4932 159.001L51.8969 160.122C50.7704 160.348 50.0404 161.444 50.2659 162.57C50.4916 163.696 51.5869 164.427 52.714 164.201L58.2725 163.088L59.8805 165.365L55.9323 176.33H50.0801C48.9313 176.33 48 177.261 48 178.411C48 179.56 48.9313 180.491 50.0801 180.491H57.3684C57.3767 180.491 57.3853 180.492 57.3936 180.492C57.3983 180.492 57.403 180.491 57.4077 180.491H185.929C187.078 180.491 188.009 179.56 188.009 178.411C188.009 177.261 187.078 176.33 185.929 176.33H181.497L176.55 161.536C176.206 160.506 175.423 159.733 174.47 159.367L176.094 154.903L178.631 157.445ZM131.97 109.544L140.423 108.795L137.767 116.092L129.315 116.841L131.97 109.544ZM66.151 101.027L68.2965 88.8591L75.998 90.217L73.8525 102.385L66.151 101.027ZM85.3109 61.3576L90.1447 62.2087L89.5753 65.4373L84.7415 64.585L85.3109 61.3576ZM82.269 78.6102L84.0196 68.6819L88.8534 69.5342L87.0201 79.9317L82.269 78.6102ZM66.1815 160.148H72.057L75.2958 166.351C76.1908 168.068 78.2719 168.785 80.0308 167.982L99.8844 158.964C99.9379 158.939 100.001 158.934 100.062 158.949L120.636 163.959C122.009 164.289 123.454 163.921 124.505 162.973L130.87 157.202C130.894 157.179 130.927 157.171 130.959 157.178L147.064 160.626C147.088 160.631 147.113 160.65 147.127 160.673L149.137 163.969L143.32 165.155C142.259 165.372 141.37 166.051 140.882 167.018L136.181 176.33H72.7129L64.5285 164.737L66.1815 160.148ZM62.8084 169.514L67.6206 176.33H60.3537L62.8084 169.514ZM177.111 176.33H140.842L144.456 169.169L172.785 163.392L177.111 176.33ZM169.909 159.733L153.47 163.085L150.681 158.509C150.074 157.511 149.072 156.8 147.933 156.558L131.829 153.11C130.489 152.825 129.084 153.203 128.073 154.122L121.715 159.887C121.686 159.913 121.647 159.923 121.614 159.915L110.65 157.245L119.726 132.316L150.386 129.599C150.654 129.574 150.92 129.671 151.11 129.862L172.85 151.651L169.909 159.733Z" fill="#7878AB"/>
<path d="M147.782 137.879C143.872 136.456 139.532 138.479 138.109 142.39C137.419 144.284 137.509 146.334 138.361 148.161C139.643 150.911 142.364 152.519 145.194 152.519C148.278 152.519 151.179 150.614 152.294 147.553C153.717 143.641 151.693 139.302 147.782 137.879ZM148.384 146.13C147.359 148.947 143.404 149.131 142.131 146.402C141.749 145.582 141.709 144.662 142.018 143.812C142.657 142.057 144.604 141.149 146.36 141.788C148.115 142.426 149.023 144.374 148.384 146.13Z" fill="#7878AB"/>
<path d="M94.6448 171.7L99.1996 168.941C99.3621 168.842 99.5471 168.799 99.7377 168.815L105.056 169.268C106.28 169.373 107.357 170.082 107.937 171.164L108.696 172.581C109.071 173.281 109.789 173.68 110.531 173.68C110.863 173.68 111.199 173.6 111.512 173.433C112.524 172.89 112.905 171.63 112.363 170.617L111.604 169.2C110.357 166.872 108.041 165.348 105.41 165.124L100.091 164.67C99.0171 164.578 97.9652 164.825 97.0441 165.383L92.489 168.142C91.5064 168.738 91.1927 170.017 91.7879 170.999C92.3834 171.982 93.6625 172.296 94.6448 171.7Z" fill="#7878AB"/>
<defs>
<filter id="filter0_dddd" x="0" y="0" width="236" height="236" filterUnits="userSpaceOnUse" color-interpolation-filters="sRGB">
<feFlood flood-opacity="0" result="BackgroundImageFix"/>
<feColorMatrix in="SourceAlpha" type="matrix" values="0 0 0 0 0 0 0 0 0 0 0 0 0 0 0 0 0 0 127 0"/>
<feOffset dx="-10" dy="-10"/>
<feGaussianBlur stdDeviation="10"/>
<feColorMatrix type="matrix" values="0 0 0 0 1 0 0 0 0 1 0 0 0 0 1 0 0 0 1 0"/>
<feBlend mode="normal" in2="BackgroundImageFix" result="effect1_dropShadow"/>
<feColorMatrix in="SourceAlpha" type="matrix" values="0 0 0 0 0 0 0 0 0 0 0 0 0 0 0 0 0 0 127 0"/>
<feOffset dx="10" dy="10"/>
<feGaussianBlur stdDeviation="10"/>
<feColorMatrix type="matrix" values="0 0 0 0 0.666667 0 0 0 0 0.666667 0 0 0 0 0.8 0 0 0 0.5 0"/>
<feBlend mode="normal" in2="effect1_dropShadow" result="effect2_dropShadow"/>
<feColorMatrix in="SourceAlpha" type="matrix" values="0 0 0 0 0 0 0 0 0 0 0 0 0 0 0 0 0 0 127 0"/>
<feOffset dx="5" dy="5"/>
<feGaussianBlur stdDeviation="5"/>
<feColorMatrix type="matrix" values="0 0 0 0 0.666667 0 0 0 0 0.666667 0 0 0 0 0.8 0 0 0 0.25 0"/>
<feBlend mode="normal" in2="effect2_dropShadow" result="effect3_dropShadow"/>
<feColorMatrix in="SourceAlpha" type="matrix" values="0 0 0 0 0 0 0 0 0 0 0 0 0 0 0 0 0 0 127 0"/>
<feOffset dx="-5" dy="-5"/>
<feGaussianBlur stdDeviation="5"/>
<feColorMatrix type="matrix" values="0 0 0 0 1 0 0 0 0 1 0 0 0 0 1 0 0 0 0.5 0"/>
<feBlend mode="normal" in2="effect3_dropShadow" result="effect4_dropShadow"/>
<feBlend mode="normal" in="SourceGraphic" in2="effect4_dropShadow" result="shape"/>
</filter>
</defs>
</svg>
