<svg width="236" height="236" viewBox="0 0 236 236" fill="none" xmlns="http://www.w3.org/2000/svg">
<g filter="url(#filter0_dddd)">
<rect x="30" y="30" width="176" height="176" rx="16" fill="#F5F5FA"/>
</g>
<path d="M69.3679 135.41C66.4499 135.969 64.5381 138.787 65.0971 141.705C65.589 144.276 67.8474 146.065 70.3741 146.065C70.7095 146.065 71.0561 146.031 71.3915 145.964L93.5281 141.716C94.7915 141.47 95.9207 140.788 96.7256 139.782L106.229 127.797L103.054 126.176C100.706 124.991 99.0735 122.844 98.5144 120.239L89.548 131.542L69.3679 135.41Z" fill="#7878AB"/>
<path d="M148.21 88.6775C154.718 88.6775 159.994 83.4017 159.994 76.8937C159.994 70.3857 154.718 65.1099 148.21 65.1099C141.702 65.1099 136.426 70.3857 136.426 76.8937C136.426 83.4017 141.702 88.6775 148.21 88.6775Z" fill="#7878AB"/>
<path d="M122.496 73.9419C121.255 72.6674 120.103 72.1643 118.84 72.1643C118.381 72.1643 117.923 72.2314 117.431 72.3432L97.2064 77.1395C94.4113 77.7991 92.6896 80.6053 93.3492 83.3891C93.9194 85.7817 96.0436 87.3916 98.4026 87.3916C98.8052 87.3916 99.2076 87.3469 99.6102 87.2463L116.839 83.1655C117.957 84.4065 123.558 90.4773 124.575 91.5506C117.454 99.1755 110.332 106.789 103.21 114.414C103.098 114.537 102.998 114.66 102.897 114.783C100.818 117.433 101.455 121.592 104.585 123.168L108.375 125.102L126.42 134.315L115.083 152.683C113.529 155.21 114.312 158.52 116.839 160.085C117.722 160.633 118.695 160.89 119.656 160.89C121.456 160.89 123.222 159.984 124.24 158.341L138.64 135.008C139.434 133.722 139.646 132.168 139.232 130.726C138.819 129.272 137.824 128.065 136.471 127.383L121.68 119.859L137.231 103.223L148.97 113.173C149.943 114 151.139 114.403 152.324 114.403C153.599 114.403 154.873 113.933 155.868 113.016L169.34 100.461C171.442 98.5047 171.565 95.2177 169.609 93.1158C168.58 92.0202 167.194 91.4612 165.808 91.4612C164.544 91.4612 163.27 91.9196 162.275 92.8475L152.19 102.228C152.179 102.239 126.912 78.4699 122.496 73.9419Z" fill="#7878AB"/>
<defs>
<filter id="filter0_dddd" x="0" y="0" width="236" height="236" filterUnits="userSpaceOnUse" color-interpolation-filters="sRGB">
<feFlood flood-opacity="0" result="BackgroundImageFix"/>
<feColorMatrix in="SourceAlpha" type="matrix" values="0 0 0 0 0 0 0 0 0 0 0 0 0 0 0 0 0 0 127 0"/>
<feOffset dx="-10" dy="-10"/>
<feGaussianBlur stdDeviation="10"/>
<feColorMatrix type="matrix" values="0 0 0 0 1 0 0 0 0 1 0 0 0 0 1 0 0 0 1 0"/>
<feBlend mode="normal" in2="BackgroundImageFix" result="effect1_dropShadow"/>
<feColorMatrix in="SourceAlpha" type="matrix" values="0 0 0 0 0 0 0 0 0 0 0 0 0 0 0 0 0 0 127 0"/>
<feOffset dx="10" dy="10"/>
<feGaussianBlur stdDeviation="10"/>
<feColorMatrix type="matrix" values="0 0 0 0 0.666667 0 0 0 0 0.666667 0 0 0 0 0.8 0 0 0 0.5 0"/>
<feBlend mode="normal" in2="effect1_dropShadow" result="effect2_dropShadow"/>
<feColorMatrix in="SourceAlpha" type="matrix" values="0 0 0 0 0 0 0 0 0 0 0 0 0 0 0 0 0 0 127 0"/>
<feOffset dx="5" dy="5"/>
<feGaussianBlur stdDeviation="5"/>
<feColorMatrix type="matrix" values="0 0 0 0 0.666667 0 0 0 0 0.666667 0 0 0 0 0.8 0 0 0 0.25 0"/>
<feBlend mode="normal" in2="effect2_dropShadow" result="effect3_dropShadow"/>
<feColorMatrix in="SourceAlpha" type="matrix" values="0 0 0 0 0 0 0 0 0 0 0 0 0 0 0 0 0 0 127 0"/>
<feOffset dx="-5" dy="-5"/>
<feGaussianBlur stdDeviation="5"/>
<feColorMatrix type="matrix" values="0 0 0 0 1 0 0 0 0 1 0 0 0 0 1 0 0 0 0.5 0"/>
<feBlend mode="normal" in2="effect3_dropShadow" result="effect4_dropShadow"/>
<feBlend mode="normal" in="SourceGraphic" in2="effect4_dropShadow" result="shape"/>
</filter>
</defs>
</svg>
