<svg width="108" height="108" viewBox="0 0 108 108" fill="none" xmlns="http://www.w3.org/2000/svg">
<path d="M98.5078 89.0148H93.0235L74.2049 74.9007C72.5604 73.6673 71.3872 71.9499 70.8116 70.0306H72.9846C74.732 70.0306 76.1487 68.6139 76.1487 66.8665V54.2104C76.1487 52.463 74.732 51.0464 72.9846 51.0464H71.8445L76.1358 3.44816C76.2155 2.56308 75.9196 1.68537 75.3201 1.02958C74.7206 0.373778 73.8733 0 72.9846 0H41.3443C39.5969 0 38.1803 1.41664 38.1803 3.16403V8.46505C38.1803 19.71 39.7684 31.5361 42.773 42.6649C43.5796 45.6519 44.0981 48.4196 44.3428 51.0462H41.3443C39.5969 51.0462 38.1803 52.4628 38.1803 54.2102V57.3742H35.0163C23.6726 57.3742 14.2752 65.7859 12.8459 76.643C5.54056 78.0396 0.000976562 84.4727 0.000976562 92.1788C0.000976562 100.902 7.0979 107.999 15.8211 107.999C24.5444 107.999 31.6413 100.902 31.6413 92.1788C31.6413 84.6294 26.3245 78.302 19.2396 76.7347C20.5786 69.3372 27.141 63.7025 35.0163 63.7025H38.1803V66.8665C38.1803 68.6139 39.5969 70.0306 41.3443 70.0306H44.1763C43.6726 74.0004 42.5973 77.8556 40.9606 81.5282C37.8989 88.3984 38.2765 93.9302 38.1801 94.8775C38.1801 102.048 43.9738 108 51.3022 108C51.3085 108 51.3154 108 51.322 108C51.4952 107.981 54.3567 108.195 57.5779 106.584C58.2074 106.41 65.4844 101.364 73.709 105.57C76.8167 107.159 80.3041 107.999 83.7942 107.999H98.5078C103.742 107.999 108 103.741 108 98.5069C108 93.2729 103.742 89.0148 98.5078 89.0148ZM25.3132 92.1788C25.3132 97.4127 21.0551 101.671 15.8211 101.671C10.5872 101.671 6.32904 97.4127 6.32904 92.1788C6.32904 86.9448 10.5872 82.6867 15.8211 82.6867C21.0551 82.6867 25.3132 86.9448 25.3132 92.1788ZM44.5084 63.7025V57.3744C46.9569 57.3744 65.8886 57.3744 69.8206 57.3744V63.7025H44.5084ZM48.8823 41.0156C46.021 30.4169 44.5084 19.161 44.5084 8.46505V6.32806H69.5226L65.4907 51.0464H50.6959C50.442 47.8815 49.8427 44.5723 48.8823 41.0156ZM98.5078 101.671H83.7942C81.3014 101.671 78.8103 101.071 76.5904 99.9355C65.2819 94.1525 55.3357 100.769 54.7482 100.924C53.0095 101.793 51.4599 101.656 51.3127 101.672C51.3091 101.672 51.306 101.672 51.3024 101.672C47.5897 101.672 44.5084 98.6718 44.5084 94.8775C44.5318 94.6463 44.2626 89.6649 46.7409 84.1042C48.7404 79.6172 50.0152 74.8954 50.5487 70.0308H64.3169C65.0037 73.955 67.1575 77.5255 70.4079 79.9633L90.0704 94.71C90.6182 95.1207 91.2843 95.3428 91.9688 95.3428H98.5078C100.252 95.3428 101.672 96.7622 101.672 98.5069C101.672 100.252 100.252 101.671 98.5078 101.671Z" fill="#7878AB"/>
</svg>
