<svg width="236" height="236" viewBox="0 0 236 236" fill="none" xmlns="http://www.w3.org/2000/svg">
<g filter="url(#filter0_dddd)">
<rect x="30" y="30" width="176" height="176" rx="16" fill="#F5F5FA"/>
</g>
<g clip-path="url(#clip0)">
<path d="M156.508 153.015H151.024L132.205 138.901C130.56 137.667 129.387 135.95 128.812 134.031H130.985C132.732 134.031 134.149 132.614 134.149 130.867V118.21C134.149 116.463 132.732 115.046 130.985 115.046H129.845L134.136 67.4482C134.216 66.5631 133.92 65.6854 133.32 65.0296C132.721 64.3738 131.873 64 130.985 64H99.3443C97.5969 64 96.1803 65.4166 96.1803 67.164V72.4651C96.1803 83.71 97.7684 95.5361 100.773 106.665C101.58 109.652 102.098 112.42 102.343 115.046H99.3443C97.5969 115.046 96.1803 116.463 96.1803 118.21V121.374H93.0163C81.6726 121.374 72.2752 129.786 70.8459 140.643C63.5406 142.04 58.001 148.473 58.001 156.179C58.001 164.902 65.0979 171.999 73.8211 171.999C82.5444 171.999 89.6413 164.902 89.6413 156.179C89.6413 148.629 84.3245 142.302 77.2396 140.735C78.5786 133.337 85.141 127.703 93.0163 127.703H96.1803V130.867C96.1803 132.614 97.5969 134.031 99.3443 134.031H102.176C101.673 138 100.597 141.856 98.9606 145.528C95.8989 152.398 96.2765 157.93 96.1801 158.877C96.1801 166.048 101.974 172 109.302 172C109.308 172 109.315 172 109.322 172C109.495 171.981 112.357 172.195 115.578 170.584C116.207 170.41 123.484 165.364 131.709 169.57C134.817 171.159 138.304 171.999 141.794 171.999H156.508C161.742 171.999 166 167.741 166 162.507C166 157.273 161.742 153.015 156.508 153.015ZM83.3132 156.179C83.3132 161.413 79.0551 165.671 73.8211 165.671C68.5872 165.671 64.329 161.413 64.329 156.179C64.329 150.945 68.5872 146.687 73.8211 146.687C79.0551 146.687 83.3132 150.945 83.3132 156.179ZM102.508 127.703V121.374C104.957 121.374 123.889 121.374 127.821 121.374V127.703H102.508ZM106.882 105.016C104.021 94.4169 102.508 83.161 102.508 72.4651V70.3281H127.523L123.491 115.046H108.696C108.442 111.882 107.843 108.572 106.882 105.016ZM156.508 165.671H141.794C139.301 165.671 136.81 165.071 134.59 163.936C123.282 158.153 113.336 164.769 112.748 164.924C111.009 165.793 109.46 165.656 109.313 165.672C109.309 165.672 109.306 165.672 109.302 165.672C105.59 165.672 102.508 162.672 102.508 158.877C102.532 158.646 102.263 153.665 104.741 148.104C106.74 143.617 108.015 138.895 108.549 134.031H122.317C123.004 137.955 125.158 141.526 128.408 143.963L148.07 158.71C148.618 159.121 149.284 159.343 149.969 159.343H156.508C158.252 159.343 159.672 160.762 159.672 162.507C159.672 164.252 158.252 165.671 156.508 165.671Z" fill="#7878AB"/>
</g>
<defs>
<filter id="filter0_dddd" x="0" y="0" width="236" height="236" filterUnits="userSpaceOnUse" color-interpolation-filters="sRGB">
<feFlood flood-opacity="0" result="BackgroundImageFix"/>
<feColorMatrix in="SourceAlpha" type="matrix" values="0 0 0 0 0 0 0 0 0 0 0 0 0 0 0 0 0 0 127 0"/>
<feOffset dx="-10" dy="-10"/>
<feGaussianBlur stdDeviation="10"/>
<feColorMatrix type="matrix" values="0 0 0 0 1 0 0 0 0 1 0 0 0 0 1 0 0 0 1 0"/>
<feBlend mode="normal" in2="BackgroundImageFix" result="effect1_dropShadow"/>
<feColorMatrix in="SourceAlpha" type="matrix" values="0 0 0 0 0 0 0 0 0 0 0 0 0 0 0 0 0 0 127 0"/>
<feOffset dx="10" dy="10"/>
<feGaussianBlur stdDeviation="10"/>
<feColorMatrix type="matrix" values="0 0 0 0 0.666667 0 0 0 0 0.666667 0 0 0 0 0.8 0 0 0 0.5 0"/>
<feBlend mode="normal" in2="effect1_dropShadow" result="effect2_dropShadow"/>
<feColorMatrix in="SourceAlpha" type="matrix" values="0 0 0 0 0 0 0 0 0 0 0 0 0 0 0 0 0 0 127 0"/>
<feOffset dx="5" dy="5"/>
<feGaussianBlur stdDeviation="5"/>
<feColorMatrix type="matrix" values="0 0 0 0 0.666667 0 0 0 0 0.666667 0 0 0 0 0.8 0 0 0 0.25 0"/>
<feBlend mode="normal" in2="effect2_dropShadow" result="effect3_dropShadow"/>
<feColorMatrix in="SourceAlpha" type="matrix" values="0 0 0 0 0 0 0 0 0 0 0 0 0 0 0 0 0 0 127 0"/>
<feOffset dx="-5" dy="-5"/>
<feGaussianBlur stdDeviation="5"/>
<feColorMatrix type="matrix" values="0 0 0 0 1 0 0 0 0 1 0 0 0 0 1 0 0 0 0.5 0"/>
<feBlend mode="normal" in2="effect3_dropShadow" result="effect4_dropShadow"/>
<feBlend mode="normal" in="SourceGraphic" in2="effect4_dropShadow" result="shape"/>
</filter>
<clipPath id="clip0">
<rect width="108" height="108" fill="white" transform="translate(58 64)"/>
</clipPath>
</defs>
</svg>
