<svg width="118" height="86" viewBox="0 0 118 86" fill="none" xmlns="http://www.w3.org/2000/svg">
<path d="M110.378 8.4326C105.463 3.51773 98.9284 0.810782 91.9777 0.810782C85.027 0.810782 78.4921 3.51773 73.5772 8.4326L59 23.0096L44.4228 8.43236C39.5079 3.5175 32.973 0.810547 26.0223 0.810547C19.0716 0.810547 12.5367 3.5175 7.62181 8.43236C2.70695 13.3472 0 19.8821 0 26.8331C0 33.784 2.70695 40.3187 7.62181 45.2336L39.734 77.3458C40.0114 77.6504 40.2951 77.9489 40.5788 78.2322C45.4944 83.1475 52.0279 85.8538 58.9788 85.8538C58.9852 85.8538 58.9918 85.8538 58.9981 85.8538C58.9995 85.8538 59.0009 85.8538 59.0023 85.8538C59.0087 85.8538 59.015 85.8538 59.0216 85.8538C65.9721 85.8538 72.5063 83.1473 77.4216 78.2322C77.7075 77.9464 77.9907 77.6481 78.2662 77.346L110.378 45.2338C115.293 40.3187 118 33.7838 118 26.8331C118 19.8824 115.293 13.3475 110.378 8.4326ZM33.3272 64.2903L29.0992 60.0623L30.4055 58.7307C31.3144 57.8038 31.3003 56.3157 30.3735 55.4065C29.4462 54.4973 27.9582 54.5116 27.0493 55.4384L25.7745 56.7379L10.9458 41.9091C6.91898 37.8821 4.7012 32.5281 4.7012 26.8331C4.7012 21.138 6.91898 15.7839 10.946 11.7568C14.9731 7.72953 20.327 5.51198 26.0223 5.51198C31.7176 5.51198 37.0715 7.72977 41.0986 11.7568L55.6758 26.334L40.5786 41.4312C34.3681 47.6415 31.9289 56.2224 33.3294 64.2931L33.3272 64.2903ZM107.054 41.9093L92.2168 56.7463L75.3367 39.8662C74.4185 38.9485 72.9306 38.9485 72.0122 39.8662C71.0943 40.7841 71.0943 42.2725 72.0122 43.1906L88.8923 60.0708L74.9147 74.0484L74.0554 74.9077C73.5526 75.4105 73.0291 75.8851 72.487 76.3306C68.6918 79.4491 63.9762 81.1474 59 81.1523C53.3127 81.1467 47.9661 78.9291 43.9447 74.9077L43.1259 74.089C35.5328 65.6621 35.8694 52.7888 43.9031 44.7554L76.9017 11.7568C80.9287 7.72953 86.2827 5.51198 91.9779 5.51198C97.6732 5.51198 103.027 7.72977 107.054 11.7568C111.081 15.7839 113.299 21.1378 113.299 26.8331C113.299 32.5283 111.081 37.8823 107.054 41.9093Z" fill="#7878AB"/>
<path d="M66.9481 31.4776C66.0299 30.5599 64.542 30.5599 63.6236 31.4776C62.7057 32.3955 62.7057 33.8839 63.6236 34.802L66.3764 37.5548C66.8355 38.0136 67.437 38.2433 68.0385 38.2433C68.64 38.2433 69.2415 38.0136 69.7006 37.5548C70.6185 36.6369 70.6185 35.1485 69.7006 34.2303L66.9481 31.4776Z" fill="#7878AB"/>
</svg>
