<svg width="102" height="102" viewBox="0 0 102 102" fill="none" xmlns="http://www.w3.org/2000/svg">
<path d="M51 22.3574C48.415 22.3574 46.312 24.4606 46.312 27.0454C46.312 29.6303 48.415 31.7335 51 31.7335C53.5851 31.7335 55.688 29.6303 55.688 27.0454C55.688 24.4606 53.5851 22.3574 51 22.3574ZM51 28.7452C50.0627 28.7452 49.3003 27.9828 49.3003 27.0454C49.3003 26.1083 50.0629 25.3457 51 25.3457C51.9371 25.3457 52.6998 26.1083 52.6998 27.0454C52.6998 27.9828 51.9373 28.7452 51 28.7452Z" fill="#7878AB"/>
<path d="M51 70.2664C48.415 70.2664 46.312 72.3695 46.312 74.9544C46.312 77.5392 48.4152 79.6424 51 79.6424C53.5849 79.6424 55.688 77.5392 55.688 74.9544C55.688 72.3695 53.5851 70.2664 51 70.2664ZM51 76.6541C50.0627 76.6541 49.3003 75.8915 49.3003 74.9544C49.3003 74.017 50.0629 73.2546 51 73.2546C51.9371 73.2546 52.6998 74.017 52.6998 74.9544C52.6998 75.8915 51.9373 76.6541 51 76.6541Z" fill="#7878AB"/>
<path d="M92.8694 52.4941C93.4948 54.3485 95.2493 55.688 97.312 55.688C99.8968 55.688 102 53.5851 102 51C102 48.4149 99.8968 46.312 97.312 46.312C95.2493 46.312 93.4949 47.6515 92.8694 49.5059H85.9948C85.9396 48.2026 85.8155 46.911 85.619 45.6372L88.8822 44.9882C89.6915 44.827 90.2172 44.0405 90.0562 43.2313C89.8953 42.422 89.1084 41.8963 88.2993 42.0573L85.0357 42.7063C84.7285 41.4427 84.3516 40.2011 83.9083 38.9861L90.2555 36.357C90.7248 36.8963 91.3129 37.3266 91.9926 37.6081C92.5712 37.8478 93.1788 37.9675 93.7866 37.9675C94.3944 37.9675 95.0022 37.8476 95.5806 37.6081C96.7374 37.129 97.6387 36.2279 98.1178 35.0711C98.5971 33.914 98.5969 32.6398 98.1178 31.4829C97.6387 30.3259 96.7376 29.425 95.5808 28.9457C94.4237 28.4666 93.1495 28.4666 91.9926 28.9457C90.8358 29.425 89.9347 30.3259 89.4556 31.4829C89.1741 32.1627 89.0625 32.8829 89.1119 33.5961L82.7666 36.2243C82.2198 35.0484 81.608 33.9038 80.9336 32.7958L83.6982 30.9486C84.3843 30.49 84.5688 29.5623 84.1104 28.8762C83.652 28.1901 82.7242 28.0056 82.0379 28.464L79.2715 30.3125C78.5075 29.2692 77.6848 28.266 76.8046 27.3081L81.6612 22.4516C82.3015 22.7705 83.0113 22.9402 83.7476 22.9402C84.9999 22.9402 86.177 22.4526 87.0626 21.5672C87.9481 20.6817 88.4358 19.5045 88.4358 18.2522C88.4358 16.9999 87.9481 15.8227 87.0626 14.9372C86.1772 14.0519 84.9999 13.564 83.7476 13.564C82.4955 13.564 81.3181 14.0517 80.4326 14.9372C78.9745 16.3955 78.6834 18.5817 79.5516 20.3351L74.6925 25.1942C73.7428 24.3228 72.7384 23.5016 71.6857 22.7307L73.5358 19.9619C73.9942 19.2758 73.8098 18.3478 73.1236 17.8894C72.4375 17.431 71.5096 17.6155 71.0512 18.3016C71.0512 18.3016 68.4153 22.2274 68.383 22.2754C67.9242 22.9614 68.1081 23.8893 68.794 24.3481C77.7158 30.3171 83.0421 40.2804 83.0421 50.9994C83.0421 68.6675 68.6681 83.0415 51 83.0415C33.3319 83.0415 18.9579 68.6681 18.9579 51C18.9579 33.3319 33.3319 18.9579 51 18.9579C55.2489 18.9579 59.3756 19.7756 63.2649 21.3887C64.0245 21.7037 64.8953 21.3453 65.2139 20.5883H65.2141L68.403 12.8895C68.5077 12.8966 68.6123 12.9014 68.7165 12.9014C70.5569 12.9014 72.3068 11.8107 73.0539 10.0074C74.043 7.61912 72.9049 4.8713 70.5167 3.88218C69.3598 3.40305 68.0856 3.40286 66.9285 3.88218C65.7717 4.3615 64.8706 5.26236 64.3915 6.41923C63.9124 7.57609 63.9122 8.85049 64.3915 10.0074C64.673 10.6871 65.1035 11.2752 65.6428 11.7445L63.0157 18.0871C61.7939 17.6404 60.5527 17.2639 59.2947 16.9581L59.9425 13.7007C60.1035 12.8914 59.578 12.1047 58.7685 11.9438C57.9591 11.783 57.1726 12.3085 57.0116 13.1178L56.3632 16.3778C55.087 16.1819 53.7962 16.0568 52.4939 16.0026V9.13059C54.3483 8.50505 55.6878 6.75073 55.6878 4.68802C55.688 2.10315 53.5851 0 51 0C48.4149 0 46.312 2.10315 46.312 4.68802C46.312 6.75073 47.6515 8.50505 49.5059 9.13059V16.0036C48.1968 16.0588 46.9057 16.1841 45.637 16.38L44.9882 13.118C44.8272 12.3087 44.0407 11.7832 43.2313 11.944C42.4218 12.1049 41.8963 12.8914 42.0573 13.7009L42.7063 16.9643C41.4383 17.2733 40.1964 17.6492 38.9863 18.0923L36.357 11.7447C36.8963 11.2754 37.3266 10.6873 37.6083 10.0076C38.0876 8.85049 38.0874 7.57629 37.6083 6.41943C37.1292 5.26236 36.2281 4.3615 35.0713 3.88218C33.9142 3.40305 32.6402 3.40305 31.4831 3.88218C29.0949 4.8713 27.9568 7.61912 28.9459 10.0076C29.693 11.8111 31.4427 12.9016 33.2833 12.9016C33.3875 12.9016 33.4921 12.8968 33.5968 12.8897L36.2279 19.2415C35.0496 19.7918 33.9058 20.404 32.8032 21.0771L30.9488 18.302C30.4904 17.6159 29.5627 17.4314 28.8764 17.8898C28.1903 18.3482 28.0058 19.2762 28.4642 19.9623L30.3219 22.7426C29.2764 23.5098 28.2745 24.3328 27.3215 25.2085L22.4484 20.3355C23.3168 18.5821 23.0257 16.3959 21.5674 14.9376C20.6819 14.0523 19.5047 13.5644 18.2524 13.5644C17.0001 13.5644 15.823 14.0521 14.9374 14.9376C14.0519 15.8231 13.5642 17.0003 13.5642 18.2526C13.5642 19.5049 14.0519 20.6821 14.9374 21.5676C15.8228 22.4531 17.0001 22.9408 18.2524 22.9408C18.9887 22.9408 19.6984 22.7709 20.3388 22.4522L25.2083 27.3217C24.3326 28.2747 23.5096 29.2766 22.7424 30.3223L19.9623 28.4646C19.2762 28.0062 18.3482 28.1906 17.8898 28.8768C17.4314 29.5629 17.6159 30.4906 18.302 30.9492L21.0769 32.8036C20.4038 33.9064 19.7916 35.0499 19.2413 36.2283L12.8881 33.5968C12.9375 32.8836 12.8259 32.1635 12.5444 31.4837C12.0653 30.3267 11.1642 29.4258 10.0074 28.9465C8.85029 28.4672 7.57609 28.4674 6.41923 28.9465C5.26236 29.4258 4.3613 30.3267 3.88218 31.4835C3.40305 32.6404 3.40286 33.9148 3.88218 35.0717C4.3613 36.2285 5.26256 37.1296 6.41943 37.6087C6.99776 37.8484 7.60577 37.9681 8.21339 37.9681C8.82101 37.9681 9.42902 37.8484 10.0074 37.6087C10.6871 37.3272 11.2752 36.8967 11.7445 36.3576L18.0921 38.9867C17.6488 40.1968 17.2731 41.4389 16.9641 42.7067L13.7009 42.0577C12.8908 41.8967 12.1049 42.4222 11.944 43.2317C11.783 44.0411 12.3085 44.8276 13.118 44.9886L16.38 45.6374C16.1843 46.9059 16.0588 48.1972 16.0036 49.5063H9.13059C8.50525 47.6519 6.75073 46.3124 4.68802 46.3124C2.10315 46.312 0 48.4149 0 51C0 53.5851 2.10315 55.688 4.68802 55.688C6.75073 55.688 8.50505 54.3485 9.13059 52.4941H16.0036C16.0588 53.8032 16.1841 55.0945 16.38 56.363L13.118 57.0118C12.3087 57.173 11.783 57.9595 11.944 58.7687C12.0854 59.4797 12.7096 59.9716 13.4078 59.9716C13.5044 59.9716 13.6027 59.9623 13.7009 59.9425L16.9641 59.2935C17.2731 60.5613 17.649 61.8034 18.0921 63.0135L11.7445 65.6426C11.2752 65.1033 10.6871 64.673 10.0074 64.3915C8.85029 63.9124 7.57609 63.9124 6.41923 64.3915C5.26236 64.8706 4.3611 65.7717 3.88198 66.9285C3.40266 68.0856 3.40286 69.3598 3.88198 70.5167C4.3611 71.6737 5.26216 72.5746 6.41903 73.0539C6.99756 73.2936 7.60538 73.4133 8.21319 73.4133C8.82081 73.4133 9.42882 73.2934 10.0072 73.0539C11.164 72.5746 12.0651 71.6737 12.5442 70.5167C12.8257 69.8369 12.9373 69.1168 12.8879 68.4035L19.2411 65.7721C19.7914 66.9504 20.4036 68.094 21.0767 69.1968L18.3018 71.051C17.6157 71.5096 17.4312 72.4373 17.8896 73.1234C18.1777 73.5546 18.6511 73.7876 19.1334 73.7876C19.4186 73.7876 19.7071 73.706 19.9621 73.5356L22.7422 71.6779C23.5094 72.7234 24.3326 73.7253 25.2081 74.6785L20.3388 79.548C19.6986 79.2291 18.9887 79.0594 18.2524 79.0594C17.0001 79.0594 15.823 79.5471 14.9374 80.4324C14.0519 81.3179 13.5642 82.4951 13.5642 83.7474C13.5642 84.9997 14.0519 86.1769 14.9374 87.0624C15.8228 87.9477 17.0001 88.4356 18.2524 88.4356C19.5045 88.4356 20.6819 87.9479 21.5674 87.0624C23.0255 85.6041 23.3166 83.4179 22.4484 81.6646L27.3215 76.7915C28.2745 77.6672 29.2764 78.4902 30.3219 79.2574L28.4642 82.0377C28.0058 82.7238 28.1903 83.6518 28.8764 84.1102C29.1314 84.2805 29.4198 84.3622 29.7051 84.3622C30.1874 84.3622 30.6608 84.1291 30.9488 83.698L32.8032 80.9229C33.906 81.596 35.0498 82.2082 36.2279 82.7585L33.5968 89.1105C31.6445 88.9789 29.7354 90.0869 28.9461 91.9924C27.957 94.3807 29.0951 97.1285 31.4833 98.1176C32.0619 98.3573 32.6695 98.477 33.2773 98.477C33.8849 98.477 34.4929 98.3571 35.0713 98.1176C36.2281 97.6383 37.1292 96.7374 37.6083 95.5806C38.0874 94.4237 38.0876 93.1493 37.6083 91.9924C37.3268 91.3127 36.8963 90.7246 36.357 90.2553L38.9863 83.9077C40.1964 84.3508 41.4385 84.7267 42.7063 85.0357L42.0573 88.2991C41.8963 89.1084 42.4218 89.8951 43.2313 90.056C43.3297 90.0756 43.4277 90.0851 43.5243 90.0851C44.2226 90.0851 44.8467 89.5931 44.9882 88.882L45.637 85.62C46.9055 85.8157 48.1968 85.941 49.5059 85.9964V92.8694C47.6515 93.4949 46.312 95.2493 46.312 97.312C46.312 99.8968 48.4149 102 51 102C53.5851 102 55.688 99.8968 55.688 97.312C55.688 95.2493 54.3485 93.4949 52.4941 92.8694V85.9964C53.8032 85.9412 55.0943 85.8159 56.363 85.62L57.0118 88.882C57.1533 89.5931 57.7774 90.0851 58.4757 90.0851C58.5723 90.0851 58.6703 90.0758 58.7687 90.056C59.5782 89.8951 60.1037 89.1086 59.9427 88.2991L59.2937 85.0357C60.5617 84.7267 61.8036 84.3508 63.0137 83.9077L65.643 90.2553C65.1037 90.7246 64.6734 91.3127 64.3917 91.9924C63.9124 93.1495 63.9126 94.4237 64.3917 95.5806C64.8708 96.7376 65.7719 97.6385 66.9287 98.1178C67.5073 98.3575 68.1151 98.4772 68.7227 98.4772C69.3303 98.4772 69.9383 98.3573 70.5167 98.1178C72.9049 97.1287 74.043 94.3809 73.0539 91.9924C72.2644 90.0869 70.3555 88.9785 68.403 89.1104L65.7719 82.7585C66.9502 82.2082 68.094 81.596 69.1966 80.9229L71.051 83.698C71.339 84.1291 71.8124 84.3622 72.2947 84.3622C72.58 84.3622 72.8684 84.2807 73.1234 84.1102C73.8095 83.6518 73.994 82.7238 73.5356 82.0377L71.6779 79.2574C72.7234 78.4902 73.7253 77.6672 74.6783 76.7915L79.5514 81.6646C78.683 83.4179 78.9741 85.6041 80.4322 87.0624C81.3177 87.9477 82.4949 88.4356 83.7472 88.4356C84.9995 88.4356 86.1767 87.9479 87.0622 87.0624C87.9477 86.1769 88.4354 84.9997 88.4354 83.7474C88.4354 82.4951 87.9477 81.3179 87.0622 80.4324C86.1768 79.5469 84.9995 79.0592 83.7472 79.0592C83.0109 79.0592 82.3012 79.2291 81.6608 79.5479L76.7913 74.6783C77.667 73.7253 78.49 72.7234 79.2572 71.6777L82.0373 73.5354C82.2923 73.7058 82.5807 73.7874 82.866 73.7874C83.3483 73.7874 83.8217 73.5544 84.1098 73.1232C84.5682 72.4371 84.3837 71.5094 83.6976 71.0508L80.9227 69.1966C81.5958 68.0938 82.208 66.9501 82.7583 65.7719L89.1115 68.4034C89.0621 69.1166 89.1737 69.8367 89.4552 70.5165C89.9343 71.6735 90.8354 72.5744 91.9922 73.0537C92.5708 73.2934 93.1786 73.4131 93.7862 73.4131C94.394 73.4131 95.0018 73.2932 95.5804 73.0537C96.7372 72.5744 97.6383 71.6735 98.1174 70.5167C98.5965 69.3598 98.5967 68.0854 98.1174 66.9285C97.6383 65.7717 96.737 64.8706 95.5802 64.3915C94.4233 63.9122 93.1491 63.9122 91.9921 64.3915C91.3123 64.673 90.7242 65.1035 90.2549 65.6426L83.9074 63.0135C84.3506 61.8034 84.7263 60.5613 85.0353 59.2935L88.2985 59.9425C88.3969 59.9623 88.495 59.9716 88.5916 59.9716C89.2898 59.9716 89.914 59.4795 90.0554 58.7687C90.2164 57.9595 89.6909 57.1728 88.8814 57.0118L85.6194 56.363C85.8151 55.0945 85.9406 53.8032 85.9958 52.4941H92.8694ZM92.2162 32.6267C92.3901 32.2073 92.7166 31.8804 93.1362 31.7067C93.3459 31.6198 93.5663 31.5764 93.7866 31.5764C94.0069 31.5764 94.2273 31.6198 94.4373 31.7067C94.8566 31.8804 95.1833 32.2071 95.357 32.6267C95.531 33.046 95.531 33.5082 95.357 33.9276C95.1833 34.3469 94.8566 34.6736 94.4371 34.8473C94.0177 35.0211 93.5557 35.0213 93.1362 34.8473C92.7168 34.6736 92.3901 34.3469 92.2164 33.9276C92.0424 33.5082 92.0424 33.0462 92.2162 32.6267ZM31.7069 8.86384C31.3483 7.99784 31.7608 7.00154 32.6269 6.64295C32.8366 6.55609 33.057 6.51266 33.2773 6.51266C33.4976 6.51266 33.718 6.55609 33.9277 6.64295C34.3471 6.81687 34.6738 7.14339 34.8475 7.56294C35.0215 7.9823 35.0215 8.44448 34.8475 8.86384C34.6738 9.283 34.3473 9.60972 33.9279 9.78343H33.9277C33.9276 9.78363 33.9274 9.78363 33.9274 9.78363C33.0615 10.1424 32.0655 9.72964 31.7069 8.86384ZM67.1525 7.56274C67.3262 7.14339 67.6529 6.81667 68.0723 6.64275C68.282 6.55589 68.5024 6.51246 68.7227 6.51246C68.943 6.51246 69.1634 6.55589 69.3732 6.64275C70.2392 7.00134 70.6517 7.99764 70.2931 8.86344C69.9345 9.72925 68.9385 10.1418 68.0726 9.78363C68.0726 9.78363 68.0724 9.78363 68.0723 9.78343C68.0723 9.78343 68.0721 9.78343 68.0719 9.78343C67.6527 9.60952 67.3262 9.283 67.1523 8.86364C66.9787 8.44448 66.9787 7.9823 67.1525 7.56274ZM51 2.98828C51.9373 2.98828 52.6997 3.75089 52.6997 4.68802C52.6997 5.62514 51.9371 6.38775 51 6.38775C50.0629 6.38775 49.3003 5.62514 49.3003 4.68802C49.3003 3.75089 50.0627 2.98828 51 2.98828ZM8.86384 34.8475C8.44429 35.0215 7.9823 35.0215 7.56294 34.8475C7.14339 34.6738 6.81667 34.3471 6.64295 33.9277C6.46903 33.5084 6.46903 33.0462 6.64295 32.6269C6.81667 32.2075 7.14339 31.8806 7.56274 31.7069C7.77252 31.62 7.99286 31.5766 8.21339 31.5766C8.43373 31.5766 8.65406 31.62 8.86384 31.7069C9.2832 31.8806 9.60991 32.2073 9.78383 32.6269C9.95755 33.0462 9.95755 33.5084 9.78383 33.9277C9.60991 34.3471 9.28339 34.6738 8.86384 34.8475ZM9.78383 69.3733C9.60991 69.7927 9.28339 70.1196 8.86384 70.2933C8.44429 70.4673 7.9823 70.4673 7.56274 70.2933C7.14339 70.1196 6.81667 69.7929 6.64295 69.3733C6.46903 68.954 6.46903 68.4918 6.64295 68.0724C6.81667 67.6531 7.14339 67.3264 7.56294 67.1527C7.77272 67.0658 7.99305 67.0224 8.21339 67.0224C8.43373 67.0224 8.65406 67.0658 8.86384 67.1527C9.2832 67.3264 9.60991 67.6531 9.78363 68.0724C9.95755 68.4918 9.95755 68.9538 9.78383 69.3733ZM17.0505 19.4543C16.7294 19.1334 16.5527 18.7064 16.5527 18.2524C16.5527 17.7984 16.7294 17.3717 17.0505 17.0503C17.3717 16.7294 17.7984 16.5525 18.2524 16.5525C18.7064 16.5525 19.1332 16.7294 19.4543 17.0503C20.1171 17.7131 20.1171 18.7915 19.4543 19.4541C19.1332 19.7752 18.7064 19.9522 18.2524 19.9522C17.7984 19.9524 17.3717 19.7756 17.0505 19.4543ZM4.68802 52.6997C3.75069 52.6997 2.98828 51.9371 2.98828 51C2.98828 50.0629 3.75089 49.3003 4.68802 49.3003C5.62514 49.3003 6.38775 50.0629 6.38775 51C6.38775 51.9371 5.62534 52.6997 4.68802 52.6997ZM19.4545 84.9495C19.1334 85.2706 18.7066 85.4475 18.2526 85.4475C17.7986 85.4475 17.3719 85.2706 17.0507 84.9495C16.7296 84.6283 16.5529 84.2016 16.5529 83.7476C16.5529 83.2936 16.7296 82.8668 17.0507 82.5457C17.3719 82.2245 17.7986 82.0478 18.2526 82.0478C18.7066 82.0478 19.1334 82.2247 19.4545 82.5457C20.1171 83.2083 20.1171 84.2867 19.4545 84.9495ZM34.8475 94.4373C34.6738 94.8566 34.3471 95.1833 33.9277 95.3573C33.5084 95.531 33.0464 95.531 32.6269 95.3573C31.7608 94.9987 31.3483 94.0024 31.7069 93.1364C32.0655 92.2706 33.0613 91.8582 33.927 92.216C33.9272 92.216 33.9276 92.2162 33.9277 92.2164C33.9279 92.2166 33.9283 92.2166 33.9285 92.2166C34.3477 92.3905 34.6738 92.717 34.8477 93.1362C35.0213 93.5555 35.0213 94.0177 34.8475 94.4373ZM70.2931 93.1362C70.6517 94.0022 70.2392 94.9985 69.3732 95.357C68.9538 95.531 68.4918 95.531 68.0723 95.357C67.6529 95.1831 67.3262 94.8566 67.1525 94.4371C66.9785 94.0177 66.9785 93.5555 67.1525 93.1362C67.3262 92.717 67.6527 92.3903 68.0719 92.2166H68.0721C68.0723 92.2164 68.0724 92.2164 68.0724 92.2164C68.2844 92.1285 68.5042 92.0871 68.7203 92.0871C69.3879 92.0869 70.0224 92.4823 70.2931 93.1362ZM51 99.0117C50.0627 99.0117 49.3003 98.2491 49.3003 97.312C49.3003 96.3749 50.0629 95.6123 51 95.6123C51.9371 95.6123 52.6997 96.3749 52.6997 97.312C52.6997 98.2491 51.9373 99.0117 51 99.0117ZM93.1362 67.1525C93.5557 66.9785 94.0177 66.9785 94.4371 67.1525C94.8566 67.3262 95.1833 67.6529 95.357 68.0723C95.531 68.4916 95.531 68.9538 95.357 69.3732C95.1833 69.7925 94.8566 70.1194 94.4373 70.2931C94.0177 70.4671 93.5557 70.4671 93.1362 70.2931C92.7168 70.1194 92.3901 69.7927 92.2162 69.3732C92.0424 68.9538 92.0424 68.4916 92.2162 68.0723C92.3901 67.6529 92.7166 67.3262 93.1362 67.1525ZM97.312 49.3003C98.2493 49.3003 99.0117 50.0629 99.0117 51C99.0117 51.9371 98.2491 52.6997 97.312 52.6997C96.3749 52.6997 95.6123 51.9371 95.6123 51C95.6123 50.0629 96.3747 49.3003 97.312 49.3003ZM82.5455 17.0505C82.8666 16.7294 83.2934 16.5525 83.7474 16.5525C84.2014 16.5525 84.6281 16.7294 84.9493 17.0505C85.2704 17.3717 85.4471 17.7984 85.4471 18.2524C85.4471 18.7064 85.2704 19.1332 84.9493 19.4543C84.6281 19.7754 84.2014 19.9522 83.7474 19.9522C83.2934 19.9522 82.8666 19.7752 82.5455 19.4543C81.8829 18.7917 81.8829 17.7133 82.5455 17.0505ZM84.9495 82.5457C85.2706 82.8666 85.4473 83.2936 85.4473 83.7476C85.4473 84.2016 85.2706 84.6283 84.9495 84.9497C84.6283 85.2706 84.2016 85.4475 83.7476 85.4475C83.2936 85.4475 82.8668 85.2706 82.5457 84.9497C81.8829 84.2869 81.8829 83.2085 82.5457 82.5459C82.8668 82.2247 83.2936 82.0478 83.7476 82.0478C84.2016 82.0476 84.6283 82.2243 84.9495 82.5457Z" fill="#7878AB"/>
<path d="M79.6426 51C79.6426 48.415 77.5394 46.312 74.9544 46.312C72.3693 46.312 70.2664 48.4152 70.2664 51C70.2664 53.5849 72.3695 55.688 74.9544 55.688C77.5396 55.688 79.6426 53.5851 79.6426 51ZM73.2546 51C73.2546 50.0627 74.0172 49.3003 74.9544 49.3003C75.8917 49.3003 76.6543 50.0629 76.6543 51C76.6543 51.9371 75.8917 52.6998 74.9544 52.6998C74.0172 52.6998 73.2546 51.9373 73.2546 51Z" fill="#7878AB"/>
<path d="M22.3574 51C22.3574 53.5851 24.4606 55.688 27.0456 55.688C29.6307 55.688 31.7337 53.5849 31.7337 51C31.7337 48.4152 29.6305 46.312 27.0456 46.312C24.4604 46.312 22.3574 48.415 22.3574 51ZM28.7454 51C28.7454 51.9373 27.9828 52.6998 27.0456 52.6998C26.1083 52.6998 25.3457 51.9371 25.3457 51C25.3457 50.0629 26.1083 49.3003 27.0456 49.3003C27.9828 49.3003 28.7454 50.0627 28.7454 51Z" fill="#7878AB"/>
<path d="M30.7468 30.7468C29.8612 31.6323 29.3735 32.8095 29.3735 34.0618C29.3735 35.314 29.8612 36.4912 30.7468 37.3767C31.6321 38.2621 32.8095 38.75 34.0618 38.75C35.314 38.75 36.4912 38.2623 37.3767 37.3767C38.2623 36.4912 38.75 35.314 38.75 34.0618C38.75 32.8095 38.2623 31.6323 37.3767 30.7468C36.4914 29.8612 35.314 29.3735 34.0618 29.3735C32.8095 29.3735 31.6323 29.8614 30.7468 30.7468ZM35.7615 34.0618C35.7615 34.5158 35.5848 34.9425 35.2636 35.2638C34.9425 35.5848 34.5158 35.7617 34.0618 35.7617C33.6077 35.7617 33.181 35.5848 32.8599 35.2636C32.5387 34.9425 32.362 34.5158 32.362 34.0618C32.362 33.6077 32.5387 33.181 32.8599 32.8599C33.181 32.5387 33.6077 32.362 34.0618 32.362C34.5158 32.362 34.9425 32.5387 35.2636 32.8599C35.5848 33.181 35.7615 33.6077 35.7615 34.0618Z" fill="#7878AB"/>
<path d="M67.9385 72.6265C69.1907 72.6265 70.3679 72.1388 71.2535 71.2535C72.139 70.3679 72.6267 69.1907 72.6267 67.9385C72.6267 66.6862 72.139 65.509 71.2535 64.6235C70.3681 63.7381 69.1907 63.2502 67.9385 63.2502C66.6862 63.2502 65.509 63.7379 64.6235 64.6235C63.7379 65.509 63.2502 66.6862 63.2502 67.9385C63.2502 69.1907 63.7379 70.3679 64.6235 71.2535C65.509 72.1388 66.6862 72.6265 67.9385 72.6265ZM66.7366 66.7364C67.0577 66.4154 67.4844 66.2385 67.9385 66.2385C68.3925 66.2385 68.8192 66.4154 69.1403 66.7364C69.4615 67.0575 69.6382 67.4842 69.6382 67.9383C69.6382 68.3923 69.4615 68.819 69.1403 69.1401C68.8192 69.4613 68.3925 69.638 67.9385 69.638C67.4844 69.638 67.0577 69.4613 66.7366 69.1399C66.4154 68.819 66.2387 68.3921 66.2387 67.9381C66.2387 67.484 66.4154 67.0577 66.7366 66.7364Z" fill="#7878AB"/>
<path d="M69.1404 35.2638C68.8193 35.5847 68.3925 35.7617 67.9385 35.7617C67.4845 35.7617 67.0578 35.5847 66.7366 35.2636C66.4155 34.9425 66.2388 34.5157 66.2388 34.0617C66.2388 33.6077 66.4155 33.181 66.7366 32.8598C67.3201 32.2763 67.3201 31.3302 66.7366 30.7467C66.1531 30.1632 65.207 30.1632 64.6237 30.7467C63.7382 31.6322 63.2505 32.8094 63.2505 34.0617C63.2505 35.314 63.7382 36.4912 64.6237 37.3767C65.509 38.2621 66.6864 38.7499 67.9387 38.7499C69.191 38.7499 70.3682 38.2623 71.2537 37.3767C71.8372 36.7932 71.8372 35.8471 71.2537 35.2636C70.67 34.6803 69.7239 34.6803 69.1404 35.2638Z" fill="#7878AB"/>
<path d="M34.0616 72.6264C35.3139 72.6264 36.4911 72.1387 37.3766 71.2531C37.9601 70.6696 37.9601 69.7235 37.3766 69.14C36.7931 68.5565 35.847 68.5567 35.2637 69.14C34.9425 69.4612 34.5158 69.6379 34.0618 69.6379C33.6078 69.6379 33.181 69.4612 32.8599 69.1398C32.5388 68.8189 32.3621 68.392 32.3621 67.9379C32.3621 67.4841 32.5388 67.0572 32.8599 66.7361C33.4434 66.1525 33.4434 65.2064 32.8599 64.6229C32.2766 64.0394 31.3305 64.0394 30.747 64.6229C29.8615 65.5085 29.3738 66.6857 29.3738 67.9379C29.3738 69.1902 29.8615 70.3674 30.747 71.2529C31.6321 72.1387 32.8093 72.6264 34.0616 72.6264Z" fill="#7878AB"/>
<path d="M51 36.73C48.415 36.73 46.312 38.8331 46.312 41.418C46.312 44.0029 48.4152 46.106 51 46.106C53.5849 46.106 55.688 44.0029 55.688 41.418C55.688 38.8331 53.5851 36.73 51 36.73ZM51 43.1179C50.0627 43.1179 49.3003 42.3553 49.3003 41.4182C49.3003 40.4809 50.0629 39.7185 51 39.7185C51.9371 39.7185 52.6998 40.4809 52.6998 41.4182C52.6998 42.3553 51.9373 43.1179 51 43.1179Z" fill="#7878AB"/>
<path d="M51 55.8936C48.415 55.8936 46.312 57.9967 46.312 60.5816C46.312 63.1664 48.4152 65.2696 51 65.2696C53.5849 65.2696 55.688 63.1664 55.688 60.5816C55.688 57.9967 53.5851 55.8936 51 55.8936ZM51 62.2815C50.0627 62.2815 49.3003 61.5191 49.3003 60.5818C49.3003 59.6444 50.0629 58.882 51 58.882C51.9371 58.882 52.6998 59.6446 52.6998 60.5818C52.6998 61.5191 51.9373 62.2815 51 62.2815Z" fill="#7878AB"/>
<path d="M65.2698 51C65.2698 48.415 63.1666 46.312 60.5818 46.312C57.9969 46.312 55.8936 48.415 55.8936 51C55.8936 53.5851 57.9967 55.688 60.5816 55.688C63.1664 55.688 65.2698 53.5851 65.2698 51ZM60.5818 52.6998C59.6444 52.6998 58.882 51.9371 58.882 51C58.882 50.0629 59.6446 49.3003 60.5818 49.3003C61.5189 49.3003 62.2815 50.0629 62.2815 51C62.2815 51.9371 61.5189 52.6998 60.5818 52.6998Z" fill="#7878AB"/>
<path d="M46.1062 51C46.1062 48.415 44.0031 46.312 41.4182 46.312C38.8333 46.312 36.73 48.415 36.73 51C36.73 53.5851 38.8331 55.688 41.418 55.688C44.0029 55.688 46.1062 53.5851 46.1062 51ZM41.418 52.6998C40.4807 52.6998 39.7183 51.9371 39.7183 51C39.7183 50.0629 40.4809 49.3003 41.418 49.3003C42.3551 49.3003 43.1177 50.0629 43.1177 51C43.1177 51.9371 42.3553 52.6998 41.418 52.6998Z" fill="#7878AB"/>
<path d="M41.4182 42.9124H41.4341C42.2593 42.9124 42.9203 42.2434 42.9203 41.4182C42.9203 40.593 42.2434 39.9241 41.4182 39.9241C40.593 39.9241 39.9241 40.593 39.9241 41.4182C39.9241 42.2434 40.593 42.9124 41.4182 42.9124Z" fill="#7878AB"/>
<path d="M41.4341 62.0759C42.2593 62.0759 42.9203 61.407 42.9203 60.5818C42.9203 59.7566 42.2434 59.0876 41.4182 59.0876C40.593 59.0876 39.9241 59.7566 39.9241 60.5818C39.9241 61.407 40.593 62.0759 41.4182 62.0759H41.4341Z" fill="#7878AB"/>
<path d="M59.0718 41.4182C59.0718 42.2434 59.7408 42.9124 60.5659 42.9124H60.5819C61.407 42.9124 62.068 42.2434 62.068 41.4182C62.068 40.593 61.3911 39.9241 60.5659 39.9241C59.7408 39.9241 59.0718 40.593 59.0718 41.4182Z" fill="#7878AB"/>
<path d="M41.8342 30.3664C42.0248 30.3664 42.2187 30.3298 42.4057 30.2521L42.4205 30.2461C43.1829 29.9301 43.5373 29.0592 43.2213 28.2967C42.9054 27.5343 42.0238 27.1757 41.2616 27.4917C40.4992 27.8077 40.1374 28.6818 40.4534 29.444C40.6918 30.0194 41.2481 30.3664 41.8342 30.3664Z" fill="#7878AB"/>
<path d="M72.5565 40.4572C71.7948 40.7749 71.4351 41.6499 71.7528 42.4115C71.9921 42.985 72.5475 43.3307 73.1324 43.3307C73.3242 43.3307 73.5191 43.2934 73.7071 43.2149L73.7219 43.2088C74.4835 42.891 74.8359 42.019 74.5182 41.2576C74.2002 40.496 73.3177 40.1394 72.5565 40.4572Z" fill="#7878AB"/>
<path d="M28.8703 61.6646C29.0609 61.6646 29.2548 61.6277 29.4419 61.5502L29.4566 61.544C30.219 61.2281 30.5734 60.3571 30.2575 59.5947C29.9415 58.8323 29.06 58.4737 28.2977 58.7894C27.5353 59.1054 27.1735 59.9796 27.4895 60.7418C27.728 61.3173 28.2842 61.6646 28.8703 61.6646Z" fill="#7878AB"/>
<path d="M59.5956 71.7539C58.8332 72.0698 58.4714 72.944 58.7874 73.7062C59.0258 74.2816 59.582 74.6286 60.1681 74.6286C60.3588 74.6286 60.5526 74.5917 60.7397 74.5144L60.7544 74.5083C61.5169 74.1923 61.8713 73.3213 61.5553 72.5591C61.2393 71.7967 60.3578 71.4379 59.5956 71.7539Z" fill="#7878AB"/>
<path d="M60.5659 59.0876C59.7408 59.0876 59.0718 59.7566 59.0718 60.5818C59.0718 61.407 59.7408 62.0759 60.5659 62.0759H60.5819C61.407 62.0759 62.068 61.407 62.068 60.5818C62.068 59.7566 61.3911 59.0876 60.5659 59.0876Z" fill="#7878AB"/>
<path d="M27.4943 41.2668C27.1775 42.0289 27.5383 42.9034 28.3001 43.2202C28.4876 43.2983 28.682 43.3351 28.8733 43.3351C29.4588 43.3351 30.0146 42.9887 30.2535 42.4143L30.2596 42.3996C30.5764 41.6378 30.2126 40.7706 29.4506 40.4536C28.689 40.1369 27.8112 40.5048 27.4943 41.2668Z" fill="#7878AB"/>
<path d="M60.741 27.486C59.9772 27.1736 59.1016 27.5468 58.7892 28.3104C58.4766 29.074 58.8424 29.9466 59.6062 30.2591C59.7915 30.3349 59.9831 30.3709 60.1716 30.3709C60.7603 30.3709 61.3183 30.0207 61.555 29.4422L61.5609 29.4274C61.8733 28.6636 61.5046 27.7986 60.741 27.486Z" fill="#7878AB"/>
<path d="M41.2642 74.518C41.4517 74.5961 41.6461 74.633 41.8374 74.633C42.4229 74.633 42.9787 74.2865 43.2176 73.7122L43.2237 73.6975C43.5405 72.9356 43.1767 72.0684 42.4147 71.7515C41.6531 71.4347 40.7753 71.8027 40.4584 72.5647C40.1416 73.3267 40.5024 74.2013 41.2642 74.518Z" fill="#7878AB"/>
<path d="M74.5156 60.748L74.5218 60.7332C74.8386 59.9712 74.4748 59.104 73.7128 58.7873C72.951 58.4707 72.0734 58.8387 71.7565 59.6007C71.4397 60.3625 71.8005 61.2371 72.5623 61.554C72.7498 61.6321 72.9442 61.669 73.1355 61.669C73.721 61.669 74.2768 61.3223 74.5156 60.748Z" fill="#7878AB"/>
</svg>
