<svg width="128" height="81" viewBox="0 0 128 81" fill="none" xmlns="http://www.w3.org/2000/svg">
<path d="M119.018 48.3442C118.975 48.3358 118.931 48.3281 118.887 48.322L100.912 45.7498C100.84 45.7394 100.767 45.7322 100.694 45.7284C97.9378 45.5729 95.1453 45.6073 92.3934 45.8304C92.3547 45.8335 92.3156 45.8375 92.2769 45.8426L53.4926 50.7909C48.5976 51.1019 44.7279 54.9214 44.2121 59.6578L12.9097 50.0137C7.65469 48.3946 2.06188 51.3531 0.443057 56.6078C-1.17602 61.8628 1.78217 67.4554 7.03715 69.0747C7.04607 69.0775 7.05474 69.08 7.06366 69.0826L36.7294 77.871C42.0578 79.4495 47.5094 80.2422 53.0066 80.2422C55.1996 80.2422 57.4 80.116 59.6027 79.8633L98.139 75.4411C98.1757 75.437 98.2124 75.4319 98.2488 75.426C100.269 75.1045 102.318 75.1053 104.339 75.4286L116.388 77.3564C116.934 77.4436 117.476 77.486 118.012 77.486C122.885 77.4854 127.178 73.9877 127.963 69.0846C127.984 68.9515 127.995 68.8166 127.995 68.6818V58.2687C127.995 53.3131 124.471 49.4173 119.018 48.3442ZM122.896 68.4569H122.895C122.389 70.9829 119.82 72.7407 117.194 72.3212L105.144 70.3934C102.61 69.988 100.04 69.9839 97.5041 70.3812L59.0214 74.7973C51.9829 75.6048 44.9704 74.9939 38.1779 72.9816L8.5272 64.1976C5.96677 63.4015 4.52669 60.6733 5.31659 58.1091C5.69956 56.8653 6.54429 55.8449 7.69498 55.2363C8.84566 54.6277 10.1649 54.5035 11.4084 54.8868L45.3414 65.3411C47.0328 68.4627 50.3337 70.566 54.1055 70.566C54.2845 70.566 54.4643 70.5612 54.645 70.5515C54.7072 70.5482 54.769 70.5426 54.8307 70.5346L70.4184 68.5525C71.8154 68.375 72.8036 67.0984 72.6262 65.7017C72.4485 64.3047 71.1703 63.3149 69.7753 63.4939L54.2894 65.463C51.6782 65.5594 49.4745 63.5742 49.2608 60.9964C49.1211 58.3161 51.1856 56.0201 53.8664 55.8766C53.9288 55.8732 53.9908 55.8676 54.0527 55.8597L92.8643 50.9082C95.3297 50.7108 97.8304 50.6792 100.3 50.8131L118.095 53.3595C121.103 53.9711 122.896 55.8029 122.896 58.2684V68.4569Z" fill="#7878AB"/>
<path d="M80.1676 62.173L76.7035 62.6135C75.3065 62.791 74.3182 64.0677 74.4957 65.4644C74.6594 66.7523 75.7568 67.6928 77.0217 67.6928C77.1288 67.6928 77.2374 67.6862 77.3465 67.6722L80.8106 67.2316C82.2076 67.0541 83.1959 65.7775 83.0184 64.3808C82.8409 62.984 81.5635 61.9942 80.1676 62.173Z" fill="#7878AB"/>
<path d="M54.8394 38.5793C57.7981 38.5406 60.8578 38.5005 63.997 38.5005C67.1362 38.5005 70.1959 38.5406 73.1545 38.5793C75.906 38.6153 78.5505 38.65 81.073 38.65C92.4753 38.65 101.345 37.9424 105.89 33.4557C107.953 31.4195 109 28.7417 109 25.4972C109 18.3876 104.109 11.8282 95.2282 7.0278C86.844 2.49592 75.7525 0 63.997 0C52.2415 0 41.1499 2.49592 32.7657 7.0278C23.885 11.8282 18.9944 18.3873 18.9944 25.4972C18.9944 28.742 20.0405 31.4195 22.1035 33.4557C27.655 38.9348 39.651 38.7777 54.8394 38.5793ZM46.7864 7.16931V15.5533C46.7864 16.9615 47.9279 18.103 49.3361 18.103C50.7443 18.103 51.8858 16.9615 51.8858 15.5533V6.10174C55.1385 5.55202 58.5597 5.21444 62.0847 5.12443V9.68894C62.0847 11.0972 63.2262 12.2387 64.6344 12.2387C66.0426 12.2387 67.1841 11.0972 67.1841 9.68894V5.16829C70.6275 5.31515 73.9628 5.69761 77.128 6.28226V15.5533C77.128 16.9615 78.2695 18.103 79.6778 18.103C81.086 18.103 82.2275 16.9615 82.2275 15.5533V7.43652C94.9794 10.886 103.9 17.7723 103.9 25.4972C103.9 27.3787 103.394 28.7545 102.308 29.8264C98.2741 33.808 86.664 33.6566 73.2214 33.4807C70.2461 33.4416 67.1696 33.4014 63.997 33.4014C60.8244 33.4014 57.7479 33.4416 54.7726 33.4807C41.3305 33.6563 29.7198 33.8083 25.6856 29.8264C24.5997 28.7545 24.0938 27.3787 24.0938 25.4972C24.0938 17.5678 33.4921 10.5214 46.7864 7.16931Z" fill="#7878AB"/>
<path d="M64.6344 21.6724C66.0426 21.6724 67.1842 20.5309 67.1842 19.1227V17.8478C67.1842 16.4396 66.0426 15.2981 64.6344 15.2981C63.2262 15.2981 62.0847 16.4396 62.0847 17.8478V19.1227C62.0847 20.5309 63.2262 21.6724 64.6344 21.6724Z" fill="#7878AB"/>
</svg>
