<svg width="236" height="236" viewBox="0 0 236 236" fill="none" xmlns="http://www.w3.org/2000/svg">
<g filter="url(#filter0_dddd)">
<rect x="30" y="30" width="176" height="176" rx="16" fill="#F5F5FA"/>
</g>
<path d="M112.185 168.617L107.793 149.38C107.767 149.268 107.734 149.158 107.693 149.05C106.82 146.742 105.778 144.472 104.595 142.304C104.576 142.27 104.557 142.236 104.537 142.203L86.4798 112.449C84.4455 108.567 79.9669 106.737 75.871 107.877L72.4813 79.2644C71.8887 74.2655 67.3179 70.6768 62.2925 71.2675C57.2668 71.8561 53.6595 76.4021 54.2516 81.4008C54.2526 81.4099 54.2536 81.419 54.2549 81.4281L57.7893 108.711C58.6819 115.601 60.9262 122.134 64.46 128.127L82.0015 157.875C82.0201 157.907 82.0394 157.938 82.0595 157.969C83.0375 159.473 83.7659 161.114 84.2246 162.847L87.0025 173.339C88.1074 177.51 92.0775 180 97.6226 180H103.46C105.962 180 108.378 178.959 110.089 177.143C111.785 175.344 112.631 173.01 112.473 170.573C112.431 169.932 112.334 169.275 112.185 168.617ZM106.38 173.685C105.626 174.484 104.563 174.943 103.461 174.943H97.6231C95.7794 174.943 92.5865 174.567 91.9199 172.051L89.1419 161.559C88.5511 159.328 87.6155 157.212 86.3609 155.271L68.8463 125.568C65.6605 120.166 63.6371 114.277 62.8325 108.065L59.2999 80.7972C59.0429 78.5724 60.6499 76.5518 62.8876 76.2896C65.1284 76.0264 67.1674 77.627 67.4318 79.8564L71.1336 111.104C69.1895 113.668 68.6739 117.165 70.0613 120.287C70.1276 120.437 70.1988 120.586 70.2741 120.734C70.3023 120.789 70.3323 120.843 70.3646 120.896L77.6183 132.86C78.0958 133.647 78.9363 134.083 79.7979 134.083C80.2448 134.083 80.6978 133.966 81.1084 133.719C82.3107 132.998 82.6976 131.444 81.9726 130.248L74.7725 118.373C74.7516 118.33 74.7318 118.287 74.7125 118.244C73.8521 116.308 74.6359 114.05 76.4921 113.038C78.5046 112.024 80.9711 112.826 81.9921 114.827C82.0201 114.882 82.0504 114.936 82.0824 114.989L100.153 144.766C101.187 146.666 102.101 148.652 102.873 150.671L107.226 169.734C107.316 170.131 107.374 170.523 107.399 170.901C107.466 171.928 107.104 172.917 106.38 173.685Z" fill="#7878AB"/>
<path d="M85.1966 135.566C84.4716 134.37 82.9093 133.985 81.7065 134.707C80.5043 135.428 80.1173 136.982 80.8424 138.178L82.4542 140.837C82.9317 141.624 83.7722 142.06 84.6338 142.06C85.0807 142.06 85.5335 141.942 85.9443 141.696C87.1466 140.975 87.5335 139.421 86.8085 138.225L85.1966 135.566Z" fill="#7878AB"/>
<path d="M173.708 71.2672C168.684 70.6778 164.112 74.2653 163.519 79.2645L160.129 107.877C156.034 106.738 151.555 108.568 149.521 112.449L131.463 142.203C131.443 142.236 131.424 142.27 131.406 142.304C130.223 144.472 129.18 146.742 128.307 149.05C128.266 149.158 128.233 149.268 128.207 149.381L123.814 168.621C123.692 169.162 123.604 169.706 123.554 170.239C123.321 172.723 124.16 175.21 125.856 177.061C127.567 178.929 130.005 180 132.545 180H138.377C143.922 180 147.892 177.51 148.997 173.338L151.775 162.847C152.234 161.114 152.962 159.473 153.94 157.969C153.96 157.938 153.98 157.907 153.998 157.875L171.54 128.127C175.074 122.134 177.318 115.601 178.211 108.711L181.745 81.4279C181.746 81.4187 181.747 81.4096 181.748 81.4005C182.341 76.4022 178.734 71.8561 173.708 71.2672ZM176.701 80.7972L173.168 108.065C172.363 114.277 170.34 120.166 167.154 125.569L149.64 155.271C148.385 157.212 147.449 159.328 146.859 161.559L144.081 172.05C143.414 174.567 140.221 174.943 138.378 174.943H132.545C131.416 174.943 130.376 174.486 129.615 173.655C128.87 172.841 128.515 171.795 128.617 170.708C128.647 170.391 128.7 170.063 128.774 169.737L133.127 150.671C133.9 148.651 134.814 146.666 135.848 144.766L153.919 114.989C153.951 114.936 153.981 114.882 154.009 114.827C155.03 112.826 157.496 112.024 159.508 113.038C161.365 114.05 162.149 116.308 161.288 118.245C161.269 118.288 161.249 118.331 161.228 118.373L154.028 130.249C153.303 131.444 153.69 132.998 154.892 133.72C155.303 133.966 155.756 134.083 156.203 134.083C157.064 134.083 157.905 133.647 158.382 132.86L165.636 120.897C165.668 120.843 165.698 120.789 165.727 120.734C165.802 120.586 165.873 120.437 165.939 120.288C167.326 117.166 166.811 113.668 164.867 111.104L168.569 79.8566C168.833 77.627 170.871 76.0282 173.113 76.2896C175.351 76.5519 176.958 78.5724 176.701 80.7972Z" fill="#7878AB"/>
<path d="M154.294 134.707C153.092 133.986 151.529 134.37 150.804 135.566L149.192 138.225C148.467 139.421 148.854 140.975 150.056 141.696C150.467 141.942 150.92 142.06 151.367 142.06C152.228 142.06 153.069 141.624 153.546 140.837L155.158 138.178C155.883 136.982 155.496 135.428 154.294 134.707Z" fill="#7878AB"/>
<path d="M150.9 89.7206C150.9 71.6783 136.141 57 118 57C99.8597 57 85.1013 71.6783 85.1013 89.7206C85.1013 107.17 98.9066 121.472 116.225 122.393C116.784 122.473 117.351 122.516 117.925 122.516C118.474 122.516 119.017 122.477 119.553 122.404C136.975 121.595 150.9 107.245 150.9 89.7206ZM136.177 100.251C136.672 97.671 136.986 94.94 137.097 92.0989H145.382C144.245 95.2414 140.917 98.1322 136.177 100.251ZM145.282 87.0419H137.078C136.95 84.2984 136.631 81.6602 136.144 79.1653C140.736 81.1936 144.048 83.9538 145.282 87.0419ZM142.666 76.9457C140.344 75.4281 137.605 74.1333 134.54 73.1176C133.505 70.0848 132.191 67.3771 130.653 65.0882C135.784 67.706 139.995 71.8652 142.666 76.9457ZM115.534 62.5486V66.2789C115.534 67.552 116.672 68.5839 118.076 68.5839C119.48 68.5839 120.618 67.552 120.618 66.2789V62.6616C123.679 63.872 126.419 67.0903 128.449 71.5559C125.179 70.9397 121.669 70.6065 118 70.6065C114.27 70.6065 110.704 70.9501 107.387 71.5863C109.485 66.9583 112.345 63.6642 115.534 62.5486ZM105.117 65.2099C103.604 67.4875 102.31 70.1728 101.29 73.1755C98.2947 74.1823 95.6136 75.4564 93.3354 76.9457C95.9657 71.942 100.09 67.834 105.117 65.2099ZM99.6919 79.2396C99.2122 81.7128 98.899 84.3257 98.7719 87.0419H90.7186C91.9384 83.9912 95.1862 81.2607 99.6919 79.2396ZM90.5854 92.0989H98.7526C98.8639 94.9501 99.1802 97.6907 99.6782 100.279C98.1203 99.5886 96.7045 98.8081 95.4727 97.9456C93.6036 96.6368 91.4571 94.6616 90.5854 92.0989ZM93.4358 102.685C95.6682 104.117 98.2952 105.34 101.252 106.305C102.244 109.251 103.498 111.895 104.963 114.151C100.07 111.557 96.0435 107.552 93.4358 102.685ZM115.533 117.043C112.304 115.913 109.413 112.55 107.307 107.83C108.198 107.994 109.11 108.138 110.04 108.26C111.433 108.444 112.71 107.469 112.894 106.084C113.078 104.7 112.098 103.429 110.706 103.246C108.849 103.002 107.056 102.656 105.353 102.22C104.531 99.1173 104.003 95.6932 103.843 92.0989H115.533V117.043ZM118.076 77.6863C116.672 77.6863 115.534 78.8184 115.534 80.2149V87.0419H103.865C104.05 83.5649 104.58 80.2551 105.386 77.2492C109.196 76.2393 113.494 75.6635 118 75.6635C122.443 75.6635 126.682 76.2228 130.453 77.2064C131.265 80.2237 131.799 83.5485 131.986 87.0419H120.618V80.2149C120.618 78.8184 119.48 77.6863 118.076 77.6863ZM123.287 106.118C123.472 107.376 124.558 108.282 125.8 108.282C125.922 108.282 126.046 108.273 126.17 108.255C126.969 108.14 127.755 108.006 128.53 107.858C126.491 112.416 123.719 115.703 120.618 116.93V92.0992H132.007C131.847 95.696 131.318 99.1224 130.495 102.227C128.893 102.649 127.202 102.995 125.437 103.251C124.047 103.452 123.085 104.736 123.287 106.118ZM130.806 114.273C132.308 111.987 133.592 109.297 134.603 106.292C137.619 105.288 140.337 104.005 142.675 102.477C140.031 107.516 135.874 111.647 130.806 114.273Z" fill="#7878AB"/>
<defs>
<filter id="filter0_dddd" x="0" y="0" width="236" height="236" filterUnits="userSpaceOnUse" color-interpolation-filters="sRGB">
<feFlood flood-opacity="0" result="BackgroundImageFix"/>
<feColorMatrix in="SourceAlpha" type="matrix" values="0 0 0 0 0 0 0 0 0 0 0 0 0 0 0 0 0 0 127 0"/>
<feOffset dx="-10" dy="-10"/>
<feGaussianBlur stdDeviation="10"/>
<feColorMatrix type="matrix" values="0 0 0 0 1 0 0 0 0 1 0 0 0 0 1 0 0 0 1 0"/>
<feBlend mode="normal" in2="BackgroundImageFix" result="effect1_dropShadow"/>
<feColorMatrix in="SourceAlpha" type="matrix" values="0 0 0 0 0 0 0 0 0 0 0 0 0 0 0 0 0 0 127 0"/>
<feOffset dx="10" dy="10"/>
<feGaussianBlur stdDeviation="10"/>
<feColorMatrix type="matrix" values="0 0 0 0 0.666667 0 0 0 0 0.666667 0 0 0 0 0.8 0 0 0 0.5 0"/>
<feBlend mode="normal" in2="effect1_dropShadow" result="effect2_dropShadow"/>
<feColorMatrix in="SourceAlpha" type="matrix" values="0 0 0 0 0 0 0 0 0 0 0 0 0 0 0 0 0 0 127 0"/>
<feOffset dx="5" dy="5"/>
<feGaussianBlur stdDeviation="5"/>
<feColorMatrix type="matrix" values="0 0 0 0 0.666667 0 0 0 0 0.666667 0 0 0 0 0.8 0 0 0 0.25 0"/>
<feBlend mode="normal" in2="effect2_dropShadow" result="effect3_dropShadow"/>
<feColorMatrix in="SourceAlpha" type="matrix" values="0 0 0 0 0 0 0 0 0 0 0 0 0 0 0 0 0 0 127 0"/>
<feOffset dx="-5" dy="-5"/>
<feGaussianBlur stdDeviation="5"/>
<feColorMatrix type="matrix" values="0 0 0 0 1 0 0 0 0 1 0 0 0 0 1 0 0 0 0.5 0"/>
<feBlend mode="normal" in2="effect3_dropShadow" result="effect4_dropShadow"/>
<feBlend mode="normal" in="SourceGraphic" in2="effect4_dropShadow" result="shape"/>
</filter>
</defs>
</svg>
