<svg width="236" height="236" viewBox="0 0 236 236" fill="none" xmlns="http://www.w3.org/2000/svg">
<g filter="url(#filter0_dddd)">
<rect x="30" y="30" width="176" height="176" rx="16" fill="#F5F5FA"/>
</g>
<path d="M112.059 61.1264C106.461 62.0376 102.886 67.6739 104.454 73.1245C105.306 76.0776 107.751 78.6089 110.626 79.5117C113.122 80.2964 115.474 80.1192 117.768 78.9717C119.673 78.0182 121.073 76.6261 122.025 74.7107C122.717 73.3186 122.953 72.382 123.012 70.7873C123.046 69.7495 123.029 69.4289 122.869 68.6779C122.093 64.8726 119.26 62.0123 115.491 61.2107C114.58 61.0167 112.979 60.9745 112.059 61.1264Z" fill="#7878AB"/>
<path d="M112.962 81.8069C112.869 81.8238 112.582 81.8829 112.329 81.9335C110.694 82.2541 109.1 83.1316 107.827 84.3972C106.149 86.0594 105.239 88.1097 105.112 90.4891C105.07 91.24 105.146 92.7335 105.669 101.711C105.719 102.496 105.98 107.094 106.259 111.92C106.663 118.907 106.798 120.856 106.933 121.48C107.532 124.307 109.437 126.678 112.135 127.952C112.785 128.264 113.906 128.618 114.732 128.77C115.086 128.838 120.027 128.871 131.216 128.897L147.193 128.93L148.298 130.846C156.805 145.611 159.891 150.927 160.127 151.222C160.902 152.159 162.091 152.893 163.314 153.18C164.174 153.391 165.523 153.323 166.349 153.028C169.165 152.049 170.649 148.927 169.68 146.025C169.486 145.451 167.816 142.515 161.316 131.276C156.847 123.556 153.053 117.025 152.884 116.772C152.184 115.743 150.987 114.882 149.722 114.519C149.25 114.376 148.34 114.367 136.983 114.342L124.749 114.325L124.698 112.865C124.664 112.072 124.614 110.452 124.58 109.279L124.53 107.153H133.332C140.929 107.153 142.21 107.136 142.64 107.027C144.883 106.453 146.325 104.369 145.979 102.192C145.743 100.631 144.74 99.416 143.163 98.7747C142.724 98.5891 142.708 98.5891 133.366 98.5469L124.007 98.5047L123.939 97.6188C123.644 93.5097 123.349 89.966 123.282 89.4766C123.088 88.2532 122.506 86.8019 121.747 85.6797C120.912 84.4479 119.226 83.0641 117.86 82.4904C116.604 81.9588 115.946 81.8238 114.479 81.79C113.737 81.7816 113.054 81.7816 112.962 81.8069Z" fill="#7878AB"/>
<path d="M99.8509 103.787C95.4076 106.799 91.7821 110.604 89.0334 115.143C84.2781 122.99 82.8195 132.626 85.0117 141.705C87.1448 150.513 92.4987 158.107 100.104 163.136C108.754 168.848 119.547 170.477 129.521 167.591C138.045 165.127 145.515 159.356 150.127 151.669C151.038 150.142 152.151 147.923 152.083 147.754C151.991 147.493 147.193 139.216 147.142 139.216C147.109 139.216 147.041 139.452 146.982 139.739C146.831 140.54 146.274 142.337 145.836 143.477C142.809 151.273 136.544 157.314 128.686 160.014C123.206 161.887 117.135 161.988 111.452 160.301C105.424 158.504 99.8087 154.336 96.2423 149.003C93.8056 145.35 92.347 141.477 91.7062 136.937C91.487 135.436 91.487 131.175 91.6978 129.723C92.0013 127.639 92.3976 125.977 92.9878 124.273C94.4548 120.062 96.6891 116.527 99.9436 113.304L101.352 111.895L101.107 107.693C100.972 105.373 100.863 103.415 100.863 103.331C100.863 103.255 100.837 103.187 100.804 103.187C100.761 103.187 100.34 103.457 99.8509 103.787Z" fill="#7878AB"/>
<defs>
<filter id="filter0_dddd" x="0" y="0" width="236" height="236" filterUnits="userSpaceOnUse" color-interpolation-filters="sRGB">
<feFlood flood-opacity="0" result="BackgroundImageFix"/>
<feColorMatrix in="SourceAlpha" type="matrix" values="0 0 0 0 0 0 0 0 0 0 0 0 0 0 0 0 0 0 127 0"/>
<feOffset dx="-10" dy="-10"/>
<feGaussianBlur stdDeviation="10"/>
<feColorMatrix type="matrix" values="0 0 0 0 1 0 0 0 0 1 0 0 0 0 1 0 0 0 1 0"/>
<feBlend mode="normal" in2="BackgroundImageFix" result="effect1_dropShadow"/>
<feColorMatrix in="SourceAlpha" type="matrix" values="0 0 0 0 0 0 0 0 0 0 0 0 0 0 0 0 0 0 127 0"/>
<feOffset dx="10" dy="10"/>
<feGaussianBlur stdDeviation="10"/>
<feColorMatrix type="matrix" values="0 0 0 0 0.666667 0 0 0 0 0.666667 0 0 0 0 0.8 0 0 0 0.5 0"/>
<feBlend mode="normal" in2="effect1_dropShadow" result="effect2_dropShadow"/>
<feColorMatrix in="SourceAlpha" type="matrix" values="0 0 0 0 0 0 0 0 0 0 0 0 0 0 0 0 0 0 127 0"/>
<feOffset dx="5" dy="5"/>
<feGaussianBlur stdDeviation="5"/>
<feColorMatrix type="matrix" values="0 0 0 0 0.666667 0 0 0 0 0.666667 0 0 0 0 0.8 0 0 0 0.25 0"/>
<feBlend mode="normal" in2="effect2_dropShadow" result="effect3_dropShadow"/>
<feColorMatrix in="SourceAlpha" type="matrix" values="0 0 0 0 0 0 0 0 0 0 0 0 0 0 0 0 0 0 127 0"/>
<feOffset dx="-5" dy="-5"/>
<feGaussianBlur stdDeviation="5"/>
<feColorMatrix type="matrix" values="0 0 0 0 1 0 0 0 0 1 0 0 0 0 1 0 0 0 0.5 0"/>
<feBlend mode="normal" in2="effect3_dropShadow" result="effect4_dropShadow"/>
<feBlend mode="normal" in="SourceGraphic" in2="effect4_dropShadow" result="shape"/>
</filter>
</defs>
</svg>
