<svg width="236" height="236" viewBox="0 0 236 236" fill="none" xmlns="http://www.w3.org/2000/svg">
<g filter="url(#filter0_dddd)">
<rect x="30" y="30" width="176" height="176" rx="16" fill="#F5F5FA"/>
</g>
<path d="M180.757 121.419C180.709 121.41 180.66 121.401 180.611 121.395L160.663 118.54C160.583 118.529 160.503 118.521 160.422 118.516C157.363 118.344 154.264 118.382 151.21 118.63C151.167 118.633 151.124 118.637 151.081 118.643L108.04 124.134C102.607 124.479 98.3129 128.718 97.7404 133.974L63.0019 123.272C57.1702 121.475 50.9635 124.758 49.167 130.59C47.3702 136.422 50.6531 142.628 56.4848 144.425C56.4947 144.428 56.5044 144.431 56.5143 144.434L89.4362 154.187C95.3494 155.939 101.399 156.818 107.5 156.818C109.934 156.818 112.376 156.678 114.82 156.398L157.586 151.49C157.627 151.486 157.668 151.48 157.708 151.474C159.95 151.117 162.224 151.118 164.466 151.476L177.838 153.616C178.444 153.713 179.046 153.76 179.64 153.76C185.048 153.759 189.813 149.877 190.683 144.436C190.707 144.288 190.719 144.139 190.719 143.989V132.433C190.719 126.933 186.809 122.61 180.757 121.419ZM178.732 148.028L165.36 145.889C162.547 145.439 159.695 145.434 156.881 145.875L114.175 150.776C106.364 151.672 98.5817 150.994 91.0437 148.761L58.1385 139.013C55.297 138.129 53.6988 135.102 54.5754 132.256C55.0004 130.876 55.9379 129.743 57.2149 129.068C58.4916 128.392 59.9553 128.255 61.3359 128.68L98.9934 140.282C100.871 143.746 104.534 146.08 108.719 146.08C108.918 146.08 109.118 146.075 109.318 146.064C109.387 146.06 109.456 146.054 109.525 146.045L126.823 143.846C128.373 143.648 129.47 142.232 129.273 140.682C129.076 139.131 127.66 138.033 126.109 138.232L108.924 140.417C106.017 140.52 103.58 138.321 103.343 135.46C103.267 134.021 103.756 132.637 104.72 131.565C105.685 130.49 107.011 129.856 108.454 129.778C108.523 129.775 108.592 129.768 108.66 129.76L151.732 124.265C154.468 124.046 157.243 124.01 159.984 124.159L179.732 126.985C183.07 127.664 185.06 129.697 185.06 132.433V143.74C184.497 146.543 181.647 148.493 178.732 148.028Z" fill="#7878AB"/>
<path d="M137.642 136.766L133.798 137.255C132.248 137.452 131.151 138.868 131.348 140.418C131.529 141.848 132.747 142.891 134.151 142.891C134.27 142.891 134.39 142.884 134.511 142.869L138.356 142.38C139.906 142.183 141.003 140.766 140.806 139.216C140.609 137.665 139.19 136.567 137.642 136.766Z" fill="#7878AB"/>
<path d="M119.697 114.622C132.589 114.622 143.078 104.134 143.078 91.241C143.078 79.3146 124.144 52.9403 121.985 49.9723C121.452 49.2403 120.602 48.8071 119.697 48.8071C118.791 48.8071 117.941 49.2403 117.408 49.9723C115.249 52.9403 96.3152 79.3146 96.3152 91.241C96.3152 104.133 106.804 114.622 119.697 114.622ZM119.697 56.5325C126.165 65.8718 137.419 83.6888 137.419 91.241C137.419 101.013 129.469 108.963 119.697 108.963C109.925 108.963 101.974 101.013 101.974 91.241C101.974 83.6933 113.228 65.8735 119.697 56.5325Z" fill="#7878AB"/>
<path d="M119.178 103.607C126.473 103.607 132.408 97.6723 132.408 90.3777C132.408 88.8149 131.141 87.5481 129.579 87.5481C128.016 87.5481 126.749 88.8149 126.749 90.3777C126.749 94.5522 123.353 97.9482 119.178 97.9482C117.616 97.9482 116.349 99.215 116.349 100.778C116.349 102.341 117.616 103.607 119.178 103.607Z" fill="#7878AB"/>
<defs>
<filter id="filter0_dddd" x="0" y="0" width="236" height="236" filterUnits="userSpaceOnUse" color-interpolation-filters="sRGB">
<feFlood flood-opacity="0" result="BackgroundImageFix"/>
<feColorMatrix in="SourceAlpha" type="matrix" values="0 0 0 0 0 0 0 0 0 0 0 0 0 0 0 0 0 0 127 0"/>
<feOffset dx="-10" dy="-10"/>
<feGaussianBlur stdDeviation="10"/>
<feColorMatrix type="matrix" values="0 0 0 0 1 0 0 0 0 1 0 0 0 0 1 0 0 0 1 0"/>
<feBlend mode="normal" in2="BackgroundImageFix" result="effect1_dropShadow"/>
<feColorMatrix in="SourceAlpha" type="matrix" values="0 0 0 0 0 0 0 0 0 0 0 0 0 0 0 0 0 0 127 0"/>
<feOffset dx="10" dy="10"/>
<feGaussianBlur stdDeviation="10"/>
<feColorMatrix type="matrix" values="0 0 0 0 0.666667 0 0 0 0 0.666667 0 0 0 0 0.8 0 0 0 0.5 0"/>
<feBlend mode="normal" in2="effect1_dropShadow" result="effect2_dropShadow"/>
<feColorMatrix in="SourceAlpha" type="matrix" values="0 0 0 0 0 0 0 0 0 0 0 0 0 0 0 0 0 0 127 0"/>
<feOffset dx="5" dy="5"/>
<feGaussianBlur stdDeviation="5"/>
<feColorMatrix type="matrix" values="0 0 0 0 0.666667 0 0 0 0 0.666667 0 0 0 0 0.8 0 0 0 0.25 0"/>
<feBlend mode="normal" in2="effect2_dropShadow" result="effect3_dropShadow"/>
<feColorMatrix in="SourceAlpha" type="matrix" values="0 0 0 0 0 0 0 0 0 0 0 0 0 0 0 0 0 0 127 0"/>
<feOffset dx="-5" dy="-5"/>
<feGaussianBlur stdDeviation="5"/>
<feColorMatrix type="matrix" values="0 0 0 0 1 0 0 0 0 1 0 0 0 0 1 0 0 0 0.5 0"/>
<feBlend mode="normal" in2="effect3_dropShadow" result="effect4_dropShadow"/>
<feBlend mode="normal" in="SourceGraphic" in2="effect4_dropShadow" result="shape"/>
</filter>
</defs>
</svg>
