<svg width="125" height="91" viewBox="0 0 125 91" fill="none" xmlns="http://www.w3.org/2000/svg">
<path d="M122.577 8.1211C122.569 8.1211 122.561 8.1211 122.553 8.1211H114.339V5.31048C114.383 4.19804 113.664 3.19827 112.595 2.88753C106.892 1.39317 101.02 0.643873 95.125 0.658411C85.4332 0.658411 72.2281 2.83907 62.4637 12.7732C52.7719 2.74215 39.4699 0.658411 29.8023 0.658411C23.9073 0.643873 18.0352 1.39317 12.3328 2.88753C11.2637 3.19827 10.5441 4.19804 10.5883 5.31048V8.09687H2.42295C1.08488 8.09687 0 9.18174 0 10.5198V87.9089C0 89.2469 1.08488 90.3318 2.42295 90.3318C2.83909 90.3306 3.24796 90.2222 3.6102 90.0168C3.85249 89.8957 28.082 76.6421 61.9064 85.1709H62.2698H62.4879C62.6811 85.1942 62.8762 85.1942 63.0694 85.1709C96.9907 76.5694 121.22 89.7988 121.366 90.0168C122.115 90.4496 123.039 90.4496 123.789 90.0168C124.534 89.5867 124.995 88.7935 125 87.9331V10.544C125 9.20597 123.915 8.1211 122.577 8.1211ZM4.8459 84.0564V12.967H10.6368V73.7346C10.6216 75.0727 11.6941 76.1697 13.0321 76.1848C13.163 76.1863 13.2938 76.1772 13.4231 76.1575C18.4356 75.3922 23.4963 74.9873 28.5666 74.9461C35.5901 74.8243 42.5843 75.8807 49.2586 78.0717C34.1863 76.249 18.8981 78.3091 4.8459 84.0564ZM28.5666 70.1244C24.1595 70.1344 19.7576 70.4176 15.3857 70.9724V7.22461C20.1032 6.17365 24.9206 5.63727 29.7538 5.62546C38.8157 5.62546 51.3181 7.7092 59.9922 17.4979L60.0649 77.8536C55.0252 74.5584 45.188 70.1244 28.5666 70.1244ZM64.9108 17.4979C73.585 7.80611 86.0874 5.62546 95.1493 5.62546C99.9821 5.63969 104.8 6.17577 109.517 7.22461V70.9724C105.17 70.4124 100.792 70.1211 96.4092 70.1002C79.8847 70.1002 70.0233 74.5342 64.9108 77.8294V17.4979ZM120.13 84.0564C106.048 78.2934 90.7243 76.233 75.6203 78.0717C82.3261 75.8728 89.3536 74.8161 96.4092 74.9461C101.511 74.9745 106.605 75.3713 111.65 76.1333C112.972 76.3341 114.208 75.4243 114.409 74.1014C114.428 73.972 114.437 73.8412 114.436 73.7104V12.967H120.227L120.13 84.0564Z" fill="#7878AB"/>
</svg>
