<svg width="236" height="236" viewBox="0 0 236 236" fill="none" xmlns="http://www.w3.org/2000/svg">
<g filter="url(#filter0_dddd)">
<rect x="30" y="30" width="176" height="176" rx="16" fill="#F5F5FA"/>
</g>
<path d="M166.945 145.596V99.1361C166.945 93.0686 162.009 88.1324 155.941 88.1324C153.773 88.1324 151.749 88.7631 150.043 89.8505V71.1499C150.043 65.0825 145.107 60.1463 139.039 60.1463C136.858 60.1463 134.822 60.7844 133.11 61.8835C132.692 56.1948 127.93 51.6948 122.136 51.6948C116.069 51.6948 111.133 56.631 111.133 62.6985V67.1288C109.427 66.0414 107.403 65.4107 105.234 65.4107C99.1666 65.4107 94.2302 70.3469 94.2302 76.4144V119.354L89.99 113.442C89.9842 113.434 89.9783 113.426 89.9724 113.418C86.6348 108.879 83.0637 107.709 80.6552 107.526C77.7025 107.301 74.8443 108.405 72.6175 110.632C68.1471 115.102 67.8181 120.603 71.6394 126.984L90.7014 163.672C90.7851 163.833 90.8836 163.982 90.9944 164.117L93.3174 167.49C98.6372 175.216 107.415 179.828 116.796 179.828H136.961C146.234 179.828 153.574 176.974 158.777 171.343C167.764 161.62 167.048 147.117 166.945 145.596ZM155.008 167.901C150.811 172.428 144.739 174.723 136.961 174.723H116.796C109.094 174.723 101.889 170.937 97.5213 164.594L95.1238 161.113L76.1325 124.56C76.1075 124.512 76.0812 124.465 76.0531 124.419C72.7364 118.92 74.2797 116.188 76.2267 114.241C77.3845 113.083 78.8205 112.507 80.2687 112.616C82.1895 112.762 84.1196 114.081 85.8505 116.431L94.648 128.696C95.1651 129.416 96.021 129.816 96.9041 129.754C97.7891 129.691 98.5775 129.172 98.9867 128.385L99.0467 128.27C99.2358 127.906 99.3346 127.502 99.3346 127.092V76.4146C99.3346 73.162 101.981 70.5159 105.234 70.5159C108.486 70.5159 111.132 73.162 111.132 76.4146V98.3047C111.132 99.7145 112.275 100.857 113.685 100.857C115.094 100.857 116.237 99.7145 116.237 98.3047V76.4146V62.6985C116.237 59.4459 118.883 56.7997 122.136 56.7997C125.389 56.7997 128.035 59.4459 128.035 62.6985V71.1497V114.653C128.035 116.063 129.178 117.205 130.587 117.205C131.997 117.205 133.14 116.063 133.14 114.653V71.1499C133.14 67.8973 135.786 65.2512 139.038 65.2512C142.291 65.2512 144.937 67.8973 144.937 71.1499V99.1361V115.762C144.937 117.171 146.08 118.314 147.489 118.314C148.899 118.314 150.042 117.171 150.042 115.762V99.1361C150.042 95.8835 152.688 93.2373 155.941 93.2373C159.193 93.2373 161.839 95.8835 161.839 99.1361V145.687C161.839 145.752 161.842 145.82 161.847 145.884C161.858 146.02 162.785 159.512 155.008 167.901Z" fill="#7878AB"/>
<path d="M113.685 116.929C115.094 116.929 116.237 115.786 116.237 114.376V108.557C116.237 107.148 115.094 106.005 113.685 106.005C112.276 106.005 111.133 107.148 111.133 108.557V114.376C111.133 115.786 112.276 116.929 113.685 116.929Z" fill="#7878AB"/>
<path d="M147.82 131.191C148.554 129.16 148.108 126.795 146.483 125.17C144.369 123.056 141.004 122.937 138.749 124.814C138.614 124.643 138.466 124.477 138.308 124.319C136.069 122.08 132.425 122.08 130.185 124.319L121.948 132.556C121.831 130.913 121.188 129.793 120.582 129.089C119.561 127.9 118.038 127.218 116.402 127.218C114.6 127.218 111.415 127.905 110.246 132.478L105.554 147.319C105.507 147.465 105.475 147.613 105.456 147.761L105.186 149.227C104.448 153.225 105.724 157.327 108.599 160.202L113.983 165.586C116.66 168.263 119.629 169.619 122.813 169.618C122.961 169.618 123.111 169.615 123.259 169.609C128.745 169.393 132.779 165.123 133.408 164.419L145.78 152.047C146.865 150.962 147.463 149.52 147.463 147.985C147.463 146.451 146.865 145.009 145.78 143.924C145.628 143.772 145.469 143.63 145.304 143.497L148.74 140.062C149.825 138.977 150.422 137.534 150.422 136C150.422 134.466 149.825 133.024 148.74 131.939C148.456 131.656 148.148 131.405 147.82 131.191ZM145.13 136.452L137.665 143.917C137.662 143.92 137.66 143.922 137.657 143.925L132.331 149.252C131.334 150.248 131.334 151.864 132.331 152.861C132.829 153.36 133.482 153.609 134.136 153.609C134.789 153.609 135.442 153.359 135.94 152.861L141.266 147.535C141.266 147.535 141.267 147.535 141.267 147.534C141.422 147.38 141.598 147.347 141.719 147.347C141.839 147.347 142.016 147.38 142.17 147.534C142.325 147.689 142.358 147.866 142.358 147.986C142.358 148.107 142.325 148.283 142.17 148.438L129.742 160.867C129.699 160.909 129.651 160.961 129.612 161.007C129.583 161.04 126.639 164.383 123.033 164.51C121.144 164.578 119.364 163.748 117.593 161.977L112.209 156.593C110.523 154.906 109.774 152.499 110.206 150.153L110.477 148.681L115.137 133.945C115.153 133.893 115.168 133.841 115.181 133.788C115.544 132.324 115.961 132.324 116.402 132.324C116.456 132.324 116.637 132.331 116.71 132.416C116.803 132.524 116.928 132.903 116.818 133.643L115.894 139.256C115.751 140.13 116.07 141.017 116.74 141.597C117.409 142.178 118.331 142.371 119.177 142.105L119.224 142.091C119.617 141.968 119.974 141.751 120.265 141.46L133.795 127.929C134.045 127.68 134.45 127.68 134.699 127.929C134.948 128.178 134.948 128.584 134.699 128.833C134.697 128.834 134.696 128.836 134.695 128.837C134.693 128.839 134.691 128.841 134.688 128.843L127.2 136.418C126.209 137.421 126.219 139.037 127.221 140.028C127.719 140.52 128.367 140.765 129.016 140.765C129.674 140.765 130.332 140.512 130.831 140.007L138.319 132.432C138.319 132.431 138.32 132.431 138.32 132.43L141.971 128.78C142.219 128.531 142.625 128.531 142.874 128.78C143.123 129.029 143.123 129.434 142.874 129.683L140.617 131.939L129.002 143.555C128.005 144.551 128.005 146.168 129.002 147.164C129.5 147.663 130.154 147.912 130.807 147.912C131.46 147.912 132.113 147.663 132.612 147.164L144.227 135.549C144.227 135.549 144.228 135.549 144.228 135.548C144.382 135.394 144.558 135.362 144.679 135.362C144.799 135.362 144.975 135.394 145.13 135.549C145.285 135.704 145.317 135.88 145.317 136.001C145.317 136.121 145.284 136.298 145.13 136.452Z" fill="#7878AB"/>
<defs>
<filter id="filter0_dddd" x="0" y="0" width="236" height="236" filterUnits="userSpaceOnUse" color-interpolation-filters="sRGB">
<feFlood flood-opacity="0" result="BackgroundImageFix"/>
<feColorMatrix in="SourceAlpha" type="matrix" values="0 0 0 0 0 0 0 0 0 0 0 0 0 0 0 0 0 0 127 0"/>
<feOffset dx="-10" dy="-10"/>
<feGaussianBlur stdDeviation="10"/>
<feColorMatrix type="matrix" values="0 0 0 0 1 0 0 0 0 1 0 0 0 0 1 0 0 0 1 0"/>
<feBlend mode="normal" in2="BackgroundImageFix" result="effect1_dropShadow"/>
<feColorMatrix in="SourceAlpha" type="matrix" values="0 0 0 0 0 0 0 0 0 0 0 0 0 0 0 0 0 0 127 0"/>
<feOffset dx="10" dy="10"/>
<feGaussianBlur stdDeviation="10"/>
<feColorMatrix type="matrix" values="0 0 0 0 0.666667 0 0 0 0 0.666667 0 0 0 0 0.8 0 0 0 0.5 0"/>
<feBlend mode="normal" in2="effect1_dropShadow" result="effect2_dropShadow"/>
<feColorMatrix in="SourceAlpha" type="matrix" values="0 0 0 0 0 0 0 0 0 0 0 0 0 0 0 0 0 0 127 0"/>
<feOffset dx="5" dy="5"/>
<feGaussianBlur stdDeviation="5"/>
<feColorMatrix type="matrix" values="0 0 0 0 0.666667 0 0 0 0 0.666667 0 0 0 0 0.8 0 0 0 0.25 0"/>
<feBlend mode="normal" in2="effect2_dropShadow" result="effect3_dropShadow"/>
<feColorMatrix in="SourceAlpha" type="matrix" values="0 0 0 0 0 0 0 0 0 0 0 0 0 0 0 0 0 0 127 0"/>
<feOffset dx="-5" dy="-5"/>
<feGaussianBlur stdDeviation="5"/>
<feColorMatrix type="matrix" values="0 0 0 0 1 0 0 0 0 1 0 0 0 0 1 0 0 0 0.5 0"/>
<feBlend mode="normal" in2="effect3_dropShadow" result="effect4_dropShadow"/>
<feBlend mode="normal" in="SourceGraphic" in2="effect4_dropShadow" result="shape"/>
</filter>
</defs>
</svg>
