<svg width="136" height="106" viewBox="0 0 136 106" fill="none" xmlns="http://www.w3.org/2000/svg">
<path d="M126.001 70.2637C125.955 70.2541 125.909 70.246 125.862 70.239L106.833 67.4094C106.756 67.3979 106.68 67.39 106.602 67.3855C103.684 67.2147 100.728 67.2526 97.8147 67.498C97.7737 67.5014 97.7324 67.5059 97.6913 67.5115L90.1422 68.5123C87.9079 63.6465 83.1852 60.3681 77.9032 60.197C75.4663 55.5921 70.7395 52.6166 65.5927 52.6166C63.4065 52.6166 61.2881 53.1465 59.3843 54.1232V30.9057C61.4258 32.0931 63.7016 32.6905 65.9792 32.6905C69.4354 32.6905 72.8914 31.3234 75.5227 28.5894C80.1023 23.8303 83.308 6.69623 83.904 3.30982C84.0636 2.40354 83.7847 1.47342 83.1574 0.821546C82.5304 0.169956 81.635 -0.119795 80.7631 0.0456975C77.5042 0.66503 61.0155 3.99591 56.4356 8.75507C54.9364 10.3132 53.8655 12.1499 53.2207 14.1061C50.5416 11.8787 47.1483 10.5421 43.4583 10.5421C35.6854 10.5421 18.0013 23.0741 16.0106 24.5029C15.281 25.0266 14.8456 25.8894 14.8456 26.8108C14.8456 27.7322 15.281 28.595 16.0106 29.1187C18.0013 30.5476 35.6854 43.0795 43.4583 43.0795C47.5078 43.0795 51.2032 41.4734 53.9856 38.8421V54.4544C51.8257 53.0887 49.3193 52.3356 46.6975 52.3356C41.3677 52.3356 36.5278 55.5242 34.1716 60.3457C33.4946 60.2419 32.8101 60.1894 32.1212 60.1894C24.7853 60.1894 18.7493 66.0692 18.1393 73.5309L13.6671 72.0992C8.10458 70.3198 2.18309 73.573 0.469025 79.354C-1.24504 85.135 1.88698 91.2879 7.45053 93.0693C7.45971 93.0724 7.46916 93.0752 7.47861 93.078L38.8846 102.746C44.5256 104.483 50.2968 105.355 56.1168 105.355C58.4387 105.355 60.7685 105.216 63.1002 104.938L103.897 100.073C103.936 100.069 103.975 100.063 104.014 100.056C106.153 99.7027 108.323 99.7039 110.461 100.06L123.218 102.18C123.796 102.276 124.37 102.323 124.937 102.323C130.096 102.323 134.641 98.4744 135.471 93.0805C135.494 92.9341 135.505 92.7857 135.505 92.6374V81.1819C135.505 75.73 131.775 71.4443 126.001 70.2637ZM46.6972 29.6163H53.3524C52.1642 34.1365 48.1797 37.4702 43.458 37.4702C39.5219 37.4702 29.5693 31.6356 22.4039 26.8111C29.5674 21.9869 39.5184 16.1526 43.458 16.1526C48.1797 16.1526 52.1642 19.486 53.3524 24.0064H46.6972C45.2067 24.0064 43.9979 25.2622 43.9979 26.8114C43.9979 28.3605 45.2067 29.6163 46.6972 29.6163ZM60.2529 12.7224C62.3376 10.5561 70.757 7.99801 77.7971 6.3919C76.2512 13.7075 73.7897 22.4561 71.705 24.6227C69.2168 27.2083 65.4996 27.7547 62.4901 26.265L65.979 22.6396C67.0331 21.5442 67.0331 19.7681 65.979 18.6725C64.9246 17.5772 63.216 17.5772 62.1613 18.6725L58.6725 22.2979C57.2389 19.171 57.7647 15.308 60.2529 12.7224ZM32.1209 65.8002C33.0792 65.8002 34.025 65.9645 34.932 66.2891C35.6306 66.5393 36.3975 66.4804 37.0534 66.1267C37.7093 65.7729 38.1968 65.1556 38.4028 64.4179C39.4658 60.6076 42.8766 57.9463 46.6972 57.9463C49.646 57.9463 52.3623 59.489 53.9641 62.0732C54.4534 62.8631 55.291 63.3458 56.1953 63.3593C57.1012 63.377 57.9499 62.9147 58.4606 62.1397C60.0756 59.6896 62.7417 58.2268 65.5927 58.2268C69.1747 58.2268 72.4258 60.5684 73.6828 64.0535C74.1163 65.2557 75.2846 65.9985 76.5071 65.8571C76.837 65.8192 77.1609 65.7999 77.4697 65.7999C80.1903 65.7999 82.695 67.1418 84.299 69.287L56.6318 72.955C56.1116 72.9892 55.5993 73.0622 55.0978 73.1724C52.9256 73.6492 50.9603 74.8234 49.4481 76.5723C48.1373 78.0886 47.2762 79.9107 46.9245 81.8644C46.8743 82.1435 46.8344 82.4254 46.8049 82.7092L23.4945 75.2464C23.4869 75.0865 23.4831 74.9297 23.4831 74.776C23.4831 69.8267 27.358 65.8002 32.1209 65.8002ZM124.07 96.6409L111.313 94.52C108.63 94.0741 105.909 94.0693 103.225 94.5066L62.4844 99.3647C55.0333 100.253 47.6091 99.5813 40.4178 97.3676L9.02774 87.704C6.31682 86.8283 4.79225 83.8267 5.62823 81.0063C6.46582 78.1818 9.35814 76.5916 12.0777 77.4615L48.0015 88.9626C49.7923 92.3967 53.2868 94.7105 57.2799 94.7105C57.4691 94.7105 57.6597 94.7052 57.8511 94.6945C57.9167 94.6908 57.9823 94.6847 58.0478 94.676L74.5504 92.4954C76.0293 92.3002 77.0756 90.8958 76.8875 89.3589C76.6996 87.8221 75.3478 86.7338 73.8691 86.9304L57.4745 89.0969C54.6993 89.2019 52.3777 87.0196 52.1507 84.1844C52.0789 82.7569 52.5453 81.3853 53.4644 80.3217C54.3854 79.2563 55.6503 78.6275 57.0264 78.5509C57.0923 78.5472 57.1579 78.5411 57.2235 78.5324L98.3122 73.0852C100.922 72.8678 103.569 72.833 106.184 72.9805L125.024 75.7819C128.207 76.4548 130.106 78.4698 130.106 81.1822V92.3897H130.106C129.569 95.1688 126.849 97.102 124.07 96.6409Z" fill="#7878AB"/>
<path d="M84.8708 85.4766L81.2035 85.9613C79.7246 86.1565 78.6783 87.5609 78.8665 89.0975C79.0398 90.5143 80.2016 91.549 81.5407 91.549C81.6543 91.549 81.7691 91.5417 81.8846 91.5263L85.5519 91.0416C87.0308 90.8464 88.0771 89.4419 87.8889 87.9054C87.7011 86.3683 86.3492 85.2799 84.8708 85.4766Z" fill="#7878AB"/>
<path d="M37.7893 24.0066H35.6299C34.1393 24.0066 32.9305 25.2624 32.9305 26.8115C32.9305 28.3607 34.1393 29.6165 35.6299 29.6165H37.7893C39.2799 29.6165 40.4886 28.3607 40.4886 26.8115C40.4886 25.2624 39.2801 24.0066 37.7893 24.0066Z" fill="#7878AB"/>
</svg>
