<svg width="236" height="236" viewBox="0 0 236 236" fill="none" xmlns="http://www.w3.org/2000/svg">
<g filter="url(#filter0_dddd)">
<rect x="30" y="30" width="176" height="176" rx="16" fill="#F5F5FA"/>
</g>
<path d="M174.018 120.344C173.975 120.336 173.931 120.328 173.887 120.322L155.912 117.75C155.84 117.739 155.767 117.732 155.694 117.728C152.938 117.573 150.145 117.607 147.393 117.83C147.355 117.833 147.316 117.838 147.277 117.843L108.493 122.791C103.598 123.102 99.7279 126.921 99.2121 131.658L67.9097 122.014C62.6547 120.395 57.0619 123.353 55.4431 128.608C53.824 133.863 56.7822 139.455 62.0371 141.075C62.0461 141.077 62.0547 141.08 62.0637 141.083L91.7294 149.871C97.0578 151.449 102.509 152.242 108.007 152.242C110.2 152.242 112.4 152.116 114.603 151.863L153.139 147.441C153.176 147.437 153.212 147.432 153.249 147.426C155.269 147.105 157.318 147.105 159.339 147.429L171.388 149.356C171.934 149.444 172.476 149.486 173.012 149.486C177.885 149.485 182.178 145.988 182.963 141.085C182.984 140.952 182.995 140.817 182.995 140.682V130.269C182.995 125.313 179.471 121.417 174.018 120.344ZM177.896 140.457H177.895C177.389 142.983 174.82 144.741 172.194 144.321L160.144 142.393C157.61 141.988 155.04 141.984 152.504 142.381L114.021 146.797C106.983 147.605 99.9704 146.994 93.1779 144.982L63.5272 136.198C60.9668 135.402 59.5267 132.673 60.3166 130.109C60.6996 128.865 61.5443 127.845 62.695 127.236C63.8457 126.628 65.1649 126.504 66.4084 126.887L100.341 137.341C102.033 140.463 105.334 142.566 109.106 142.566C109.285 142.566 109.464 142.561 109.645 142.551C109.707 142.548 109.769 142.543 109.831 142.535L125.418 140.552C126.815 140.375 127.804 139.098 127.626 137.702C127.448 136.305 126.17 135.315 124.775 135.494L109.289 137.463C106.678 137.559 104.474 135.574 104.261 132.996C104.121 130.316 106.186 128.02 108.866 127.877C108.929 127.873 108.991 127.868 109.053 127.86L147.864 122.908C150.33 122.711 152.83 122.679 155.3 122.813L173.095 125.359C176.103 125.971 177.896 127.803 177.896 130.268V140.457Z" fill="#7878AB"/>
<path d="M135.168 134.173L131.704 134.614C130.307 134.791 129.318 136.068 129.496 137.464C129.659 138.752 130.757 139.693 132.022 139.693C132.129 139.693 132.237 139.686 132.347 139.672L135.811 139.232C137.208 139.054 138.196 137.777 138.018 136.381C137.841 134.984 136.564 133.994 135.168 134.173Z" fill="#7878AB"/>
<path d="M109.839 110.579C112.798 110.541 115.858 110.501 118.997 110.501C122.136 110.501 125.196 110.541 128.155 110.579C130.906 110.615 133.551 110.65 136.073 110.65C147.475 110.65 156.345 109.942 160.89 105.456C162.953 103.419 164 100.742 164 97.4972C164 90.3876 159.109 83.8282 150.228 79.0278C141.844 74.4959 130.752 72 118.997 72C107.241 72 96.1499 74.4959 87.7657 79.0278C78.885 83.8282 73.9944 90.3873 73.9944 97.4972C73.9944 100.742 75.0405 103.419 77.1035 105.456C82.655 110.935 94.651 110.778 109.839 110.579ZM101.786 79.1693V87.5533C101.786 88.9615 102.928 90.103 104.336 90.103C105.744 90.103 106.886 88.9615 106.886 87.5533V78.1017C110.138 77.552 113.56 77.2144 117.085 77.1244V81.6889C117.085 83.0972 118.226 84.2387 119.634 84.2387C121.043 84.2387 122.184 83.0972 122.184 81.6889V77.1683C125.628 77.3152 128.963 77.6976 132.128 78.2823V87.5533C132.128 88.9615 133.27 90.103 134.678 90.103C136.086 90.103 137.227 88.9615 137.227 87.5533V79.4365C149.979 82.886 158.9 89.7723 158.9 97.4972C158.9 99.3787 158.394 100.754 157.308 101.826C153.274 105.808 141.664 105.657 128.221 105.481C125.246 105.442 122.17 105.401 118.997 105.401C115.824 105.401 112.748 105.442 109.773 105.481C96.3305 105.656 84.7198 105.808 80.6856 101.826C79.5997 100.754 79.0938 99.3787 79.0938 97.4972C79.0938 89.5678 88.4921 82.5214 101.786 79.1693Z" fill="#7878AB"/>
<path d="M119.634 93.6724C121.043 93.6724 122.184 92.5309 122.184 91.1227V89.8478C122.184 88.4396 121.043 87.2981 119.634 87.2981C118.226 87.2981 117.085 88.4396 117.085 89.8478V91.1227C117.085 92.5309 118.226 93.6724 119.634 93.6724Z" fill="#7878AB"/>
<defs>
<filter id="filter0_dddd" x="0" y="0" width="236" height="236" filterUnits="userSpaceOnUse" color-interpolation-filters="sRGB">
<feFlood flood-opacity="0" result="BackgroundImageFix"/>
<feColorMatrix in="SourceAlpha" type="matrix" values="0 0 0 0 0 0 0 0 0 0 0 0 0 0 0 0 0 0 127 0"/>
<feOffset dx="-10" dy="-10"/>
<feGaussianBlur stdDeviation="10"/>
<feColorMatrix type="matrix" values="0 0 0 0 1 0 0 0 0 1 0 0 0 0 1 0 0 0 1 0"/>
<feBlend mode="normal" in2="BackgroundImageFix" result="effect1_dropShadow"/>
<feColorMatrix in="SourceAlpha" type="matrix" values="0 0 0 0 0 0 0 0 0 0 0 0 0 0 0 0 0 0 127 0"/>
<feOffset dx="10" dy="10"/>
<feGaussianBlur stdDeviation="10"/>
<feColorMatrix type="matrix" values="0 0 0 0 0.666667 0 0 0 0 0.666667 0 0 0 0 0.8 0 0 0 0.5 0"/>
<feBlend mode="normal" in2="effect1_dropShadow" result="effect2_dropShadow"/>
<feColorMatrix in="SourceAlpha" type="matrix" values="0 0 0 0 0 0 0 0 0 0 0 0 0 0 0 0 0 0 127 0"/>
<feOffset dx="5" dy="5"/>
<feGaussianBlur stdDeviation="5"/>
<feColorMatrix type="matrix" values="0 0 0 0 0.666667 0 0 0 0 0.666667 0 0 0 0 0.8 0 0 0 0.25 0"/>
<feBlend mode="normal" in2="effect2_dropShadow" result="effect3_dropShadow"/>
<feColorMatrix in="SourceAlpha" type="matrix" values="0 0 0 0 0 0 0 0 0 0 0 0 0 0 0 0 0 0 127 0"/>
<feOffset dx="-5" dy="-5"/>
<feGaussianBlur stdDeviation="5"/>
<feColorMatrix type="matrix" values="0 0 0 0 1 0 0 0 0 1 0 0 0 0 1 0 0 0 0.5 0"/>
<feBlend mode="normal" in2="effect3_dropShadow" result="effect4_dropShadow"/>
<feBlend mode="normal" in="SourceGraphic" in2="effect4_dropShadow" result="shape"/>
</filter>
</defs>
</svg>
