<svg width="236" height="236" viewBox="0 0 236 236" fill="none" xmlns="http://www.w3.org/2000/svg">
<g filter="url(#filter0_dddd)">
<rect x="30" y="30" width="176" height="176" rx="16" fill="#F5F5FA"/>
</g>
<path d="M161.944 145.451V98.069C161.944 91.8811 156.91 86.8469 150.722 86.8469C148.51 86.8469 146.446 87.4901 144.706 88.5991V69.5273C144.706 63.3394 139.672 58.3052 133.484 58.3052C131.259 58.3052 129.184 58.956 127.437 60.0769C127.011 54.2753 122.154 49.686 116.246 49.686C110.058 49.686 105.023 54.7202 105.023 60.9081V65.4263C103.284 64.3174 101.219 63.6742 99.0077 63.6742C92.8198 63.6742 87.7856 68.7083 87.7856 74.8962V118.688L83.4611 112.659C83.4551 112.651 83.4491 112.643 83.4431 112.634C80.0393 108.005 76.397 106.812 73.9412 106.625C70.9257 106.397 68.0147 107.522 65.7437 109.793C61.1843 114.352 60.8493 119.963 64.7464 126.469L84.1863 163.886C84.2717 164.051 84.3721 164.202 84.4854 164.339L86.8545 167.779C92.2804 175.659 101.232 180.363 110.799 180.363H131.364C140.822 180.363 148.308 177.451 153.614 171.709C162.779 161.793 162.049 147.002 161.944 145.451ZM149.791 168.176C145.51 172.808 139.31 175.156 131.364 175.156H110.799C102.945 175.156 95.5968 171.295 91.1421 164.826L88.697 161.276L69.329 123.998C69.3035 123.949 69.2764 123.901 69.248 123.853C65.8655 118.245 67.4391 115.46 69.4248 113.474C70.6055 112.293 72.0703 111.704 73.5471 111.817C75.5064 111.965 77.4749 113.311 79.2406 115.708L88.2115 128.215C88.7384 128.95 89.6086 129.359 90.5103 129.294C91.412 129.23 92.2161 128.704 92.6345 127.902L92.6959 127.784C92.8901 127.412 92.9916 126.999 92.9916 126.58V74.8965C92.9916 71.5793 95.6903 68.8807 99.0074 68.8807C102.325 68.8807 105.023 71.5793 105.023 74.8965V93.4278C105.023 94.8655 106.189 96.031 107.626 96.031C109.064 96.031 110.229 94.8655 110.229 93.4278V74.8965V60.9081C110.229 57.5909 112.928 54.8923 116.245 54.8923C119.562 54.8923 122.261 57.5909 122.261 60.9081V69.527V106.694C122.261 108.132 123.427 109.298 124.864 109.298C126.302 109.298 127.467 108.132 127.467 106.694V69.5273C127.467 66.2101 130.166 63.5115 133.483 63.5115C136.8 63.5115 139.499 66.2101 139.499 69.5273V95.2055V98.069V115.285C139.499 116.722 140.664 117.888 142.102 117.888C143.54 117.888 144.705 116.722 144.705 115.285V98.069C144.705 94.7518 147.404 92.0531 150.721 92.0531C154.038 92.0531 156.737 94.7518 156.737 98.069V145.544C156.737 145.613 156.739 145.681 156.745 145.749C156.757 145.886 157.737 159.577 149.791 168.176Z" fill="#7878AB"/>
<path d="M107.627 112.421C109.064 112.421 110.23 111.256 110.23 109.818V103.884C110.23 102.446 109.064 101.281 107.627 101.281C106.189 101.281 105.023 102.446 105.023 103.884V109.818C105.023 111.256 106.189 112.421 107.627 112.421Z" fill="#7878AB"/>
<path d="M133.987 146.115C132.424 141.132 127.816 137.672 122.445 137.672C117.074 137.672 112.467 141.132 110.904 146.115C105.898 147.805 102.452 152.672 102.672 158.086C102.928 164.434 108.108 169.53 114.463 169.686C114.566 169.689 114.669 169.69 114.772 169.69C116.562 169.69 118.286 169.306 119.901 168.549C121.518 167.789 123.373 167.79 124.989 168.549C126.697 169.35 128.527 169.732 130.427 169.686C136.782 169.53 141.962 164.435 142.219 158.086C142.438 152.672 138.992 147.805 133.987 146.115ZM137.017 157.875C136.87 161.491 133.92 164.393 130.3 164.482C129.212 164.508 128.172 164.291 127.202 163.836C125.69 163.126 124.068 162.772 122.445 162.772C120.823 162.772 119.2 163.126 117.689 163.836C116.719 164.291 115.676 164.508 114.591 164.481C110.971 164.392 108.02 161.49 107.874 157.875C107.735 154.448 110.167 151.406 113.532 150.8C114.617 150.604 115.462 149.745 115.639 148.656C116.184 145.308 119.046 142.878 122.445 142.878C125.844 142.878 128.706 145.308 129.251 148.657C129.429 149.745 130.273 150.604 131.359 150.8C134.723 151.407 137.156 154.448 137.017 157.875Z" fill="#7878AB"/>
<path d="M108.909 138.713C108.909 133.604 105.879 129.602 102.011 129.602C98.1423 129.602 95.1123 133.604 95.1123 138.713C95.1123 143.822 98.1423 147.824 102.011 147.824C105.879 147.824 108.909 143.822 108.909 138.713ZM102.011 142.617C101.494 142.617 100.319 141.142 100.319 138.713C100.319 136.283 101.494 134.808 102.011 134.808C102.527 134.808 103.703 136.283 103.703 138.713C103.703 141.142 102.528 142.617 102.011 142.617Z" fill="#7878AB"/>
<path d="M142.88 129.602C139.011 129.602 135.981 133.604 135.981 138.713C135.981 143.822 139.011 147.824 142.88 147.824C146.748 147.824 149.778 143.822 149.778 138.713C149.778 133.604 146.748 129.602 142.88 129.602ZM142.88 142.617C142.363 142.617 141.188 141.142 141.188 138.713C141.188 136.283 142.363 134.808 142.88 134.808C143.396 134.808 144.572 136.283 144.572 138.713C144.572 141.142 143.397 142.617 142.88 142.617Z" fill="#7878AB"/>
<path d="M130.385 135.069C134.253 135.069 137.283 131.066 137.283 125.958C137.283 120.849 134.253 116.847 130.385 116.847C126.516 116.847 123.486 120.849 123.486 125.958C123.486 131.066 126.516 135.069 130.385 135.069ZM130.385 122.053C130.901 122.053 132.077 123.528 132.077 125.958C132.077 128.387 130.901 129.862 130.385 129.862C129.868 129.862 128.693 128.387 128.693 125.958C128.693 123.528 129.868 122.053 130.385 122.053Z" fill="#7878AB"/>
<path d="M114.505 135.069C118.374 135.069 121.404 131.066 121.404 125.958C121.404 120.849 118.374 116.847 114.505 116.847C110.637 116.847 107.607 120.849 107.607 125.958C107.607 131.066 110.637 135.069 114.505 135.069ZM114.505 122.053C115.022 122.053 116.197 123.528 116.197 125.958C116.197 128.387 115.022 129.862 114.505 129.862C113.989 129.862 112.813 128.387 112.813 125.958C112.813 123.528 113.988 122.053 114.505 122.053Z" fill="#7878AB"/>
<defs>
<filter id="filter0_dddd" x="0" y="0" width="236" height="236" filterUnits="userSpaceOnUse" color-interpolation-filters="sRGB">
<feFlood flood-opacity="0" result="BackgroundImageFix"/>
<feColorMatrix in="SourceAlpha" type="matrix" values="0 0 0 0 0 0 0 0 0 0 0 0 0 0 0 0 0 0 127 0"/>
<feOffset dx="-10" dy="-10"/>
<feGaussianBlur stdDeviation="10"/>
<feColorMatrix type="matrix" values="0 0 0 0 1 0 0 0 0 1 0 0 0 0 1 0 0 0 1 0"/>
<feBlend mode="normal" in2="BackgroundImageFix" result="effect1_dropShadow"/>
<feColorMatrix in="SourceAlpha" type="matrix" values="0 0 0 0 0 0 0 0 0 0 0 0 0 0 0 0 0 0 127 0"/>
<feOffset dx="10" dy="10"/>
<feGaussianBlur stdDeviation="10"/>
<feColorMatrix type="matrix" values="0 0 0 0 0.666667 0 0 0 0 0.666667 0 0 0 0 0.8 0 0 0 0.5 0"/>
<feBlend mode="normal" in2="effect1_dropShadow" result="effect2_dropShadow"/>
<feColorMatrix in="SourceAlpha" type="matrix" values="0 0 0 0 0 0 0 0 0 0 0 0 0 0 0 0 0 0 127 0"/>
<feOffset dx="5" dy="5"/>
<feGaussianBlur stdDeviation="5"/>
<feColorMatrix type="matrix" values="0 0 0 0 0.666667 0 0 0 0 0.666667 0 0 0 0 0.8 0 0 0 0.25 0"/>
<feBlend mode="normal" in2="effect2_dropShadow" result="effect3_dropShadow"/>
<feColorMatrix in="SourceAlpha" type="matrix" values="0 0 0 0 0 0 0 0 0 0 0 0 0 0 0 0 0 0 127 0"/>
<feOffset dx="-5" dy="-5"/>
<feGaussianBlur stdDeviation="5"/>
<feColorMatrix type="matrix" values="0 0 0 0 1 0 0 0 0 1 0 0 0 0 1 0 0 0 0.5 0"/>
<feBlend mode="normal" in2="effect3_dropShadow" result="effect4_dropShadow"/>
<feBlend mode="normal" in="SourceGraphic" in2="effect4_dropShadow" result="shape"/>
</filter>
</defs>
</svg>
