<svg width="143" height="109" viewBox="0 0 143 109" fill="none" xmlns="http://www.w3.org/2000/svg">
<path d="M132.757 73.4192C132.709 73.4099 132.66 73.4014 132.611 73.3946L112.663 70.5401C112.583 70.5288 112.503 70.5206 112.422 70.5163C109.363 70.3437 106.264 70.3816 103.21 70.6295C103.167 70.6329 103.124 70.6374 103.081 70.6431L60.0395 76.1342C54.6073 76.4794 50.3129 80.7181 49.7404 85.9743L15.0019 75.2717C9.17017 73.4749 2.96348 76.7581 1.16698 82.5899C-0.629804 88.4216 2.65308 94.6281 8.48485 96.4251C8.49475 96.4282 8.50437 96.4311 8.51427 96.4339L41.4362 106.187C47.3494 107.939 53.3994 108.818 59.4999 108.818C61.9337 108.818 64.3756 108.678 66.8201 108.398L109.586 103.49C109.627 103.486 109.668 103.48 109.708 103.474C111.95 103.117 114.224 103.118 116.466 103.476L129.838 105.616C130.444 105.713 131.046 105.76 131.64 105.76C137.048 105.759 141.813 101.877 142.683 96.4362C142.707 96.2885 142.719 96.1388 142.719 95.9891V84.4331C142.719 78.9335 138.809 74.6102 132.757 73.4192ZM130.732 100.028L117.36 97.8886C114.547 97.4387 111.695 97.4344 108.881 97.875L66.1749 102.776C58.3642 103.672 50.5817 102.994 43.0437 100.761L10.1385 91.0127C7.29699 90.1293 5.69884 87.1016 6.57544 84.2559C7.00045 82.8757 7.93789 81.7433 9.21488 81.0678C10.4916 80.3924 11.9553 80.2546 13.3359 80.6799L50.9934 92.2818C52.8705 95.746 56.5337 98.0801 60.7195 98.0801C60.9181 98.0801 61.1176 98.0748 61.3182 98.064C61.3873 98.0603 61.4558 98.0541 61.5245 98.0453L78.8232 95.8456C80.3735 95.6484 81.4702 94.2319 81.273 92.6816C81.0758 91.1313 79.6599 90.0325 78.109 90.2317L60.9235 92.4173C58.0167 92.52 55.5796 90.3209 55.3427 87.4604C55.2675 86.0208 55.7561 84.6374 56.7199 83.5647C57.6851 82.49 59.0113 81.8556 60.4535 81.7784C60.5228 81.7747 60.5916 81.7685 60.6604 81.7597L103.732 76.2646C106.468 76.0456 109.243 76.0103 111.984 76.1591L131.732 78.985C135.07 79.6638 137.06 81.6966 137.06 84.4328V95.7395C136.497 98.5428 133.647 100.493 130.732 100.028Z" fill="#7878AB"/>
<path d="M89.6421 88.7657L85.7978 89.2547C84.2475 89.4516 83.1508 90.8684 83.3477 92.4184C83.5294 93.8476 84.7472 94.8915 86.151 94.8915C86.2698 94.8915 86.3903 94.8841 86.5115 94.8686L90.3557 94.3796C91.9061 94.1827 93.0028 92.7659 92.8059 91.2158C92.6086 89.6652 91.1904 88.5668 89.6421 88.7657Z" fill="#7878AB"/>
<path d="M71.6966 66.6224C84.589 66.6224 95.078 56.1337 95.078 43.241C95.078 31.3146 76.1438 4.9403 73.9849 1.97235C73.4523 1.24034 72.6018 0.807129 71.6966 0.807129C70.7914 0.807129 69.9408 1.24034 69.4083 1.97235C67.2493 4.9403 48.3152 31.3146 48.3152 43.241C48.3152 56.1334 58.8039 66.6224 71.6966 66.6224ZM71.6969 8.53245C78.1653 17.8718 89.4188 35.6888 89.4188 43.241C89.4188 53.0129 81.4685 60.9632 71.6966 60.9632C61.9246 60.9632 53.9743 53.0129 53.9743 43.241C53.9743 35.6933 65.2284 17.8735 71.6969 8.53245Z" fill="#7878AB"/>
<path d="M71.1785 55.6074C78.4734 55.6074 84.4082 49.6723 84.4082 42.3777C84.4082 40.8149 83.1414 39.5481 81.5786 39.5481C80.0158 39.5481 78.749 40.8149 78.749 42.3777C78.749 46.5522 75.3529 49.9482 71.1785 49.9482C69.6157 49.9482 68.3489 51.215 68.3489 52.7778C68.3489 54.3406 69.6157 55.6074 71.1785 55.6074Z" fill="#7878AB"/>
</svg>
