<svg width="123" height="123" viewBox="0 0 123 123" fill="none" xmlns="http://www.w3.org/2000/svg">
<path fill-rule="evenodd" clip-rule="evenodd" d="M63.14 91.34L61.86 85.69L69.78 83.88L67.08 112.22L67.91 113.88L67.36 113.95L68.6 117.82H66.39L64.94 120.59H57.75L58.3 118.93C59.25 116.41 59.94 115.83 61.62 113.75C61.15 111.98 61.88 109.4 63.03 106.54C64.6 102.61 64.53 101.48 64.09 97.55C63.83 95.25 63.55 93.23 63.14 91.34ZM4.59002 57.51L6.66002 58.13C7.36002 59.98 8.85002 60.43 11.15 60.11C11.73 60.03 12.37 59.9 13.06 59.73C14.77 59.51 21.18 58.35 22.46 58.84C23.12 59.09 23.78 59.57 24.46 60.33L26.85 64.78C27.65 65.91 28.56 66.89 29.63 67.6C31.65 68.95 33.93 69.3 36.57 71.16C38.11 72.24 39.71 73.54 41.35 75.03C43.81 80.34 47.61 80.08 49.28 84.38C51.11 89.08 49.9 95.27 49.14 100.15C48.37 105.12 47.39 109.26 46.34 113.12L46.12 114.18L44.42 116.36L44.33 117.23L41.98 118.41L39.8 122.68H46.86L49.95 120.15H51.91L50.65 117.75V117.18L50.87 116.79V115.74L50.58 115.66L50.43 113.35L50.78 112.61L54.66 98.53L56.49 90.03L58.02 85.63C58.35 84.91 58.82 84.31 59.47 83.86C60.98 82.8 67.23 81.81 69.31 81.36C75.21 80.99 81.19 80.74 87.28 80.63C90.25 80.58 90.11 80.28 92.29 82.5C93.52 83.75 94.77 85.32 96.04 87.17C97.2 88.78 98.21 90.53 99.25 92.56C102.57 99.04 100.27 106.97 97.05 113.57C96.48 114.75 96.38 114.69 96.32 116.01L96.28 116.84C95.37 117.18 94.38 117.66 93.5 118.23C92.21 119.06 91.83 119.42 91.25 120.85C90.98 121.51 90.77 122.2 90.62 122.89H97.75L100.84 120.37H102.99L101.85 118.14V117.49L102.18 117.37L102.14 116.15L101.66 115.9L101.65 114.53L102.54 112.05L104.65 105.47L106.15 98.52C106.39 97.47 106.48 96.57 106.45 95.77C106.42 94.68 106.17 93.79 105.82 92.99C105.01 91.3 104.44 89.44 104.3 87.29C104.2 85.78 104.16 86 105.16 84.95C107.18 83.65 108.87 81.98 110.39 80.12C112.54 77.47 114.41 74.31 115.57 71.1C116.17 69.45 116.69 67.73 116.87 65.81C117.39 66.13 117.74 66.68 117.72 67.68C117.17 70.71 117.41 72.88 118.57 74.06C119.08 74.79 119.65 75.39 120.29 75.87C120.96 76.38 121.71 76.76 122.51 77.02C122.97 74.69 120.9 74.23 121.22 70.75C121.59 66.73 121.62 63.75 121 61.66C120.27 58.13 117.93 56.12 114.42 55.24C108.74 46.57 98.19 46.28 85.77 50.35C76.93 53.25 67.71 47.14 58.29 46.88C43.68 46.49 44.8 55.29 37.1 49.63L31.98 46.42L33.04 42.28L35.48 39.84C34.56 39.18 33.65 38.87 32.75 38.84C29.98 38.73 29.63 40.31 27.79 41.1C27.13 41.38 26.45 41.47 25.73 41.38C26.04 40.8 26.38 40.25 26.83 39.82C28.74 37.96 33.94 34.59 38.07 31.82C41.28 29.67 45.66 26.96 48.28 24.32C49.67 22.92 51.09 20.82 51.61 18.88C52.05 17.23 52.06 15.06 52.19 13.02L53.83 12C59.15 11.83 63.83 8.42 65.22 3.42C65.9 0.969996 65.66 1.5 64.27 2.79C63.27 3.72 62.25 4.55 61.19 5.21C60.21 5.85 60.24 3.63 60.4 1.87C60.51 0.609996 61.1 -1.03 59.5 0.819996C58.19 2.33 58.31 4.59 57.77 6.28C56.93 8.88 55.74 7.63 55.33 6.08C54.98 4.74 54.85 3.06 54.21 2.21C53.61 1.43 52.82 0.759996 52.72 2.15C52.59 3.97 54.3 8.68999 52.79 9.95C51.62 10.92 48.79 9.72 47.66 11.03C47.27 11.48 47.31 12.18 47.91 13.18C48.51 14.89 49.63 17.1 48.96 18.87C48.42 20.3 43.66 24.02 42.34 25.02C40.17 26.67 37.85 28.19 35.45 29.64C34.99 29.91 34.65 30 34.44 29.87C34.27 29.76 34.2 29.47 34.27 28.99L34.58 26.86C34.86 24.93 34.98 24.11 34.84 22.16C33.98 20.63 34.1 19.68 34.51 18.62C34.89 17.65 36.38 17 37.67 16.63C41.41 15.57 42.23 13.01 40.02 13.72C38.23 14.3 37.83 15.42 34.75 15.16C33.86 15.09 33.12 14.71 32.52 14.15C31.54 13.44 30.29 11.9 29.87 13.36C29.77 13.7 29.77 14.06 29.84 14.43C30.51 15.01 31.75 15.64 31.83 16.57C31.38 16.66 30.91 16.64 30.43 16.56C29.49 16.4 28.5 15.98 27.52 15.56L22.65 12.89C21.29 12.14 21.51 12.58 22.22 13.88C22.98 15.27 24.27 16.05 25.5 16.99L29.47 20.03C30.21 20.67 30.81 21.36 31.13 22.16C32.23 24.9 31.86 28.74 31.2 31.47C30.71 33.49 30.17 34.05 29.41 33.68C27.61 32.8 24.37 32.24 20.66 31.2C19.09 30.76 16.73 29.29 15.52 28.47C14.18 27.57 14.91 29.51 15.81 30.12L17.9 31.53C17.48 31.68 17.09 31.65 16.77 31.73C15.84 31.98 10.19 28.13 9.77002 28.08C11.89 35.38 25.05 33.12 26.62 35.66C26.86 36.05 26.84 36.42 26.43 36.81L21.6 40.02C21.07 40.21 20.49 40.42 19.87 40.33C17.27 39.95 9.94002 37.84 7.05002 37.58C7.46002 38.17 7.96002 38.73 8.64002 39.2C9.29002 39.65 11.29 40.24 11.08 41.09C10.82 42.15 6.91002 41.77 6.08002 41.65C3.96002 41.35 1.97002 40.68 0.0200195 39.9C0.41002 40.74 0.99002 41.51 1.99002 42.12C3.50002 43.04 6.39002 43.61 8.15002 43.7C13.58 43.97 13.25 41.15 16.67 41.71C17.58 41.86 18.52 42.2 19.19 42.75L11.96 50.1L3.96002 54.57C3.49002 55.69 3.75002 56.66 4.59002 57.51ZM107.42 86.96L113.35 80.85C114.58 86.35 116.38 89.63 118.39 92.13C119.88 98.01 118.78 105.19 117.97 112.21L118.25 113.94L118.93 115.2L118.13 115.19L119.22 117.74L117.23 117.83L116.47 120.41H109.36L109.91 118.75C110.86 116.23 111.83 115.15 113.51 113.06C113.27 112.15 113.38 111.7 113.68 110.43C114.64 106.44 114.83 100.12 113.22 96.29C111.79 92.89 109.48 89.7 107.42 86.96Z" fill="#7878AB"/>
</svg>
