<svg width="236" height="236" viewBox="0 0 236 236" fill="none" xmlns="http://www.w3.org/2000/svg">
<g filter="url(#filter0_dddd)">
<rect x="30" y="30" width="176" height="176" rx="16" fill="#F5F5FA"/>
</g>
<g clip-path="url(#clip0)">
<path fill-rule="evenodd" clip-rule="evenodd" d="M115.14 140.34L113.86 134.69L121.78 132.88L119.08 161.22L119.91 162.88L119.36 162.95L120.6 166.82H118.39L116.94 169.59H109.75L110.3 167.93C111.25 165.41 111.94 164.83 113.62 162.75C113.15 160.98 113.88 158.4 115.03 155.54C116.6 151.61 116.53 150.48 116.09 146.55C115.83 144.25 115.55 142.23 115.14 140.34ZM56.59 106.51L58.66 107.13C59.36 108.98 60.85 109.43 63.15 109.11C63.73 109.03 64.37 108.9 65.06 108.73C66.77 108.51 73.18 107.35 74.46 107.84C75.12 108.09 75.78 108.57 76.46 109.33L78.85 113.78C79.65 114.91 80.56 115.89 81.63 116.6C83.65 117.95 85.93 118.3 88.57 120.16C90.11 121.24 91.71 122.54 93.35 124.03C95.81 129.34 99.61 129.08 101.28 133.38C103.11 138.08 101.9 144.27 101.14 149.15C100.37 154.12 99.39 158.26 98.34 162.12L98.12 163.18L96.42 165.36L96.33 166.23L93.98 167.41L91.8 171.68H98.86L101.95 169.15H103.91L102.65 166.75V166.18L102.87 165.79V164.74L102.58 164.66L102.43 162.35L102.78 161.61L106.66 147.53L108.49 139.03L110.02 134.63C110.35 133.91 110.82 133.31 111.47 132.86C112.98 131.8 119.23 130.81 121.31 130.36C127.21 129.99 133.19 129.74 139.28 129.63C142.25 129.58 142.11 129.28 144.29 131.5C145.52 132.75 146.77 134.32 148.04 136.17C149.2 137.78 150.21 139.53 151.25 141.56C154.57 148.04 152.27 155.97 149.05 162.57C148.48 163.75 148.38 163.69 148.32 165.01L148.28 165.84C147.37 166.18 146.38 166.66 145.5 167.23C144.21 168.06 143.83 168.42 143.25 169.85C142.98 170.51 142.77 171.2 142.62 171.89H149.75L152.84 169.37H154.99L153.85 167.14V166.49L154.18 166.37L154.14 165.15L153.66 164.9L153.65 163.53L154.54 161.05L156.65 154.47L158.15 147.52C158.39 146.47 158.48 145.57 158.45 144.77C158.42 143.68 158.17 142.79 157.82 141.99C157.01 140.3 156.44 138.44 156.3 136.29C156.2 134.78 156.16 135 157.16 133.95C159.18 132.65 160.87 130.98 162.39 129.12C164.54 126.47 166.41 123.31 167.57 120.1C168.17 118.45 168.69 116.73 168.87 114.81C169.39 115.13 169.74 115.68 169.72 116.68C169.17 119.71 169.41 121.88 170.57 123.06C171.08 123.79 171.65 124.39 172.29 124.87C172.96 125.38 173.71 125.76 174.51 126.02C174.97 123.69 172.9 123.23 173.22 119.75C173.59 115.73 173.62 112.75 173 110.66C172.27 107.13 169.93 105.12 166.42 104.24C160.74 95.57 150.19 95.28 137.77 99.35C128.93 102.25 119.71 96.14 110.29 95.88C95.68 95.49 96.8 104.29 89.1 98.63L83.98 95.42L85.04 91.28L87.48 88.84C86.56 88.18 85.65 87.87 84.75 87.84C81.98 87.73 81.63 89.31 79.79 90.1C79.13 90.38 78.45 90.47 77.73 90.38C78.04 89.8 78.38 89.25 78.83 88.82C80.74 86.96 85.94 83.59 90.07 80.82C93.28 78.67 97.66 75.96 100.28 73.32C101.67 71.92 103.09 69.82 103.61 67.88C104.05 66.23 104.06 64.06 104.19 62.02L105.83 61C111.15 60.83 115.83 57.42 117.22 52.42C117.9 49.97 117.66 50.5 116.27 51.79C115.27 52.72 114.25 53.55 113.19 54.21C112.21 54.85 112.24 52.63 112.4 50.87C112.51 49.61 113.1 47.97 111.5 49.82C110.19 51.33 110.31 53.59 109.77 55.28C108.93 57.88 107.74 56.63 107.33 55.08C106.98 53.74 106.85 52.06 106.21 51.21C105.61 50.43 104.82 49.76 104.72 51.15C104.59 52.97 106.3 57.69 104.79 58.95C103.62 59.92 100.79 58.72 99.66 60.03C99.27 60.48 99.31 61.18 99.91 62.18C100.51 63.89 101.63 66.1 100.96 67.87C100.42 69.3 95.66 73.02 94.34 74.02C92.17 75.67 89.85 77.19 87.45 78.64C86.99 78.91 86.65 79 86.44 78.87C86.27 78.76 86.2 78.47 86.27 77.99L86.58 75.86C86.86 73.93 86.98 73.11 86.84 71.16C85.98 69.63 86.1 68.68 86.51 67.62C86.89 66.65 88.38 66 89.67 65.63C93.41 64.57 94.23 62.01 92.02 62.72C90.23 63.3 89.83 64.42 86.75 64.16C85.86 64.09 85.12 63.71 84.52 63.15C83.54 62.44 82.29 60.9 81.87 62.36C81.77 62.7 81.77 63.06 81.84 63.43C82.51 64.01 83.75 64.64 83.83 65.57C83.38 65.66 82.91 65.64 82.43 65.56C81.49 65.4 80.5 64.98 79.52 64.56L74.65 61.89C73.29 61.14 73.51 61.58 74.22 62.88C74.98 64.27 76.27 65.05 77.5 65.99L81.47 69.03C82.21 69.67 82.81 70.36 83.13 71.16C84.23 73.9 83.86 77.74 83.2 80.47C82.71 82.49 82.17 83.05 81.41 82.68C79.61 81.8 76.37 81.24 72.66 80.2C71.09 79.76 68.73 78.29 67.52 77.47C66.18 76.57 66.91 78.51 67.81 79.12L69.9 80.53C69.48 80.68 69.09 80.65 68.77 80.73C67.84 80.98 62.19 77.13 61.77 77.08C63.89 84.38 77.05 82.12 78.62 84.66C78.86 85.05 78.84 85.42 78.43 85.81L73.6 89.02C73.07 89.21 72.49 89.42 71.87 89.33C69.27 88.95 61.94 86.84 59.05 86.58C59.46 87.17 59.96 87.73 60.64 88.2C61.29 88.65 63.29 89.24 63.08 90.09C62.82 91.15 58.91 90.77 58.08 90.65C55.96 90.35 53.97 89.68 52.02 88.9C52.41 89.74 52.99 90.51 53.99 91.12C55.5 92.04 58.39 92.61 60.15 92.7C65.58 92.97 65.25 90.15 68.67 90.71C69.58 90.86 70.52 91.2 71.19 91.75L63.96 99.1L55.96 103.57C55.49 104.69 55.75 105.66 56.59 106.51ZM159.42 135.96L165.35 129.85C166.58 135.35 168.38 138.63 170.39 141.13C171.88 147.01 170.78 154.19 169.97 161.21L170.25 162.94L170.93 164.2L170.13 164.19L171.22 166.74L169.23 166.83L168.47 169.41H161.36L161.91 167.75C162.86 165.23 163.83 164.15 165.51 162.06C165.27 161.15 165.38 160.7 165.68 159.43C166.64 155.44 166.83 149.12 165.22 145.29C163.79 141.89 161.48 138.7 159.42 135.96Z" fill="#7878AB"/>
</g>
<defs>
<filter id="filter0_dddd" x="0" y="0" width="236" height="236" filterUnits="userSpaceOnUse" color-interpolation-filters="sRGB">
<feFlood flood-opacity="0" result="BackgroundImageFix"/>
<feColorMatrix in="SourceAlpha" type="matrix" values="0 0 0 0 0 0 0 0 0 0 0 0 0 0 0 0 0 0 127 0"/>
<feOffset dx="-10" dy="-10"/>
<feGaussianBlur stdDeviation="10"/>
<feColorMatrix type="matrix" values="0 0 0 0 1 0 0 0 0 1 0 0 0 0 1 0 0 0 1 0"/>
<feBlend mode="normal" in2="BackgroundImageFix" result="effect1_dropShadow"/>
<feColorMatrix in="SourceAlpha" type="matrix" values="0 0 0 0 0 0 0 0 0 0 0 0 0 0 0 0 0 0 127 0"/>
<feOffset dx="10" dy="10"/>
<feGaussianBlur stdDeviation="10"/>
<feColorMatrix type="matrix" values="0 0 0 0 0.666667 0 0 0 0 0.666667 0 0 0 0 0.8 0 0 0 0.5 0"/>
<feBlend mode="normal" in2="effect1_dropShadow" result="effect2_dropShadow"/>
<feColorMatrix in="SourceAlpha" type="matrix" values="0 0 0 0 0 0 0 0 0 0 0 0 0 0 0 0 0 0 127 0"/>
<feOffset dx="5" dy="5"/>
<feGaussianBlur stdDeviation="5"/>
<feColorMatrix type="matrix" values="0 0 0 0 0.666667 0 0 0 0 0.666667 0 0 0 0 0.8 0 0 0 0.25 0"/>
<feBlend mode="normal" in2="effect2_dropShadow" result="effect3_dropShadow"/>
<feColorMatrix in="SourceAlpha" type="matrix" values="0 0 0 0 0 0 0 0 0 0 0 0 0 0 0 0 0 0 127 0"/>
<feOffset dx="-5" dy="-5"/>
<feGaussianBlur stdDeviation="5"/>
<feColorMatrix type="matrix" values="0 0 0 0 1 0 0 0 0 1 0 0 0 0 1 0 0 0 0.5 0"/>
<feBlend mode="normal" in2="effect3_dropShadow" result="effect4_dropShadow"/>
<feBlend mode="normal" in="SourceGraphic" in2="effect4_dropShadow" result="shape"/>
</filter>
<clipPath id="clip0">
<rect width="122.6" height="122.88" fill="white" transform="translate(52 49)"/>
</clipPath>
</defs>
</svg>
