<svg width="142" height="124" viewBox="0 0 142 124" fill="none" xmlns="http://www.w3.org/2000/svg">
<path d="M130.631 100.445C131.314 101.13 132.223 101.507 133.19 101.508H133.195C134.161 101.508 135.069 101.133 135.753 100.45L140.937 95.2774C142.351 93.8665 142.354 91.5687 140.943 90.1549L128.175 77.358C127.364 76.5445 126.047 76.5432 125.233 77.3544C124.42 78.1659 124.419 79.483 125.23 80.2962L137.618 92.7122L133.195 97.125L106.056 69.9235C104.992 68.8566 103.519 68.3211 102.019 68.4542L63.7444 71.8472L63.1928 65.6236L105.285 61.8928C106.208 61.8096 107.116 62.1405 107.772 62.7981L118.375 73.4256C119.186 74.2393 120.503 74.2401 121.317 73.4292C122.13 72.6177 122.132 71.3006 121.32 70.4874L110.717 59.8602C109.188 58.327 107.074 57.5582 104.917 57.749L94.3419 58.6865L96.9978 51.3899L99.3674 51.1799C100.512 51.0787 101.357 50.0686 101.256 48.9243C101.154 47.78 100.142 46.9388 99.0002 47.0359L77.3409 48.9556C76.1965 49.0569 75.3512 50.0669 75.4524 51.2113C75.5484 52.2929 76.4561 53.1077 77.5219 53.1077C77.5835 53.1077 77.6456 53.1049 77.708 53.0997L79.3957 52.9499L76.7398 60.2465L62.2892 61.5273C61.3254 61.613 60.4529 62.0684 59.8319 62.8103C59.211 63.5522 58.9159 64.4918 59.0016 65.455L59.6483 72.7502C59.8247 74.7396 61.5872 76.2112 63.5758 76.0387L67.1516 75.7217L58.5842 99.2553L53.0468 97.9069C52.0824 97.6717 51.0563 97.7693 50.161 98.1784L49.3936 98.527L46.4798 78.0957C46.3176 76.9583 45.2654 76.1685 44.1269 76.3302C42.9895 76.4924 42.1991 77.5458 42.3613 78.6831L45.447 100.32L41.0891 102.299L34.2435 73.9791L42.3211 28.168L56.5659 32.1301C56.7523 32.1822 56.9401 32.2066 57.1245 32.2066C58.0353 32.2066 58.8712 31.6037 59.1272 30.6835C59.4351 29.5769 58.7875 28.4301 57.6806 28.1222L43.0469 24.0516L44.9503 13.2566L59.7407 15.8645C59.8627 15.8861 59.9842 15.8964 60.1043 15.8964C61.0947 15.8964 61.9725 15.1864 62.1505 14.1774C62.3499 13.0461 61.5947 11.967 60.4632 11.7676L45.6728 9.15974L46.4576 4.70867C46.7364 3.12255 45.6728 1.60493 44.0875 1.32648L36.825 0.0476532C36.0567 -0.0915727 35.2802 0.0764972 34.6384 0.522741C33.9955 0.969817 33.5665 1.64043 33.43 2.41228L32.6454 6.86279L17.8564 4.25522C16.7263 4.05387 15.6463 4.81129 15.4466 5.94229C15.2472 7.07357 16.0024 8.15271 17.1339 8.35212L31.923 10.9597L30.2425 20.4906L15.9985 16.5282C14.8914 16.2195 13.7448 16.8679 13.4372 17.9748C13.1294 19.0814 13.777 20.2282 14.8839 20.5361L29.5162 24.6061L28.7202 29.1201L19.7973 27.5467C18.2106 27.2658 16.6938 28.3305 16.4145 29.9161L13.8386 44.5251C13.7032 45.2933 13.8749 46.0682 14.3222 46.7072C14.7699 47.3465 15.4397 47.773 16.2076 47.9081L25.1303 49.4815L24.0331 55.7039C23.8337 56.8355 24.5892 57.9143 25.7205 58.1138C26.8517 58.3145 27.9306 57.5577 28.1303 56.4267C30.0465 45.5598 31.6501 36.4641 33.5432 25.7262L38.2941 27.0478L30.0709 73.6843C30.0212 73.9666 30.0304 74.2559 30.0975 74.5341L37.2318 104.051L32.6818 106.117L24.9827 74.2706L26.4327 66.0563C26.6324 64.925 25.8772 63.8459 24.7459 63.6462C23.6146 63.4454 22.5357 64.2017 22.3358 65.333L20.8104 73.9752C20.7605 74.2576 20.7696 74.5471 20.837 74.8256L26.9585 100.147C26.2097 99.4131 25.1932 98.9868 24.1088 98.9868C24.0933 98.9868 18.0997 98.9871 18.0997 98.9871C16.3937 98.9985 14.8559 100.098 14.2732 101.721L13.5995 103.592C12.6574 102.312 11.056 101.688 9.49316 102.001L3.89694 103.122C2.77037 103.348 2.04041 104.444 2.26589 105.57C2.49165 106.696 3.58687 107.427 4.71399 107.201L10.2725 106.088L11.8805 108.365L7.93227 119.33H2.08007C0.931316 119.33 0 120.261 0 121.411C0 122.56 0.931316 123.491 2.08007 123.491H9.36835C9.37667 123.491 9.38527 123.492 9.39359 123.492C9.39831 123.492 9.40302 123.491 9.40774 123.491H137.929C139.078 123.491 140.009 122.56 140.009 121.411C140.009 120.261 139.078 119.33 137.929 119.33H133.497L128.55 104.536C128.206 103.506 127.423 102.733 126.47 102.367L128.094 97.9033L130.631 100.445ZM83.9704 52.5444L92.4227 51.7953L89.7669 59.0919L81.3146 59.841L83.9704 52.5444ZM18.151 44.0267L20.2965 31.8591L27.998 33.217L25.8525 45.3848L18.151 44.0267ZM37.3109 4.35756L42.1447 5.20872L41.5753 8.43726L36.7415 7.58499L37.3109 4.35756ZM34.269 21.6102L36.0196 11.6819L40.8534 12.5342L39.0201 22.9317L34.269 21.6102ZM18.1815 103.148H24.057L27.2958 109.351C28.1908 111.068 30.2719 111.785 32.0308 110.982L51.8844 101.964C51.9379 101.939 52.0009 101.934 52.0619 101.949L72.636 106.959C74.0091 107.289 75.4535 106.921 76.5049 105.973L82.8697 100.202C82.8944 100.179 82.9271 100.171 82.9593 100.178L99.0643 103.626C99.0881 103.631 99.1133 103.65 99.1275 103.673L101.137 106.969L95.3204 108.155C94.259 108.372 93.3701 109.051 92.882 110.018L88.1813 119.33H24.7129L16.5285 107.737L18.1815 103.148ZM14.8084 112.514L19.6206 119.33H12.3537L14.8084 112.514ZM129.111 119.33H92.8415L96.4561 112.169L124.785 106.392L129.111 119.33ZM121.909 102.733L105.47 106.085L102.681 101.509C102.074 100.511 101.072 99.8003 99.9334 99.5579L83.8293 96.11C82.4889 95.8248 81.0836 96.2031 80.0732 97.122L73.7149 102.887C73.686 102.913 73.6466 102.923 73.6145 102.915L62.6503 100.245L71.7258 75.3162L102.386 72.5985C102.654 72.5736 102.92 72.6709 103.11 72.862L124.85 94.6514L121.909 102.733Z" fill="#7878AB"/>
<path d="M99.7825 80.8786C95.8722 79.4561 91.5324 81.479 90.1088 85.3896C89.4193 87.2841 89.5089 89.3336 90.3609 91.1608C91.643 93.9112 94.3643 95.5192 97.1937 95.5192C100.278 95.5192 103.179 93.6141 104.294 90.5528C105.717 86.6415 103.693 82.3019 99.7825 80.8786ZM100.384 89.1295C99.3592 91.9473 95.4035 92.1306 94.1313 89.4024C93.7489 88.5823 93.7089 87.6624 94.0182 86.8123C94.6569 85.057 96.6044 84.149 98.3597 84.7877C100.115 85.4264 101.023 87.3745 100.384 89.1295Z" fill="#7878AB"/>
<path d="M46.6448 114.7L51.1996 111.941C51.3621 111.842 51.5471 111.799 51.7377 111.815L57.056 112.268C58.2799 112.373 59.3568 113.082 59.9367 114.164L60.6958 115.581C61.0708 116.281 61.7888 116.68 62.5313 116.68C62.8627 116.68 63.1991 116.6 63.5117 116.433C64.5243 115.89 64.9053 114.63 64.3631 113.617L63.604 112.2C62.3568 109.872 60.0413 108.348 57.4096 108.124L52.091 107.67C51.0171 107.578 49.9652 107.825 49.0441 108.383L44.489 111.142C43.5064 111.738 43.1927 113.017 43.7879 113.999C44.3834 114.982 45.6625 115.296 46.6448 114.7Z" fill="#7878AB"/>
</svg>
