<svg width="236" height="236" viewBox="0 0 236 236" fill="none" xmlns="http://www.w3.org/2000/svg">
<g filter="url(#filter0_dddd)">
<rect x="30" y="30" width="176" height="176" rx="16" fill="#F5F5FA"/>
</g>
<path d="M178.001 127.264C177.955 127.254 177.909 127.246 177.862 127.239L158.833 124.409C158.756 124.398 158.68 124.39 158.602 124.386C155.684 124.215 152.728 124.253 149.815 124.498C149.774 124.501 149.732 124.506 149.691 124.511L142.142 125.512C139.908 120.647 135.185 117.368 129.903 117.197C127.466 112.592 122.739 109.617 117.593 109.617C115.407 109.617 113.288 110.146 111.384 111.123V87.9057C113.426 89.0931 115.702 89.6905 117.979 89.6905C121.435 89.6905 124.891 88.3234 127.523 85.5894C132.102 80.8303 135.308 63.6962 135.904 60.3098C136.064 59.4035 135.785 58.4734 135.157 57.8215C134.53 57.17 133.635 56.8802 132.763 57.0457C129.504 57.665 113.015 60.9959 108.436 65.7551C106.936 67.3132 105.866 69.1499 105.221 71.1061C102.542 68.8787 99.1483 67.5421 95.4583 67.5421C87.6854 67.5421 70.0013 80.0741 68.0106 81.5029C67.281 82.0266 66.8456 82.8894 66.8456 83.8108C66.8456 84.7322 67.281 85.595 68.0106 86.1187C70.0013 87.5476 87.6854 100.08 95.4583 100.08C99.5078 100.08 103.203 98.4734 105.986 95.8421V111.454C103.826 110.089 101.319 109.336 98.6975 109.336C93.3677 109.336 88.5278 112.524 86.1716 117.346C85.4946 117.242 84.8101 117.189 84.1212 117.189C76.7853 117.189 70.7493 123.069 70.1393 130.531L65.6671 129.099C60.1046 127.32 54.1831 130.573 52.469 136.354C50.755 142.135 53.887 148.288 59.4505 150.069C59.4597 150.072 59.4692 150.075 59.4786 150.078L90.8846 159.746C96.5256 161.483 102.297 162.355 108.117 162.355C110.439 162.355 112.768 162.216 115.1 161.938L155.897 157.073C155.936 157.069 155.975 157.063 156.014 157.056C158.153 156.703 160.323 156.704 162.461 157.06L175.218 159.18C175.796 159.276 176.37 159.323 176.937 159.323C182.096 159.323 186.641 155.474 187.471 150.081C187.494 149.934 187.505 149.786 187.505 149.637V138.182C187.505 132.73 183.775 128.444 178.001 127.264ZM98.6972 86.6163H105.352C104.164 91.1365 100.18 94.4702 95.458 94.4702C91.5219 94.4702 81.5693 88.6356 74.4039 83.8111C81.5674 78.9869 91.5184 73.1526 95.458 73.1526C100.18 73.1526 104.164 76.486 105.352 81.0064H98.6972C97.2067 81.0064 95.9979 82.2622 95.9979 83.8114C95.9979 85.3605 97.2067 86.6163 98.6972 86.6163ZM112.253 69.7224C114.338 67.5561 122.757 64.998 129.797 63.3919C128.251 70.7075 125.79 79.4561 123.705 81.6227C121.217 84.2083 117.5 84.7547 114.49 83.265L117.979 79.6396C119.033 78.5442 119.033 76.7681 117.979 75.6725C116.925 74.5772 115.216 74.5772 114.161 75.6725L110.672 79.2979C109.239 76.171 109.765 72.308 112.253 69.7224ZM84.1209 122.8C85.0792 122.8 86.025 122.965 86.932 123.289C87.6306 123.539 88.3975 123.48 89.0534 123.127C89.7093 122.773 90.1968 122.156 90.4028 121.418C91.4658 117.608 94.8766 114.946 98.6972 114.946C101.646 114.946 104.362 116.489 105.964 119.073C106.453 119.863 107.291 120.346 108.195 120.359C109.101 120.377 109.95 119.915 110.461 119.14C112.076 116.69 114.742 115.227 117.593 115.227C121.175 115.227 124.426 117.568 125.683 121.054C126.116 122.256 127.285 122.998 128.507 122.857C128.837 122.819 129.161 122.8 129.47 122.8C132.19 122.8 134.695 124.142 136.299 126.287L108.632 129.955C108.112 129.989 107.599 130.062 107.098 130.172C104.926 130.649 102.96 131.823 101.448 133.572C100.137 135.089 99.2762 136.911 98.9245 138.864C98.8743 139.143 98.8344 139.425 98.8049 139.709L75.4945 132.246C75.4869 132.087 75.4831 131.93 75.4831 131.776C75.4831 126.827 79.358 122.8 84.1209 122.8ZM176.07 153.641L163.313 151.52C160.63 151.074 157.909 151.069 155.225 151.507L114.484 156.365C107.033 157.253 99.6091 156.581 92.4178 154.368L61.0277 144.704C58.3168 143.828 56.7922 140.827 57.6282 138.006C58.4658 135.182 61.3581 133.592 64.0777 134.461L100.002 145.963C101.792 149.397 105.287 151.71 109.28 151.71C109.469 151.71 109.66 151.705 109.851 151.694C109.917 151.691 109.982 151.685 110.048 151.676L126.55 149.495C128.029 149.3 129.076 147.896 128.887 146.359C128.7 144.822 127.348 143.734 125.869 143.93L109.475 146.097C106.699 146.202 104.378 144.02 104.151 141.184C104.079 139.757 104.545 138.385 105.464 137.322C106.385 136.256 107.65 135.627 109.026 135.551C109.092 135.547 109.158 135.541 109.223 135.532L150.312 130.085C152.922 129.868 155.569 129.833 158.184 129.981L177.024 132.782C180.207 133.455 182.106 135.47 182.106 138.182V149.39H182.106C181.569 152.169 178.849 154.102 176.07 153.641Z" fill="#7878AB"/>
<path d="M136.871 142.477L133.204 142.961C131.725 143.156 130.678 144.561 130.866 146.097C131.04 147.514 132.202 148.549 133.541 148.549C133.654 148.549 133.769 148.542 133.885 148.526L137.552 148.042C139.031 147.846 140.077 146.442 139.889 144.905C139.701 143.368 138.349 142.28 136.871 142.477Z" fill="#7878AB"/>
<path d="M89.7893 81.0066H87.6299C86.1393 81.0066 84.9305 82.2624 84.9305 83.8115C84.9305 85.3607 86.1393 86.6165 87.6299 86.6165H89.7893C91.2799 86.6165 92.4886 85.3607 92.4886 83.8115C92.4886 82.2624 91.2801 81.0066 89.7893 81.0066Z" fill="#7878AB"/>
<defs>
<filter id="filter0_dddd" x="0" y="0" width="236" height="236" filterUnits="userSpaceOnUse" color-interpolation-filters="sRGB">
<feFlood flood-opacity="0" result="BackgroundImageFix"/>
<feColorMatrix in="SourceAlpha" type="matrix" values="0 0 0 0 0 0 0 0 0 0 0 0 0 0 0 0 0 0 127 0"/>
<feOffset dx="-10" dy="-10"/>
<feGaussianBlur stdDeviation="10"/>
<feColorMatrix type="matrix" values="0 0 0 0 1 0 0 0 0 1 0 0 0 0 1 0 0 0 1 0"/>
<feBlend mode="normal" in2="BackgroundImageFix" result="effect1_dropShadow"/>
<feColorMatrix in="SourceAlpha" type="matrix" values="0 0 0 0 0 0 0 0 0 0 0 0 0 0 0 0 0 0 127 0"/>
<feOffset dx="10" dy="10"/>
<feGaussianBlur stdDeviation="10"/>
<feColorMatrix type="matrix" values="0 0 0 0 0.666667 0 0 0 0 0.666667 0 0 0 0 0.8 0 0 0 0.5 0"/>
<feBlend mode="normal" in2="effect1_dropShadow" result="effect2_dropShadow"/>
<feColorMatrix in="SourceAlpha" type="matrix" values="0 0 0 0 0 0 0 0 0 0 0 0 0 0 0 0 0 0 127 0"/>
<feOffset dx="5" dy="5"/>
<feGaussianBlur stdDeviation="5"/>
<feColorMatrix type="matrix" values="0 0 0 0 0.666667 0 0 0 0 0.666667 0 0 0 0 0.8 0 0 0 0.25 0"/>
<feBlend mode="normal" in2="effect2_dropShadow" result="effect3_dropShadow"/>
<feColorMatrix in="SourceAlpha" type="matrix" values="0 0 0 0 0 0 0 0 0 0 0 0 0 0 0 0 0 0 127 0"/>
<feOffset dx="-5" dy="-5"/>
<feGaussianBlur stdDeviation="5"/>
<feColorMatrix type="matrix" values="0 0 0 0 1 0 0 0 0 1 0 0 0 0 1 0 0 0 0.5 0"/>
<feBlend mode="normal" in2="effect3_dropShadow" result="effect4_dropShadow"/>
<feBlend mode="normal" in="SourceGraphic" in2="effect4_dropShadow" result="shape"/>
</filter>
</defs>
</svg>
