<svg width="236" height="236" viewBox="0 0 236 236" fill="none" xmlns="http://www.w3.org/2000/svg">
<g filter="url(#filter0_dddd)">
<rect x="30" y="30" width="176" height="176" rx="16" fill="#F5F5FA"/>
</g>
<path d="M171.378 88.4326C166.463 83.5177 159.928 80.8108 152.978 80.8108C146.027 80.8108 139.492 83.5177 134.577 88.4326L120 103.01L105.423 88.4324C100.508 83.5175 93.973 80.8105 87.0223 80.8105C80.0716 80.8105 73.5367 83.5175 68.6218 88.4324C63.7069 93.3472 61 99.8821 61 106.833C61 113.784 63.7069 120.319 68.6218 125.234L100.734 157.346C101.011 157.65 101.295 157.949 101.579 158.232C106.494 163.148 113.028 165.854 119.979 165.854C119.985 165.854 119.992 165.854 119.998 165.854C120 165.854 120.001 165.854 120.002 165.854C120.009 165.854 120.015 165.854 120.022 165.854C126.972 165.854 133.506 163.147 138.422 158.232C138.707 157.946 138.991 157.648 139.266 157.346L171.378 125.234C176.293 120.319 179 113.784 179 106.833C179 99.8824 176.293 93.3475 171.378 88.4326ZM94.3272 144.29L90.0992 140.062L91.4055 138.731C92.3144 137.804 92.3003 136.316 91.3735 135.406C90.4462 134.497 88.9582 134.512 88.0493 135.438L86.7745 136.738L71.9458 121.909C67.919 117.882 65.7012 112.528 65.7012 106.833C65.7012 101.138 67.919 95.7839 71.946 91.7568C75.9731 87.7295 81.327 85.512 87.0223 85.512C92.7176 85.512 98.0715 87.7298 102.099 91.7568L116.676 106.334L101.579 121.431C95.3681 127.642 92.9289 136.222 94.3294 144.293L94.3272 144.29ZM168.054 121.909L153.217 136.746L136.337 119.866C135.419 118.949 133.931 118.949 133.012 119.866C132.094 120.784 132.094 122.273 133.012 123.191L149.892 140.071L135.915 154.048L135.055 154.908C134.553 155.411 134.029 155.885 133.487 156.331C129.692 159.449 124.976 161.147 120 161.152C114.313 161.147 108.966 158.929 104.945 154.908L104.126 154.089C96.5328 145.662 96.8694 132.789 104.903 124.755L137.902 91.7568C141.929 87.7295 147.283 85.512 152.978 85.512C158.673 85.512 164.027 87.7298 168.054 91.7568C172.081 95.7839 174.299 101.138 174.299 106.833C174.299 112.528 172.081 117.882 168.054 121.909Z" fill="#7878AB"/>
<path d="M127.948 111.478C127.03 110.56 125.542 110.56 124.624 111.478C123.706 112.395 123.706 113.884 124.624 114.802L127.376 117.555C127.835 118.014 128.437 118.243 129.038 118.243C129.64 118.243 130.242 118.014 130.701 117.555C131.619 116.637 131.619 115.148 130.701 114.23L127.948 111.478Z" fill="#7878AB"/>
<defs>
<filter id="filter0_dddd" x="0" y="0" width="236" height="236" filterUnits="userSpaceOnUse" color-interpolation-filters="sRGB">
<feFlood flood-opacity="0" result="BackgroundImageFix"/>
<feColorMatrix in="SourceAlpha" type="matrix" values="0 0 0 0 0 0 0 0 0 0 0 0 0 0 0 0 0 0 127 0"/>
<feOffset dx="-10" dy="-10"/>
<feGaussianBlur stdDeviation="10"/>
<feColorMatrix type="matrix" values="0 0 0 0 1 0 0 0 0 1 0 0 0 0 1 0 0 0 1 0"/>
<feBlend mode="normal" in2="BackgroundImageFix" result="effect1_dropShadow"/>
<feColorMatrix in="SourceAlpha" type="matrix" values="0 0 0 0 0 0 0 0 0 0 0 0 0 0 0 0 0 0 127 0"/>
<feOffset dx="10" dy="10"/>
<feGaussianBlur stdDeviation="10"/>
<feColorMatrix type="matrix" values="0 0 0 0 0.666667 0 0 0 0 0.666667 0 0 0 0 0.8 0 0 0 0.5 0"/>
<feBlend mode="normal" in2="effect1_dropShadow" result="effect2_dropShadow"/>
<feColorMatrix in="SourceAlpha" type="matrix" values="0 0 0 0 0 0 0 0 0 0 0 0 0 0 0 0 0 0 127 0"/>
<feOffset dx="5" dy="5"/>
<feGaussianBlur stdDeviation="5"/>
<feColorMatrix type="matrix" values="0 0 0 0 0.666667 0 0 0 0 0.666667 0 0 0 0 0.8 0 0 0 0.25 0"/>
<feBlend mode="normal" in2="effect2_dropShadow" result="effect3_dropShadow"/>
<feColorMatrix in="SourceAlpha" type="matrix" values="0 0 0 0 0 0 0 0 0 0 0 0 0 0 0 0 0 0 127 0"/>
<feOffset dx="-5" dy="-5"/>
<feGaussianBlur stdDeviation="5"/>
<feColorMatrix type="matrix" values="0 0 0 0 1 0 0 0 0 1 0 0 0 0 1 0 0 0 0.5 0"/>
<feBlend mode="normal" in2="effect3_dropShadow" result="effect4_dropShadow"/>
<feBlend mode="normal" in="SourceGraphic" in2="effect4_dropShadow" result="shape"/>
</filter>
</defs>
</svg>
