<svg width="68" height="87" viewBox="0 0 68 87" fill="none" xmlns="http://www.w3.org/2000/svg">
<path d="M67.3925 63.757V32.2117C67.3925 28.092 64.0343 24.7404 59.9064 24.7404C58.431 24.7404 57.0538 25.1686 55.8933 25.9069V13.2096C55.8933 9.08994 52.535 5.73836 48.4072 5.73836C46.9231 5.73836 45.5384 6.17163 44.3736 6.91789C44.089 3.0554 40.8491 0 36.9076 0C32.7797 0 29.4214 3.35158 29.4214 7.47126V10.4793C28.2609 9.74105 26.8837 9.31281 25.4083 9.31281C21.2805 9.31281 17.9222 12.6644 17.9222 16.7841V45.9393L15.0373 41.9253C15.0333 41.9198 15.0294 41.9144 15.0254 41.9089C12.7547 38.827 10.325 38.0322 8.68672 37.9083C6.67513 37.7564 4.73318 38.505 3.21825 40.0169C0.176733 43.0523 -0.046756 46.7876 2.55299 51.1196L15.5211 76.0305C15.5781 76.1399 15.6451 76.2406 15.7207 76.3321L17.3011 78.6224C20.9207 83.8682 26.892 87 33.2743 87H46.9931C53.3022 87 58.2959 85.0617 61.8358 81.2389C67.9496 74.6366 67.4623 64.7899 67.3925 63.757ZM59.2852 78.8865C56.4295 81.9703 52.2938 83.5339 46.9931 83.5339H33.2743C28.035 83.5339 23.133 80.9629 20.1613 76.6564L18.5302 74.2926L5.60995 49.4741C5.59294 49.4415 5.57488 49.4094 5.55595 49.3779C3.29952 45.6445 4.34924 43.7898 5.67386 42.4678C6.46154 41.6817 7.43868 41.2895 8.42381 41.3643C9.73089 41.4633 11.044 42.3591 12.2219 43.9551L18.2063 52.2818C18.5578 52.7709 19.1383 53.0433 19.7398 53.0003C20.3414 52.9579 20.8778 52.6071 21.1568 52.0737L21.1978 51.9952C21.3274 51.7475 21.3951 51.4723 21.3951 51.1931V16.7842C21.3951 14.5758 23.1953 12.7791 25.4082 12.7791C27.621 12.7791 29.4213 14.5758 29.4213 16.7842V29.1218C29.4213 30.079 30.1987 30.8548 31.1578 30.8548C32.1169 30.8548 32.8943 30.079 32.8943 29.1218V16.7842V7.47126C32.8943 5.26281 34.6946 3.46614 36.9074 3.46614C39.1203 3.46614 40.9205 5.26281 40.9205 7.47126V13.2094V37.9542C40.9205 38.9114 41.6979 39.6873 42.657 39.6873C43.6161 39.6873 44.3935 38.9114 44.3935 37.9542V13.2096C44.3935 11.0012 46.1938 9.2045 48.4066 9.2045C50.6195 9.2045 52.4197 11.0012 52.4197 13.2096V30.3053V32.2117V43.6733C52.4197 44.6305 53.1972 45.4064 54.1563 45.4064C55.1153 45.4064 55.8928 44.6305 55.8928 43.6733V32.2117C55.8928 30.0032 57.693 28.2065 59.9059 28.2065C62.1187 28.2065 63.919 30.0032 63.919 32.2117V63.819C63.919 63.8646 63.9207 63.91 63.9243 63.9554C63.9322 64.0469 64.5865 73.1615 59.2852 78.8865Z" fill="#7878AB"/>
<path d="M31.1579 41.7669C32.117 41.7669 32.8944 40.991 32.8944 40.0339V36.083C32.8944 35.1258 32.117 34.3499 31.1579 34.3499C30.1988 34.3499 29.4214 35.1258 29.4214 36.083V40.0339C29.4214 40.991 30.1988 41.7669 31.1579 41.7669Z" fill="#7878AB"/>
<path d="M48.7425 64.1989C47.6999 60.8816 44.626 58.5777 41.0433 58.5777C37.4605 58.5777 34.3867 60.8816 33.344 64.1989C30.0049 65.324 27.7063 68.5642 27.8525 72.1686C28.0239 76.3954 31.479 79.7878 35.7184 79.8918C35.7872 79.8936 35.8559 79.8944 35.9245 79.8944C37.1184 79.8944 38.2685 79.639 39.3458 79.1345C40.4247 78.6291 41.662 78.6293 42.7405 79.1345C43.8799 79.6683 45.1005 79.9227 46.3681 79.892C50.6075 79.788 54.0626 76.3955 54.234 72.1688C54.3804 68.5642 52.0816 65.324 48.7425 64.1989ZM50.7639 72.0284C50.6662 74.4356 48.698 76.3676 46.283 76.4269C45.5572 76.4446 44.8634 76.2999 44.2164 75.9968C43.2082 75.5245 42.1258 75.2885 41.0434 75.2885C39.9611 75.2885 38.8787 75.5245 37.8705 75.9968C37.2233 76.2999 36.5278 76.4444 35.804 76.4267C33.389 76.3675 31.4207 74.4354 31.3229 72.0282C31.2304 69.7468 32.853 67.7219 35.0972 67.3179C35.8214 67.1876 36.3847 66.6158 36.503 65.8909C36.8666 63.6618 38.7761 62.0438 41.0433 62.0438C43.3105 62.0438 45.2201 63.6618 45.5837 65.8911C45.702 66.616 46.2653 67.1878 46.9894 67.3181C49.2339 67.7221 50.8565 69.747 50.7639 72.0284Z" fill="#7878AB"/>
<path d="M32.0134 59.2709C32.0134 55.8696 29.9921 53.2052 27.4116 53.2052C24.8311 53.2052 22.8098 55.8696 22.8098 59.2709C22.8098 62.6723 24.8311 65.3367 27.4116 65.3367C29.9921 65.3367 32.0134 62.6723 32.0134 59.2709ZM27.4116 61.8705C27.0669 61.8705 26.2829 60.8884 26.2829 59.2709C26.2829 57.6535 27.0669 56.6713 27.4116 56.6713C27.7563 56.6713 28.5403 57.6535 28.5403 59.2709C28.5403 60.8884 27.7565 61.8705 27.4116 61.8705Z" fill="#7878AB"/>
<path d="M54.675 53.2052C52.0945 53.2052 50.0732 55.8696 50.0732 59.2709C50.0732 62.6723 52.0945 65.3367 54.675 65.3367C57.2554 65.3367 59.2767 62.6723 59.2767 59.2709C59.2767 55.8696 57.2554 53.2052 54.675 53.2052ZM54.675 61.8705C54.3303 61.8705 53.5462 60.8884 53.5462 59.2709C53.5462 57.6535 54.3303 56.6713 54.675 56.6713C55.0197 56.6713 55.8037 57.6535 55.8037 59.2709C55.8037 60.8884 55.0198 61.8705 54.675 61.8705Z" fill="#7878AB"/>
<path d="M46.3396 56.8445C48.9201 56.8445 50.9414 54.1801 50.9414 50.7788C50.9414 47.3775 48.9201 44.7131 46.3396 44.7131C43.7592 44.7131 41.7379 47.3775 41.7379 50.7788C41.7379 54.1801 43.759 56.8445 46.3396 56.8445ZM46.3396 48.1792C46.6843 48.1792 47.4684 49.1613 47.4684 50.7788C47.4684 52.3963 46.6843 53.3784 46.3396 53.3784C45.9949 53.3784 45.2109 52.3963 45.2109 50.7788C45.2109 49.1613 45.9948 48.1792 46.3396 48.1792Z" fill="#7878AB"/>
<path d="M35.7468 56.8445C38.3273 56.8445 40.3486 54.1801 40.3486 50.7788C40.3486 47.3775 38.3273 44.7131 35.7468 44.7131C33.1663 44.7131 31.145 47.3775 31.145 50.7788C31.145 54.1801 33.1663 56.8445 35.7468 56.8445ZM35.7468 48.1792C36.0915 48.1792 36.8755 49.1613 36.8755 50.7788C36.8755 52.3963 36.0915 53.3784 35.7468 53.3784C35.4021 53.3784 34.6181 52.3963 34.6181 50.7788C34.6181 49.1613 35.4019 48.1792 35.7468 48.1792Z" fill="#7878AB"/>
</svg>
