<svg width="236" height="236" viewBox="0 0 236 236" fill="none" xmlns="http://www.w3.org/2000/svg">
<g filter="url(#filter0_dddd)">
<rect x="30" y="30" width="176" height="176" rx="16" fill="#F5F5FA"/>
</g>
<path d="M177.577 77.1211C177.569 77.1211 177.561 77.1211 177.553 77.1211H169.339V74.3105C169.383 73.198 168.664 72.1983 167.595 71.8875C161.892 70.3932 156.02 69.6439 150.125 69.6584C140.433 69.6584 127.228 71.8391 117.464 81.7732C107.772 71.7421 94.4699 69.6584 84.8023 69.6584C78.9073 69.6439 73.0352 70.3932 67.3328 71.8875C66.2637 72.1983 65.5441 73.198 65.5883 74.3105V77.0969H57.423C56.0849 77.0969 55 78.1817 55 79.5198V156.909C55 158.247 56.0849 159.332 57.423 159.332C57.8391 159.331 58.248 159.222 58.6102 159.017C58.8525 158.896 83.082 145.642 116.906 154.171H117.27H117.488C117.681 154.194 117.876 154.194 118.069 154.171C151.991 145.569 176.22 158.799 176.366 159.017C177.115 159.45 178.039 159.45 178.789 159.017C179.534 158.587 179.995 157.794 180 156.933V79.544C180 78.206 178.915 77.1211 177.577 77.1211ZM59.8459 153.056V81.967H65.6368V142.735C65.6216 144.073 66.6941 145.17 68.0321 145.185C68.163 145.186 68.2938 145.177 68.4231 145.158C73.4356 144.392 78.4963 143.987 83.5666 143.946C90.5901 143.824 97.5843 144.881 104.259 147.072C89.1863 145.249 73.8981 147.309 59.8459 153.056ZM83.5666 139.124C79.1595 139.134 74.7576 139.418 70.3857 139.972V76.2246C75.1032 75.1737 79.9206 74.6373 84.7538 74.6255C93.8157 74.6255 106.318 76.7092 114.992 86.4979L115.065 146.854C110.025 143.558 100.188 139.124 83.5666 139.124ZM119.911 86.4979C128.585 76.8061 141.087 74.6255 150.149 74.6255C154.982 74.6397 159.8 75.1758 164.517 76.2246V139.972C160.17 139.412 155.792 139.121 151.409 139.1C134.885 139.1 125.023 143.534 119.911 146.829V86.4979ZM175.13 153.056C161.048 147.293 145.724 145.233 130.62 147.072C137.326 144.873 144.354 143.816 151.409 143.946C156.511 143.975 161.605 144.371 166.65 145.133C167.972 145.334 169.208 144.424 169.409 143.101C169.428 142.972 169.437 142.841 169.436 142.71V81.967H175.227L175.13 153.056Z" fill="#7878AB"/>
<defs>
<filter id="filter0_dddd" x="0" y="0" width="236" height="236" filterUnits="userSpaceOnUse" color-interpolation-filters="sRGB">
<feFlood flood-opacity="0" result="BackgroundImageFix"/>
<feColorMatrix in="SourceAlpha" type="matrix" values="0 0 0 0 0 0 0 0 0 0 0 0 0 0 0 0 0 0 127 0"/>
<feOffset dx="-10" dy="-10"/>
<feGaussianBlur stdDeviation="10"/>
<feColorMatrix type="matrix" values="0 0 0 0 1 0 0 0 0 1 0 0 0 0 1 0 0 0 1 0"/>
<feBlend mode="normal" in2="BackgroundImageFix" result="effect1_dropShadow"/>
<feColorMatrix in="SourceAlpha" type="matrix" values="0 0 0 0 0 0 0 0 0 0 0 0 0 0 0 0 0 0 127 0"/>
<feOffset dx="10" dy="10"/>
<feGaussianBlur stdDeviation="10"/>
<feColorMatrix type="matrix" values="0 0 0 0 0.666667 0 0 0 0 0.666667 0 0 0 0 0.8 0 0 0 0.5 0"/>
<feBlend mode="normal" in2="effect1_dropShadow" result="effect2_dropShadow"/>
<feColorMatrix in="SourceAlpha" type="matrix" values="0 0 0 0 0 0 0 0 0 0 0 0 0 0 0 0 0 0 127 0"/>
<feOffset dx="5" dy="5"/>
<feGaussianBlur stdDeviation="5"/>
<feColorMatrix type="matrix" values="0 0 0 0 0.666667 0 0 0 0 0.666667 0 0 0 0 0.8 0 0 0 0.25 0"/>
<feBlend mode="normal" in2="effect2_dropShadow" result="effect3_dropShadow"/>
<feColorMatrix in="SourceAlpha" type="matrix" values="0 0 0 0 0 0 0 0 0 0 0 0 0 0 0 0 0 0 127 0"/>
<feOffset dx="-5" dy="-5"/>
<feGaussianBlur stdDeviation="5"/>
<feColorMatrix type="matrix" values="0 0 0 0 1 0 0 0 0 1 0 0 0 0 1 0 0 0 0.5 0"/>
<feBlend mode="normal" in2="effect3_dropShadow" result="effect4_dropShadow"/>
<feBlend mode="normal" in="SourceGraphic" in2="effect4_dropShadow" result="shape"/>
</filter>
</defs>
</svg>
