<svg width="128" height="123" viewBox="0 0 128 123" fill="none" xmlns="http://www.w3.org/2000/svg">
<path d="M58.1852 111.617L53.7929 92.3803C53.7672 92.2681 53.7342 92.1576 53.6932 92.0498C52.8202 89.7416 51.7778 87.472 50.5949 85.3037C50.5763 85.2696 50.557 85.236 50.5369 85.2029L32.4798 55.4487C30.4455 51.567 25.9669 49.7366 21.871 50.8767L18.4813 22.2644C17.8887 17.2655 13.3179 13.6768 8.29246 14.2675C3.2668 14.8561 -0.340494 19.4021 0.251613 24.4008C0.25263 24.4099 0.253647 24.419 0.254918 24.4281L3.78925 51.7108C4.68186 58.6013 6.92622 65.1337 10.46 71.1266L28.0015 100.875C28.0201 100.907 28.0394 100.938 28.0595 100.969C29.0375 102.473 29.7659 104.114 30.2246 105.847L33.0025 116.339C34.1074 120.51 38.0775 123 43.6226 123H49.4603C51.9622 123 54.3784 121.959 56.0891 120.143C57.7848 118.344 58.6314 116.01 58.4725 113.573C58.4311 112.932 58.3345 112.275 58.1852 111.617ZM52.3796 116.685C51.6263 117.484 50.5626 117.943 49.4608 117.943H43.6231C41.7794 117.943 38.5865 117.567 37.9199 115.051L35.1419 104.559C34.5511 102.328 33.6155 100.212 32.3609 98.2713L14.8463 68.5685C11.6605 63.1658 9.6371 57.2766 8.83245 51.0648L5.2999 23.7972C5.04287 21.5724 6.64987 19.5518 8.88762 19.2896C11.1284 19.0264 13.1674 20.627 13.4318 22.8564L17.1336 54.1041C15.1895 56.6677 14.6739 60.1652 16.0613 63.2874C16.1276 63.4371 16.1988 63.586 16.2741 63.7337C16.3023 63.7888 16.3323 63.8432 16.3646 63.8963L23.6183 75.86C24.0958 76.6474 24.9363 77.083 25.7979 77.083C26.2448 77.083 26.6978 76.9657 27.1084 76.7194C28.3107 75.9983 28.6976 74.4443 27.9726 73.2483L20.7725 61.3731C20.7516 61.3303 20.7318 61.2873 20.7125 61.2439C19.8521 59.3078 20.6359 57.0498 22.4921 56.0379C24.5046 55.0242 26.9711 55.8263 27.9921 57.8268C28.0201 57.8819 28.0504 57.9361 28.0824 57.9892L46.1532 87.766C47.1867 89.666 48.1014 91.6516 48.8735 93.6711L53.2262 112.734C53.3162 113.131 53.3744 113.523 53.3991 113.901C53.4659 114.928 53.1039 115.917 52.3796 116.685Z" fill="#7878AB"/>
<path d="M31.1966 78.5661C30.4716 77.3703 28.9093 76.9855 27.7065 77.7066C26.5043 78.4278 26.1173 79.9818 26.8424 81.1778L28.4542 83.8365C28.9317 84.6239 29.7722 85.0596 30.6338 85.0596C31.0807 85.0596 31.5335 84.9422 31.9443 84.696C33.1466 83.9748 33.5335 82.4208 32.8085 81.2248L31.1966 78.5661Z" fill="#7878AB"/>
<path d="M119.708 14.2672C114.684 13.6778 110.112 17.2653 109.519 22.2645L106.129 50.8769C102.034 49.7378 97.5547 51.5677 95.5206 55.449L77.4635 85.2031C77.4434 85.2363 77.4241 85.2699 77.4055 85.304C76.2228 87.472 75.1805 89.7418 74.3072 92.0501C74.2663 92.1578 74.233 92.2681 74.2073 92.3806L69.8142 111.621C69.6916 112.162 69.6039 112.706 69.5541 113.239C69.3212 115.723 70.1604 118.21 71.8564 120.061C73.5671 121.929 76.0052 123 78.545 123H84.3773C89.9224 123 93.8925 120.51 94.9974 116.338L97.7754 105.847C98.234 104.114 98.9624 102.473 99.9404 100.969C99.9605 100.938 99.9798 100.907 99.9984 100.875L117.54 71.1266C121.074 65.1338 123.318 58.6013 124.211 51.7106L127.745 24.4279C127.746 24.4187 127.747 24.4096 127.748 24.4005C128.341 19.4022 124.734 14.8561 119.708 14.2672ZM122.701 23.7972L119.168 51.0648C118.363 57.2766 116.34 63.1658 113.154 68.5687L95.6396 98.2713C94.3847 100.212 93.4494 102.328 92.8585 104.559L90.0808 115.05C89.4139 117.567 86.2213 117.943 84.3776 117.943H78.5453C77.4165 117.943 76.3759 117.486 75.6152 116.655C74.8696 115.841 74.5152 114.795 74.6171 113.708C74.6469 113.391 74.6997 113.063 74.7737 112.737L79.1272 93.6709C79.8996 91.6514 80.814 89.6657 81.8477 87.7658L99.9185 57.9892C99.9506 57.9363 99.9808 57.8822 100.009 57.8268C101.03 55.826 103.496 55.024 105.508 56.0377C107.365 57.0496 108.149 59.3078 107.288 61.2449C107.269 61.2879 107.249 61.3306 107.228 61.3733L100.028 73.2485C99.3031 74.4443 99.69 75.9983 100.892 76.7197C101.303 76.966 101.756 77.0833 102.203 77.0833C103.064 77.0833 103.905 76.6474 104.382 75.8602L111.636 63.8965C111.668 63.8434 111.698 63.7893 111.727 63.734C111.802 63.5863 111.873 63.4374 111.939 63.2884C113.326 60.1657 112.811 56.668 110.867 54.1043L114.569 22.8566C114.833 20.627 116.871 19.0282 119.113 19.2896C121.351 19.5519 122.958 21.5724 122.701 23.7972Z" fill="#7878AB"/>
<path d="M100.294 77.7067C99.0917 76.9856 97.5289 77.3701 96.8038 78.5661L95.192 81.2249C94.4669 82.4209 94.8539 83.9749 96.0561 84.696C96.467 84.9423 96.9195 85.0596 97.3667 85.0596C98.2283 85.0596 99.0688 84.6237 99.5462 83.8366L101.158 81.1778C101.883 79.9816 101.496 78.4276 100.294 77.7067Z" fill="#7878AB"/>
<path d="M96.8996 32.7206C96.8996 14.6783 82.1412 0 64.0005 0C45.8597 0 31.1013 14.6783 31.1013 32.7206C31.1013 50.1704 44.9066 64.4725 62.2249 65.3931C62.7845 65.473 63.3512 65.5163 63.925 65.5163C64.4739 65.5163 65.0166 65.4771 65.5526 65.4037C82.9753 64.5949 96.8996 50.2453 96.8996 32.7206ZM82.177 43.2509C82.6718 40.671 82.9863 37.94 83.0974 35.0989H91.382C90.2448 38.2414 86.9167 41.1322 82.177 43.2509ZM91.2824 30.0419H83.078C82.9497 27.2984 82.6314 24.6602 82.1437 22.1653C86.7357 24.1936 90.0478 26.9538 91.2824 30.0419ZM88.6658 19.9457C86.3439 18.4281 83.6048 17.1333 80.5403 16.1176C79.5046 13.0848 78.1907 10.3771 76.6526 8.08823C81.7843 10.706 85.9946 14.8652 88.6658 19.9457ZM61.5337 5.54859V9.27891C61.5337 10.552 62.6719 11.5839 64.076 11.5839C65.4801 11.5839 66.6183 10.552 66.6183 9.27891V5.66161C69.6787 6.87201 72.4186 10.0903 74.4494 14.5559C71.179 13.9397 67.6693 13.6065 64.0005 13.6065C60.2704 13.6065 56.7038 13.9501 53.3868 14.5863C55.4855 9.95833 58.3446 6.66417 61.5337 5.54859ZM51.1165 8.20986C49.6036 10.4875 48.3103 13.1728 47.2898 16.1755C44.2947 17.1823 41.6136 18.4564 39.3354 19.9457C41.9657 14.942 46.0901 10.834 51.1165 8.20986ZM45.6919 22.2396C45.2122 24.7128 44.899 27.3257 44.7719 30.0419H36.7186C37.9384 26.9912 41.1862 24.2607 45.6919 22.2396ZM36.5854 35.0989H44.7526C44.8639 37.9501 45.1802 40.6907 45.6782 43.2789C44.1203 42.5886 42.7045 41.8081 41.4727 40.9456C39.6036 39.6368 37.4571 37.6616 36.5854 35.0989ZM39.4358 45.6851C41.6682 47.1167 44.2952 48.3398 47.2517 49.3054C48.2437 52.2514 49.4975 54.8952 50.9635 57.1506C46.07 54.5574 42.0435 50.5522 39.4358 45.6851ZM61.5334 60.0425C58.3041 58.9128 55.4128 55.5501 53.307 50.8301C54.1983 50.9942 55.1097 51.1376 56.0405 51.26C57.4334 51.4435 58.7099 50.4685 58.8937 49.0842C59.0775 47.6998 58.0982 46.429 56.706 46.2461C54.8491 46.0024 53.056 45.6565 51.3527 45.2203C50.5313 42.1173 50.003 38.6932 49.8431 35.0989H61.5334V60.0425ZM64.076 20.6863C62.6719 20.6863 61.5337 21.8184 61.5337 23.2149V30.0419H49.8647C50.0497 26.5649 50.5803 23.2551 51.3857 20.2492C55.1964 19.2393 59.4937 18.6635 64.0005 18.6635C68.4432 18.6635 72.6822 19.2228 76.4528 20.2064C77.2645 23.2237 77.7994 26.5485 77.9855 30.0419H66.6183V23.2149C66.6183 21.8184 65.4801 20.6863 64.076 20.6863ZM69.2875 49.1178C69.4718 50.376 70.5584 51.2822 71.8001 51.2822C71.9221 51.2822 72.0456 51.2733 72.1697 51.2554C72.969 51.1396 73.7554 51.0061 74.53 50.8584C72.4913 55.4163 69.7192 58.7034 66.6183 59.9297V35.0992H78.0066C77.8467 38.696 77.3179 42.1224 76.4955 45.2271C74.8928 45.6489 73.2019 45.9953 71.4368 46.2512C70.0471 46.4525 69.0849 47.7357 69.2875 49.1178ZM76.8056 57.2728C78.3084 54.987 79.592 52.2969 80.6028 49.2917C83.6193 48.2877 86.337 47.0052 88.6752 45.4775C86.0315 50.5156 81.8738 54.6474 76.8056 57.2728Z" fill="#7878AB"/>
</svg>
