<svg width="236" height="236" viewBox="0 0 236 236" fill="none" xmlns="http://www.w3.org/2000/svg">
<g filter="url(#filter0_dddd)">
<rect x="30" y="30" width="176" height="176" rx="16" fill="#F5F5FA"/>
</g>
<path d="M119 89.3574C116.415 89.3574 114.312 91.4606 114.312 94.0454C114.312 96.6303 116.415 98.7335 119 98.7335C121.585 98.7335 123.688 96.6303 123.688 94.0454C123.688 91.4606 121.585 89.3574 119 89.3574ZM119 95.7452C118.063 95.7452 117.3 94.9828 117.3 94.0454C117.3 93.1083 118.063 92.3457 119 92.3457C119.937 92.3457 120.7 93.1083 120.7 94.0454C120.7 94.9828 119.937 95.7452 119 95.7452Z" fill="#7878AB"/>
<path d="M119 137.266C116.415 137.266 114.312 139.37 114.312 141.954C114.312 144.539 116.415 146.642 119 146.642C121.585 146.642 123.688 144.539 123.688 141.954C123.688 139.37 121.585 137.266 119 137.266ZM119 143.654C118.063 143.654 117.3 142.891 117.3 141.954C117.3 141.017 118.063 140.255 119 140.255C119.937 140.255 120.7 141.017 120.7 141.954C120.7 142.891 119.937 143.654 119 143.654Z" fill="#7878AB"/>
<path d="M160.869 119.494C161.495 121.348 163.249 122.688 165.312 122.688C167.897 122.688 170 120.585 170 118C170 115.415 167.897 113.312 165.312 113.312C163.249 113.312 161.495 114.652 160.869 116.506H153.995C153.94 115.203 153.815 113.911 153.619 112.637L156.882 111.988C157.691 111.827 158.217 111.04 158.056 110.231C157.895 109.422 157.108 108.896 156.299 109.057L153.036 109.706C152.729 108.443 152.352 107.201 151.908 105.986L158.255 103.357C158.725 103.896 159.313 104.327 159.993 104.608C160.571 104.848 161.179 104.968 161.787 104.968C162.394 104.968 163.002 104.848 163.581 104.608C164.737 104.129 165.639 103.228 166.118 102.071C166.597 100.914 166.597 99.6398 166.118 98.4829C165.639 97.3259 164.738 96.425 163.581 95.9457C162.424 95.4666 161.15 95.4666 159.993 95.9457C158.836 96.425 157.935 97.3259 157.456 98.4829C157.174 99.1627 157.063 99.8829 157.112 100.596L150.767 103.224C150.22 102.048 149.608 100.904 148.934 99.7958L151.698 97.9486C152.384 97.49 152.569 96.5623 152.11 95.8762C151.652 95.1901 150.724 95.0056 150.038 95.464L147.272 97.3125C146.508 96.2692 145.685 95.266 144.805 94.3081L149.661 89.4516C150.301 89.7705 151.011 89.9402 151.748 89.9402C153 89.9402 154.177 89.4526 155.063 88.5672C155.948 87.6817 156.436 86.5045 156.436 85.2522C156.436 83.9999 155.948 82.8227 155.063 81.9372C154.177 81.0519 153 80.564 151.748 80.564C150.495 80.564 149.318 81.0517 148.433 81.9372C146.974 83.3955 146.683 85.5817 147.552 87.3351L142.692 92.1942C141.743 91.3228 140.738 90.5016 139.686 89.7307L141.536 86.9619C141.994 86.2758 141.81 85.3478 141.124 84.8894C140.438 84.431 139.51 84.6155 139.051 85.3016C139.051 85.3016 136.415 89.2274 136.383 89.2754C135.924 89.9614 136.108 90.8893 136.794 91.3481C145.716 97.3171 151.042 107.28 151.042 117.999C151.042 135.668 136.668 150.042 119 150.042C101.332 150.042 86.9579 135.668 86.9579 118C86.9579 100.332 101.332 85.9579 119 85.9579C123.249 85.9579 127.376 86.7756 131.265 88.3887C132.025 88.7037 132.895 88.3453 133.214 87.5883H133.214L136.403 79.8895C136.508 79.8966 136.612 79.9014 136.717 79.9014C138.557 79.9014 140.307 78.8107 141.054 77.0074C142.043 74.6191 140.905 71.8713 138.517 70.8822C137.36 70.4031 136.086 70.4029 134.929 70.8822C133.772 71.3615 132.871 72.2624 132.391 73.4192C131.912 74.5761 131.912 75.8505 132.391 77.0074C132.673 77.6871 133.103 78.2752 133.643 78.7445L131.016 85.0871C129.794 84.6404 128.553 84.2639 127.295 83.9581L127.943 80.7007C128.104 79.8914 127.578 79.1047 126.769 78.9438C125.959 78.783 125.173 79.3085 125.012 80.1178L124.363 83.3778C123.087 83.1819 121.796 83.0568 120.494 83.0026V76.1306C122.348 75.505 123.688 73.7507 123.688 71.688C123.688 69.1032 121.585 67 119 67C116.415 67 114.312 69.1032 114.312 71.688C114.312 73.7507 115.652 75.505 117.506 76.1306V83.0036C116.197 83.0588 114.906 83.1841 113.637 83.38L112.988 80.118C112.827 79.3087 112.041 78.7832 111.231 78.944C110.422 79.1049 109.896 79.8914 110.057 80.7009L110.706 83.9643C109.438 84.2733 108.196 84.6492 106.986 85.0923L104.357 78.7447C104.896 78.2754 105.327 77.6873 105.608 77.0076C106.088 75.8505 106.087 74.5763 105.608 73.4194C105.129 72.2624 104.228 71.3615 103.071 70.8822C101.914 70.4031 100.64 70.4031 99.4831 70.8822C97.0949 71.8713 95.9568 74.6191 96.9459 77.0076C97.693 78.8111 99.4427 79.9016 101.283 79.9016C101.387 79.9016 101.492 79.8968 101.597 79.8897L104.228 86.2415C103.05 86.7918 101.906 87.404 100.803 88.0771L98.9488 85.302C98.4904 84.6159 97.5627 84.4314 96.8764 84.8898C96.1903 85.3482 96.0058 86.2762 96.4642 86.9623L98.3219 89.7426C97.2764 90.5098 96.2745 91.3328 95.3215 92.2085L90.4484 87.3355C91.3168 85.5821 91.0257 83.3959 89.5674 81.9376C88.6819 81.0523 87.5047 80.5644 86.2524 80.5644C85.0001 80.5644 83.823 81.0521 82.9374 81.9376C82.0519 82.8231 81.5642 84.0003 81.5642 85.2526C81.5642 86.5049 82.0519 87.6821 82.9374 88.5676C83.8228 89.4531 85.0001 89.9408 86.2524 89.9408C86.9887 89.9408 87.6984 89.7709 88.3388 89.4522L93.2083 94.3217C92.3326 95.2747 91.5096 96.2766 90.7424 97.3223L87.9623 95.4646C87.2762 95.0062 86.3482 95.1906 85.8898 95.8768C85.4314 96.5629 85.6159 97.4906 86.302 97.9492L89.0769 99.8036C88.4038 100.906 87.7916 102.05 87.2413 103.228L80.8881 100.597C80.9375 99.8836 80.8259 99.1635 80.5444 98.4837C80.0653 97.3267 79.1642 96.4258 78.0074 95.9465C76.8503 95.4672 75.5761 95.4674 74.4192 95.9465C73.2624 96.4258 72.3613 97.3267 71.8822 98.4835C71.4031 99.6404 71.4029 100.915 71.8822 102.072C72.3613 103.229 73.2626 104.13 74.4194 104.609C74.9978 104.848 75.6058 104.968 76.2134 104.968C76.821 104.968 77.429 104.848 78.0074 104.609C78.6871 104.327 79.2752 103.897 79.7445 103.358L86.0921 105.987C85.6488 107.197 85.2731 108.439 84.9641 109.707L81.7009 109.058C80.8908 108.897 80.1049 109.422 79.944 110.232C79.783 111.041 80.3085 111.828 81.118 111.989L84.38 112.637C84.1843 113.906 84.0588 115.197 84.0036 116.506H77.1306C76.5052 114.652 74.7507 113.312 72.688 113.312C70.1032 113.312 68 115.415 68 118C68 120.585 70.1032 122.688 72.688 122.688C74.7507 122.688 76.505 121.348 77.1306 119.494H84.0036C84.0588 120.803 84.1841 122.095 84.38 123.363L81.118 124.012C80.3087 124.173 79.783 124.96 79.944 125.769C80.0854 126.48 80.7096 126.972 81.4078 126.972C81.5044 126.972 81.6027 126.962 81.7009 126.943L84.9641 126.293C85.2731 127.561 85.649 128.803 86.0921 130.013L79.7445 132.643C79.2752 132.103 78.6871 131.673 78.0074 131.391C76.8503 130.912 75.5761 130.912 74.4192 131.391C73.2624 131.871 72.3611 132.772 71.882 133.929C71.4027 135.086 71.4029 136.36 71.882 137.517C72.3611 138.674 73.2622 139.575 74.419 140.054C74.9976 140.294 75.6054 140.413 76.2132 140.413C76.8208 140.413 77.4288 140.293 78.0072 140.054C79.164 139.575 80.0651 138.674 80.5442 137.517C80.8257 136.837 80.9373 136.117 80.8879 135.404L87.2411 132.772C87.7914 133.95 88.4036 135.094 89.0767 136.197L86.3018 138.051C85.6157 138.51 85.4312 139.437 85.8896 140.123C86.1777 140.555 86.6511 140.788 87.1334 140.788C87.4186 140.788 87.7071 140.706 87.9621 140.536L90.7422 138.678C91.5094 139.723 92.3326 140.725 93.2081 141.679L88.3388 146.548C87.6986 146.229 86.9887 146.059 86.2524 146.059C85.0001 146.059 83.823 146.547 82.9374 147.432C82.0519 148.318 81.5642 149.495 81.5642 150.747C81.5642 152 82.0519 153.177 82.9374 154.062C83.8228 154.948 85.0001 155.436 86.2524 155.436C87.5045 155.436 88.6819 154.948 89.5674 154.062C91.0255 152.604 91.3166 150.418 90.4484 148.665L95.3215 143.791C96.2745 144.667 97.2764 145.49 98.3219 146.257L96.4642 149.038C96.0058 149.724 96.1903 150.652 96.8764 151.11C97.1314 151.28 97.4198 151.362 97.7051 151.362C98.1874 151.362 98.6608 151.129 98.9488 150.698L100.803 147.923C101.906 148.596 103.05 149.208 104.228 149.758L101.597 156.111C99.6445 155.979 97.7354 157.087 96.9461 158.992C95.957 161.381 97.0951 164.129 99.4833 165.118C100.062 165.357 100.669 165.477 101.277 165.477C101.885 165.477 102.493 165.357 103.071 165.118C104.228 164.638 105.129 163.737 105.608 162.581C106.087 161.424 106.088 160.149 105.608 158.992C105.327 158.313 104.896 157.725 104.357 157.255L106.986 150.908C108.196 151.351 109.438 151.727 110.706 152.036L110.057 155.299C109.896 156.108 110.422 156.895 111.231 157.056C111.33 157.076 111.428 157.085 111.524 157.085C112.223 157.085 112.847 156.593 112.988 155.882L113.637 152.62C114.905 152.816 116.197 152.941 117.506 152.996V159.869C115.652 160.495 114.312 162.249 114.312 164.312C114.312 166.897 116.415 169 119 169C121.585 169 123.688 166.897 123.688 164.312C123.688 162.249 122.348 160.495 120.494 159.869V152.996C121.803 152.941 123.094 152.816 124.363 152.62L125.012 155.882C125.153 156.593 125.777 157.085 126.476 157.085C126.572 157.085 126.67 157.076 126.769 157.056C127.578 156.895 128.104 156.109 127.943 155.299L127.294 152.036C128.562 151.727 129.804 151.351 131.014 150.908L133.643 157.255C133.104 157.725 132.673 158.313 132.392 158.992C131.912 160.15 131.913 161.424 132.392 162.581C132.871 163.738 133.772 164.639 134.929 165.118C135.507 165.357 136.115 165.477 136.723 165.477C137.33 165.477 137.938 165.357 138.517 165.118C140.905 164.129 142.043 161.381 141.054 158.992C140.264 157.087 138.355 155.978 136.403 156.11L133.772 149.758C134.95 149.208 136.094 148.596 137.197 147.923L139.051 150.698C139.339 151.129 139.812 151.362 140.295 151.362C140.58 151.362 140.868 151.281 141.123 151.11C141.81 150.652 141.994 149.724 141.536 149.038L139.678 146.257C140.723 145.49 141.725 144.667 142.678 143.791L147.551 148.665C146.683 150.418 146.974 152.604 148.432 154.062C149.318 154.948 150.495 155.436 151.747 155.436C152.999 155.436 154.177 154.948 155.062 154.062C155.948 153.177 156.435 152 156.435 150.747C156.435 149.495 155.948 148.318 155.062 147.432C154.177 146.547 152.999 146.059 151.747 146.059C151.011 146.059 150.301 146.229 149.661 146.548L144.791 141.678C145.667 140.725 146.49 139.723 147.257 138.678L150.037 140.535C150.292 140.706 150.581 140.787 150.866 140.787C151.348 140.787 151.822 140.554 152.11 140.123C152.568 139.437 152.384 138.509 151.698 138.051L148.923 136.197C149.596 135.094 150.208 133.95 150.758 132.772L157.112 135.403C157.062 136.117 157.174 136.837 157.455 137.516C157.934 138.674 158.835 139.574 159.992 140.054C160.571 140.293 161.179 140.413 161.786 140.413C162.394 140.413 163.002 140.293 163.58 140.054C164.737 139.574 165.638 138.674 166.117 137.517C166.597 136.36 166.597 135.085 166.117 133.929C165.638 132.772 164.737 131.871 163.58 131.391C162.423 130.912 161.149 130.912 159.992 131.391C159.312 131.673 158.724 132.103 158.255 132.643L151.907 130.013C152.351 128.803 152.726 127.561 153.035 126.293L156.299 126.943C156.397 126.962 156.495 126.972 156.592 126.972C157.29 126.972 157.914 126.48 158.055 125.769C158.216 124.96 157.691 124.173 156.881 124.012L153.619 123.363C153.815 122.095 153.941 120.803 153.996 119.494H160.869ZM160.216 99.6267C160.39 99.2073 160.717 98.8804 161.136 98.7067C161.346 98.6198 161.566 98.5764 161.787 98.5764C162.007 98.5764 162.227 98.6198 162.437 98.7067C162.857 98.8804 163.183 99.2071 163.357 99.6267C163.531 100.046 163.531 100.508 163.357 100.928C163.183 101.347 162.857 101.674 162.437 101.847C162.018 102.021 161.556 102.021 161.136 101.847C160.717 101.674 160.39 101.347 160.216 100.928C160.042 100.508 160.042 100.046 160.216 99.6267ZM99.7069 75.8638C99.3483 74.9978 99.7608 74.0015 100.627 73.6429C100.837 73.5561 101.057 73.5127 101.277 73.5127C101.498 73.5127 101.718 73.5561 101.928 73.6429C102.347 73.8169 102.674 74.1434 102.848 74.5629C103.021 74.9823 103.021 75.4445 102.848 75.8638C102.674 76.283 102.347 76.6097 101.928 76.7834H101.928C101.928 76.7836 101.927 76.7836 101.927 76.7836C101.062 77.1424 100.065 76.7296 99.7069 75.8638ZM135.152 74.5627C135.326 74.1434 135.653 73.8167 136.072 73.6428C136.282 73.5559 136.502 73.5125 136.723 73.5125C136.943 73.5125 137.163 73.5559 137.373 73.6428C138.239 74.0013 138.652 74.9976 138.293 75.8634C137.935 76.7292 136.938 77.1418 136.073 76.7836C136.073 76.7836 136.072 76.7836 136.072 76.7834C136.072 76.7834 136.072 76.7834 136.072 76.7834C135.653 76.6095 135.326 76.283 135.152 75.8636C134.979 75.4445 134.979 74.9823 135.152 74.5627ZM119 69.9883C119.937 69.9883 120.7 70.7509 120.7 71.688C120.7 72.6251 119.937 73.3877 119 73.3877C118.063 73.3877 117.3 72.6251 117.3 71.688C117.3 70.7509 118.063 69.9883 119 69.9883ZM76.8638 101.848C76.4443 102.021 75.9823 102.021 75.5629 101.848C75.1434 101.674 74.8167 101.347 74.6429 100.928C74.469 100.508 74.469 100.046 74.6429 99.6269C74.8167 99.2075 75.1434 98.8806 75.5627 98.7069C75.7725 98.62 75.9929 98.5766 76.2134 98.5766C76.4337 98.5766 76.6541 98.62 76.8638 98.7069C77.2832 98.8806 77.6099 99.2073 77.7838 99.6269C77.9576 100.046 77.9576 100.508 77.7838 100.928C77.6099 101.347 77.2834 101.674 76.8638 101.848ZM77.7838 136.373C77.6099 136.793 77.2834 137.12 76.8638 137.293C76.4443 137.467 75.9823 137.467 75.5627 137.293C75.1434 137.12 74.8167 136.793 74.6429 136.373C74.469 135.954 74.469 135.492 74.6429 135.072C74.8167 134.653 75.1434 134.326 75.5629 134.153C75.7727 134.066 75.9931 134.022 76.2134 134.022C76.4337 134.022 76.6541 134.066 76.8638 134.153C77.2832 134.326 77.6099 134.653 77.7836 135.072C77.9576 135.492 77.9576 135.954 77.7838 136.373ZM85.0505 86.4543C84.7294 86.1334 84.5527 85.7064 84.5527 85.2524C84.5527 84.7984 84.7294 84.3717 85.0505 84.0503C85.3717 83.7294 85.7984 83.5525 86.2524 83.5525C86.7064 83.5525 87.1332 83.7294 87.4543 84.0503C88.1171 84.7131 88.1171 85.7915 87.4543 86.4541C87.1332 86.7752 86.7064 86.9522 86.2524 86.9522C85.7984 86.9524 85.3717 86.7756 85.0505 86.4543ZM72.688 119.7C71.7507 119.7 70.9883 118.937 70.9883 118C70.9883 117.063 71.7509 116.3 72.688 116.3C73.6251 116.3 74.3877 117.063 74.3877 118C74.3877 118.937 73.6253 119.7 72.688 119.7ZM87.4545 151.949C87.1334 152.271 86.7066 152.448 86.2526 152.448C85.7986 152.448 85.3719 152.271 85.0507 151.949C84.7296 151.628 84.5529 151.202 84.5529 150.748C84.5529 150.294 84.7296 149.867 85.0507 149.546C85.3719 149.225 85.7986 149.048 86.2526 149.048C86.7066 149.048 87.1334 149.225 87.4545 149.546C88.1171 150.208 88.1171 151.287 87.4545 151.949ZM102.848 161.437C102.674 161.857 102.347 162.183 101.928 162.357C101.508 162.531 101.046 162.531 100.627 162.357C99.7608 161.999 99.3483 161.002 99.7069 160.136C100.065 159.271 101.061 158.858 101.927 159.216C101.927 159.216 101.928 159.216 101.928 159.216C101.928 159.217 101.928 159.217 101.929 159.217C102.348 159.39 102.674 159.717 102.848 160.136C103.021 160.556 103.021 161.018 102.848 161.437ZM138.293 160.136C138.652 161.002 138.239 161.998 137.373 162.357C136.954 162.531 136.492 162.531 136.072 162.357C135.653 162.183 135.326 161.857 135.152 161.437C134.979 161.018 134.979 160.556 135.152 160.136C135.326 159.717 135.653 159.39 136.072 159.217H136.072C136.072 159.216 136.072 159.216 136.072 159.216C136.284 159.129 136.504 159.087 136.72 159.087C137.388 159.087 138.022 159.482 138.293 160.136ZM119 166.012C118.063 166.012 117.3 165.249 117.3 164.312C117.3 163.375 118.063 162.612 119 162.612C119.937 162.612 120.7 163.375 120.7 164.312C120.7 165.249 119.937 166.012 119 166.012ZM161.136 134.152C161.556 133.979 162.018 133.979 162.437 134.152C162.857 134.326 163.183 134.653 163.357 135.072C163.531 135.492 163.531 135.954 163.357 136.373C163.183 136.793 162.857 137.119 162.437 137.293C162.018 137.467 161.556 137.467 161.136 137.293C160.717 137.119 160.39 136.793 160.216 136.373C160.042 135.954 160.042 135.492 160.216 135.072C160.39 134.653 160.717 134.326 161.136 134.152ZM165.312 116.3C166.249 116.3 167.012 117.063 167.012 118C167.012 118.937 166.249 119.7 165.312 119.7C164.375 119.7 163.612 118.937 163.612 118C163.612 117.063 164.375 116.3 165.312 116.3ZM150.545 84.0505C150.867 83.7294 151.293 83.5525 151.747 83.5525C152.201 83.5525 152.628 83.7294 152.949 84.0505C153.27 84.3717 153.447 84.7984 153.447 85.2524C153.447 85.7064 153.27 86.1332 152.949 86.4543C152.628 86.7754 152.201 86.9522 151.747 86.9522C151.293 86.9522 150.867 86.7752 150.545 86.4543C149.883 85.7917 149.883 84.7133 150.545 84.0505ZM152.949 149.546C153.271 149.867 153.447 150.294 153.447 150.748C153.447 151.202 153.271 151.628 152.949 151.95C152.628 152.271 152.202 152.448 151.748 152.448C151.294 152.448 150.867 152.271 150.546 151.95C149.883 151.287 149.883 150.208 150.546 149.546C150.867 149.225 151.294 149.048 151.748 149.048C152.202 149.048 152.628 149.224 152.949 149.546Z" fill="#7878AB"/>
<path d="M147.643 118C147.643 115.415 145.539 113.312 142.954 113.312C140.369 113.312 138.266 115.415 138.266 118C138.266 120.585 140.37 122.688 142.954 122.688C145.54 122.688 147.643 120.585 147.643 118ZM141.255 118C141.255 117.063 142.017 116.3 142.954 116.3C143.892 116.3 144.654 117.063 144.654 118C144.654 118.937 143.892 119.7 142.954 119.7C142.017 119.7 141.255 118.937 141.255 118Z" fill="#7878AB"/>
<path d="M90.3574 118C90.3574 120.585 92.4606 122.688 95.0456 122.688C97.6307 122.688 99.7337 120.585 99.7337 118C99.7337 115.415 97.6305 113.312 95.0456 113.312C92.4604 113.312 90.3574 115.415 90.3574 118ZM96.7454 118C96.7454 118.937 95.9828 119.7 95.0456 119.7C94.1083 119.7 93.3457 118.937 93.3457 118C93.3457 117.063 94.1083 116.3 95.0456 116.3C95.9828 116.3 96.7454 117.063 96.7454 118Z" fill="#7878AB"/>
<path d="M98.7468 97.7468C97.8612 98.6323 97.3735 99.8095 97.3735 101.062C97.3735 102.314 97.8612 103.491 98.7468 104.377C99.6321 105.262 100.809 105.75 102.062 105.75C103.314 105.75 104.491 105.262 105.377 104.377C106.262 103.491 106.75 102.314 106.75 101.062C106.75 99.8095 106.262 98.6323 105.377 97.7468C104.491 96.8612 103.314 96.3735 102.062 96.3735C100.809 96.3735 99.6323 96.8614 98.7468 97.7468ZM103.761 101.062C103.761 101.516 103.585 101.942 103.264 102.264C102.942 102.585 102.516 102.762 102.062 102.762C101.608 102.762 101.181 102.585 100.86 102.264C100.539 101.942 100.362 101.516 100.362 101.062C100.362 100.608 100.539 100.181 100.86 99.8599C101.181 99.5387 101.608 99.362 102.062 99.362C102.516 99.362 102.942 99.5387 103.264 99.8599C103.585 100.181 103.761 100.608 103.761 101.062Z" fill="#7878AB"/>
<path d="M135.938 139.626C137.191 139.626 138.368 139.139 139.253 138.253C140.139 137.368 140.627 136.191 140.627 134.938C140.627 133.686 140.139 132.509 139.253 131.623C138.368 130.738 137.191 130.25 135.938 130.25C134.686 130.25 133.509 130.738 132.623 131.623C131.738 132.509 131.25 133.686 131.25 134.938C131.25 136.191 131.738 137.368 132.623 138.253C133.509 139.139 134.686 139.626 135.938 139.626ZM134.737 133.736C135.058 133.415 135.484 133.239 135.938 133.239C136.392 133.239 136.819 133.415 137.14 133.736C137.461 134.058 137.638 134.484 137.638 134.938C137.638 135.392 137.461 135.819 137.14 136.14C136.819 136.461 136.392 136.638 135.938 136.638C135.484 136.638 135.058 136.461 134.737 136.14C134.415 135.819 134.239 135.392 134.239 134.938C134.239 134.484 134.415 134.058 134.737 133.736Z" fill="#7878AB"/>
<path d="M137.14 102.264C136.819 102.585 136.393 102.762 135.939 102.762C135.484 102.762 135.058 102.585 134.737 102.264C134.415 101.942 134.239 101.516 134.239 101.062C134.239 100.608 134.415 100.181 134.737 99.8598C135.32 99.2763 135.32 98.3302 134.737 97.7467C134.153 97.1632 133.207 97.1632 132.624 97.7467C131.738 98.6322 131.25 99.8094 131.25 101.062C131.25 102.314 131.738 103.491 132.624 104.377C133.509 105.262 134.686 105.75 135.939 105.75C137.191 105.75 138.368 105.262 139.254 104.377C139.837 103.793 139.837 102.847 139.254 102.264C138.67 101.68 137.724 101.68 137.14 102.264Z" fill="#7878AB"/>
<path d="M102.062 139.626C103.314 139.626 104.491 139.139 105.377 138.253C105.96 137.67 105.96 136.724 105.377 136.14C104.793 135.557 103.847 135.557 103.264 136.14C102.943 136.461 102.516 136.638 102.062 136.638C101.608 136.638 101.181 136.461 100.86 136.14C100.539 135.819 100.362 135.392 100.362 134.938C100.362 134.484 100.539 134.057 100.86 133.736C101.443 133.153 101.443 132.206 100.86 131.623C100.277 131.039 99.3305 131.039 98.747 131.623C97.8615 132.508 97.3738 133.686 97.3738 134.938C97.3738 136.19 97.8615 137.367 98.747 138.253C99.6321 139.139 100.809 139.626 102.062 139.626Z" fill="#7878AB"/>
<path d="M119 103.73C116.415 103.73 114.312 105.833 114.312 108.418C114.312 111.003 116.415 113.106 119 113.106C121.585 113.106 123.688 111.003 123.688 108.418C123.688 105.833 121.585 103.73 119 103.73ZM119 110.118C118.063 110.118 117.3 109.355 117.3 108.418C117.3 107.481 118.063 106.718 119 106.718C119.937 106.718 120.7 107.481 120.7 108.418C120.7 109.355 119.937 110.118 119 110.118Z" fill="#7878AB"/>
<path d="M119 122.894C116.415 122.894 114.312 124.997 114.312 127.582C114.312 130.166 116.415 132.27 119 132.27C121.585 132.27 123.688 130.166 123.688 127.582C123.688 124.997 121.585 122.894 119 122.894ZM119 129.282C118.063 129.282 117.3 128.519 117.3 127.582C117.3 126.644 118.063 125.882 119 125.882C119.937 125.882 120.7 126.645 120.7 127.582C120.7 128.519 119.937 129.282 119 129.282Z" fill="#7878AB"/>
<path d="M133.27 118C133.27 115.415 131.167 113.312 128.582 113.312C125.997 113.312 123.894 115.415 123.894 118C123.894 120.585 125.997 122.688 128.582 122.688C131.166 122.688 133.27 120.585 133.27 118ZM128.582 119.7C127.644 119.7 126.882 118.937 126.882 118C126.882 117.063 127.645 116.3 128.582 116.3C129.519 116.3 130.282 117.063 130.282 118C130.282 118.937 129.519 119.7 128.582 119.7Z" fill="#7878AB"/>
<path d="M114.106 118C114.106 115.415 112.003 113.312 109.418 113.312C106.833 113.312 104.73 115.415 104.73 118C104.73 120.585 106.833 122.688 109.418 122.688C112.003 122.688 114.106 120.585 114.106 118ZM109.418 119.7C108.481 119.7 107.718 118.937 107.718 118C107.718 117.063 108.481 116.3 109.418 116.3C110.355 116.3 111.118 117.063 111.118 118C111.118 118.937 110.355 119.7 109.418 119.7Z" fill="#7878AB"/>
<path d="M109.418 109.912H109.434C110.259 109.912 110.92 109.243 110.92 108.418C110.92 107.593 110.243 106.924 109.418 106.924C108.593 106.924 107.924 107.593 107.924 108.418C107.924 109.243 108.593 109.912 109.418 109.912Z" fill="#7878AB"/>
<path d="M109.434 129.076C110.259 129.076 110.92 128.407 110.92 127.582C110.92 126.757 110.243 126.088 109.418 126.088C108.593 126.088 107.924 126.757 107.924 127.582C107.924 128.407 108.593 129.076 109.418 129.076H109.434Z" fill="#7878AB"/>
<path d="M127.072 108.418C127.072 109.243 127.741 109.912 128.566 109.912H128.582C129.407 109.912 130.068 109.243 130.068 108.418C130.068 107.593 129.391 106.924 128.566 106.924C127.741 106.924 127.072 107.593 127.072 108.418Z" fill="#7878AB"/>
<path d="M109.834 97.3664C110.025 97.3664 110.219 97.3298 110.406 97.2521L110.42 97.2461C111.183 96.9301 111.537 96.0592 111.221 95.2967C110.905 94.5343 110.024 94.1757 109.262 94.4917C108.499 94.8077 108.137 95.6818 108.453 96.444C108.692 97.0194 109.248 97.3664 109.834 97.3664Z" fill="#7878AB"/>
<path d="M140.556 107.457C139.795 107.775 139.435 108.65 139.753 109.411C139.992 109.985 140.547 110.331 141.132 110.331C141.324 110.331 141.519 110.293 141.707 110.215L141.722 110.209C142.484 109.891 142.836 109.019 142.518 108.258C142.2 107.496 141.318 107.139 140.556 107.457Z" fill="#7878AB"/>
<path d="M96.8703 128.665C97.0609 128.665 97.2548 128.628 97.4419 128.55L97.4566 128.544C98.219 128.228 98.5734 127.357 98.2575 126.595C97.9415 125.832 97.06 125.474 96.2977 125.789C95.5353 126.105 95.1735 126.98 95.4895 127.742C95.728 128.317 96.2842 128.665 96.8703 128.665Z" fill="#7878AB"/>
<path d="M127.596 138.754C126.833 139.07 126.471 139.944 126.787 140.706C127.026 141.282 127.582 141.629 128.168 141.629C128.359 141.629 128.553 141.592 128.74 141.514L128.754 141.508C129.517 141.192 129.871 140.321 129.555 139.559C129.239 138.797 128.358 138.438 127.596 138.754Z" fill="#7878AB"/>
<path d="M128.566 126.088C127.741 126.088 127.072 126.757 127.072 127.582C127.072 128.407 127.741 129.076 128.566 129.076H128.582C129.407 129.076 130.068 128.407 130.068 127.582C130.068 126.757 129.391 126.088 128.566 126.088Z" fill="#7878AB"/>
<path d="M95.4943 108.267C95.1775 109.029 95.5383 109.903 96.3001 110.22C96.4876 110.298 96.682 110.335 96.8733 110.335C97.4588 110.335 98.0146 109.989 98.2535 109.414L98.2596 109.4C98.5764 108.638 98.2126 107.771 97.4506 107.454C96.689 107.137 95.8112 107.505 95.4943 108.267Z" fill="#7878AB"/>
<path d="M128.741 94.486C127.977 94.1736 127.102 94.5468 126.789 95.3104C126.477 96.074 126.842 96.9466 127.606 97.2591C127.791 97.3349 127.983 97.3709 128.172 97.3709C128.76 97.3709 129.318 97.0207 129.555 96.4422L129.561 96.4274C129.873 95.6636 129.505 94.7986 128.741 94.486Z" fill="#7878AB"/>
<path d="M109.264 141.518C109.452 141.596 109.646 141.633 109.837 141.633C110.423 141.633 110.979 141.287 111.218 140.712L111.224 140.697C111.54 139.936 111.177 139.068 110.415 138.751C109.653 138.435 108.775 138.803 108.458 139.565C108.142 140.327 108.502 141.201 109.264 141.518Z" fill="#7878AB"/>
<path d="M142.516 127.748L142.522 127.733C142.839 126.971 142.475 126.104 141.713 125.787C140.951 125.471 140.073 125.839 139.756 126.601C139.44 127.362 139.801 128.237 140.562 128.554C140.75 128.632 140.944 128.669 141.135 128.669C141.721 128.669 142.277 128.322 142.516 127.748Z" fill="#7878AB"/>
<defs>
<filter id="filter0_dddd" x="0" y="0" width="236" height="236" filterUnits="userSpaceOnUse" color-interpolation-filters="sRGB">
<feFlood flood-opacity="0" result="BackgroundImageFix"/>
<feColorMatrix in="SourceAlpha" type="matrix" values="0 0 0 0 0 0 0 0 0 0 0 0 0 0 0 0 0 0 127 0"/>
<feOffset dx="-10" dy="-10"/>
<feGaussianBlur stdDeviation="10"/>
<feColorMatrix type="matrix" values="0 0 0 0 1 0 0 0 0 1 0 0 0 0 1 0 0 0 1 0"/>
<feBlend mode="normal" in2="BackgroundImageFix" result="effect1_dropShadow"/>
<feColorMatrix in="SourceAlpha" type="matrix" values="0 0 0 0 0 0 0 0 0 0 0 0 0 0 0 0 0 0 127 0"/>
<feOffset dx="10" dy="10"/>
<feGaussianBlur stdDeviation="10"/>
<feColorMatrix type="matrix" values="0 0 0 0 0.666667 0 0 0 0 0.666667 0 0 0 0 0.8 0 0 0 0.5 0"/>
<feBlend mode="normal" in2="effect1_dropShadow" result="effect2_dropShadow"/>
<feColorMatrix in="SourceAlpha" type="matrix" values="0 0 0 0 0 0 0 0 0 0 0 0 0 0 0 0 0 0 127 0"/>
<feOffset dx="5" dy="5"/>
<feGaussianBlur stdDeviation="5"/>
<feColorMatrix type="matrix" values="0 0 0 0 0.666667 0 0 0 0 0.666667 0 0 0 0 0.8 0 0 0 0.25 0"/>
<feBlend mode="normal" in2="effect2_dropShadow" result="effect3_dropShadow"/>
<feColorMatrix in="SourceAlpha" type="matrix" values="0 0 0 0 0 0 0 0 0 0 0 0 0 0 0 0 0 0 127 0"/>
<feOffset dx="-5" dy="-5"/>
<feGaussianBlur stdDeviation="5"/>
<feColorMatrix type="matrix" values="0 0 0 0 1 0 0 0 0 1 0 0 0 0 1 0 0 0 0.5 0"/>
<feBlend mode="normal" in2="effect3_dropShadow" result="effect4_dropShadow"/>
<feBlend mode="normal" in="SourceGraphic" in2="effect4_dropShadow" result="shape"/>
</filter>
</defs>
</svg>
