<svg width="86" height="108" viewBox="0 0 86 108" fill="none" xmlns="http://www.w3.org/2000/svg">
<path d="M28.0595 0.126366C22.4611 1.03761 18.8862 6.67387 20.4544 12.1245C21.306 15.0776 23.7511 17.6089 26.6262 18.5117C29.1219 19.2964 31.4742 19.1192 33.7675 17.9717C35.673 17.0182 37.0726 15.6261 38.0254 13.7107C38.7168 12.3186 38.9528 11.382 39.0119 9.7873C39.0456 8.74949 39.0287 8.42887 38.8685 7.67793C38.0928 3.87262 35.2599 1.0123 31.4911 0.210739C30.5805 0.0166779 28.9785 -0.0255108 28.0595 0.126366Z" fill="#7878AB"/>
<path d="M28.9617 20.8069C28.8689 20.8238 28.5823 20.8829 28.3293 20.9335C26.6936 21.2541 25.1001 22.1316 23.827 23.3972C22.1491 25.0594 21.2385 27.1097 21.1121 29.4891C21.0699 30.24 21.1458 31.7335 21.6685 40.711C21.7191 41.4957 21.9805 46.0941 22.2587 50.9204C22.6634 57.9066 22.7983 59.8557 22.9332 60.48C23.5319 63.3066 25.4374 65.6775 28.1354 66.9516C28.7846 67.2638 29.906 67.6182 30.7323 67.77C31.0864 67.8375 36.0272 67.8713 47.2156 67.8966L63.1931 67.9304L64.2976 69.8457C72.8048 84.6113 75.8907 89.9269 76.1268 90.2222C76.9025 91.1588 78.0913 91.8929 79.3138 92.1797C80.1738 92.3907 81.5229 92.3232 82.3491 92.0279C85.1652 91.0491 86.6491 87.9272 85.6795 85.0247C85.4856 84.451 83.8162 81.5147 77.3156 70.276C72.847 62.5557 69.0529 56.025 68.8842 55.7719C68.1844 54.7425 66.9872 53.8819 65.7225 53.5191C65.2503 53.3757 64.3397 53.3672 52.9827 53.3419L40.7487 53.325L40.6981 51.8654C40.6644 51.0722 40.6138 49.4522 40.5801 48.2794L40.5295 46.1532H49.3319C56.9285 46.1532 58.2101 46.1363 58.6401 46.0266C60.8829 45.4529 62.3246 43.3688 61.9789 41.1919C61.7429 39.631 60.7395 38.416 59.1629 37.7747C58.7244 37.5891 58.7076 37.5891 49.3656 37.5469L40.0068 37.5047L39.9393 36.6188C39.6442 32.5097 39.3491 28.966 39.2817 28.4766C39.0878 27.2532 38.506 25.8019 37.7472 24.6797C36.9125 23.4479 35.2262 22.0641 33.8603 21.4904C32.604 20.9588 31.9464 20.8238 30.4793 20.79C29.7374 20.7816 29.0544 20.7816 28.9617 20.8069Z" fill="#7878AB"/>
<path d="M15.8509 42.7865C11.4076 45.7987 7.78207 49.604 5.03344 54.1434C0.278148 61.9903 -1.18048 71.6259 1.01168 80.7047C3.14481 89.5134 8.49874 97.1072 16.1038 102.136C24.7544 107.848 35.5466 109.477 45.5209 106.591C54.045 104.127 61.5152 98.3559 66.1272 90.6693C67.0378 89.1422 68.1507 86.9231 68.0833 86.7543C67.9905 86.4928 63.1931 78.2156 63.1425 78.2156C63.1087 78.2156 63.0413 78.4518 62.9823 78.7387C62.8305 79.5403 62.274 81.3375 61.8356 82.4765C58.8087 90.2728 52.5442 96.314 44.6862 99.014C39.2058 100.887 33.1352 100.988 27.4525 99.3009C21.424 97.5037 15.8087 93.3356 12.2423 88.0031C9.8056 84.3497 8.34697 80.4768 7.70619 75.9375C7.48697 74.4356 7.48697 70.1747 7.69776 68.7234C8.00129 66.6393 8.39756 64.9772 8.98776 63.2728C10.4548 59.0625 12.6891 55.5272 15.9436 52.304L17.3517 50.895L17.1072 46.6931C16.9723 44.3728 16.8627 42.4153 16.8627 42.3309C16.8627 42.255 16.8374 42.1875 16.8036 42.1875C16.7615 42.1875 16.3399 42.4575 15.8509 42.7865Z" fill="#7878AB"/>
</svg>
