<svg width="553" height="199" viewBox="0 0 553 199" fill="none" xmlns="http://www.w3.org/2000/svg">
<g clip-path="url(#clip0)">
<path d="M285.4 61.4L311.7 59.7C312.3 64 313.4 67.2 315.2 69.5C318.1 73.1 322.1 74.9 327.4 74.9C331.3 74.9 334.4 74 336.5 72.1C338.5 70.6 339.7 68.2 339.7 65.7C339.7 63.3 338.6 61 336.7 59.5C334.7 57.7 330 55.9 322.6 54.3C310.5 51.6 301.8 48 296.7 43.4C291.6 39.1 288.7 32.8 288.9 26.1C288.9 21.5 290.3 16.9 292.9 13.1C295.9 8.8 300 5.4 304.9 3.5C310.2 1.2 317.6 0 326.9 0C338.3 0 347 2.1 353 6.4C359 10.6 362.6 17.4 363.7 26.7L337.7 28.2C337 24.2 335.6 21.3 333.3 19.4C331 17.5 328 16.6 324.1 16.6C320.9 16.6 318.5 17.3 316.9 18.6C315.4 19.8 314.4 21.6 314.5 23.6C314.5 25.1 315.3 26.5 316.5 27.4C317.8 28.6 320.9 29.7 325.8 30.7C337.9 33.3 346.5 35.9 351.8 38.6C357.1 41.3 360.9 44.6 363.2 48.5C365.6 52.5 366.8 57.1 366.7 61.8C366.7 67.4 365.1 73 361.9 77.7C358.6 82.6 354 86.4 348.6 88.7C342.9 91.2 335.7 92.5 327.1 92.5C311.9 92.5 301.4 89.6 295.5 83.7C289.6 77.8 286.1 70.4 285.4 61.4ZM6.3 91V1.6H52.4C60.9 1.6 67.5 2.3 72 3.8C76.4 5.2 80.3 8.1 82.9 12C85.8 16.3 87.2 21.3 87.1 26.5C87.4 35.3 82.9 43.7 75.2 48.1C72.2 49.8 68.9 51 65.5 51.6C68 52.3 70.5 53.5 72.7 54.9C74.4 56.3 75.8 57.9 77.1 59.6C78.6 61.3 79.9 63.2 81 65.2L94.4 91.1H63L48.2 63.6C46.3 60.1 44.7 57.8 43.2 56.7C41.2 55.3 38.8 54.6 36.4 54.6H34V90.9H6.3V91ZM34 37.8H45.7C48.2 37.6 50.6 37.2 53 36.6C54.8 36.3 56.4 35.3 57.5 33.8C60.2 30.2 59.8 25.1 56.5 22C54.7 20.5 51.2 19.7 46.2 19.7H34V37.8ZM0 167.6L26.3 165.9C26.9 170.2 28 173.4 29.8 175.7C32.6 179.3 36.7 181.2 42 181.2C45.9 181.2 49 180.3 51.1 178.4C53.1 176.8 54.3 174.5 54.3 172C54.3 169.6 53.2 167.3 51.3 165.8C49.3 164 44.6 162.2 37.1 160.6C25 157.9 16.3 154.3 11.2 149.7C6.1 145.4 3.2 139.1 3.4 132.4C3.4 127.8 4.8 123.2 7.4 119.4C10.4 115.1 14.5 111.7 19.4 109.8C24.7 107.5 32.1 106.3 41.4 106.3C52.8 106.3 61.5 108.4 67.5 112.7C73.5 117 77 123.7 78.1 133L52.1 134.5C51.4 130.5 50 127.6 47.7 125.7C45.5 123.8 42.4 122.9 38.5 123C35.3 123 32.9 123.7 31.3 125.1C29.7 126.3 28.8 128.1 28.9 130.1C28.9 131.6 29.7 133 30.9 133.9C32.2 135.1 35.3 136.2 40.2 137.2C52.3 139.8 60.9 142.4 66.2 145.1C71.5 147.8 75.3 151.1 77.6 155C80 159 81.2 163.6 81.2 168.2C81.2 173.8 79.5 179.3 76.4 184C73.1 188.9 68.5 192.7 63.1 195C57.4 197.5 50.2 198.8 41.6 198.8C26.4 198.8 15.9 195.9 10 190C4.1 184 0.8 176.6 0 167.6Z" fill="#F6F3EC99"/>
<path d="M133 160.6L157.2 167.9C155.9 174 153.2 179.8 149.5 184.9C146.1 189.4 141.6 192.9 136.5 195.2C131.3 197.5 124.7 198.7 116.7 198.7C107 198.7 99 197.3 92.9 194.5C86.7 191.7 81.4 186.7 76.9 179.6C72.4 172.5 70.2 163.4 70.2 152.3C70.2 137.5 74.1 126.1 82 118.2C89.9 110.3 101 106.3 115.4 106.3C126.7 106.3 135.5 108.6 142 113.1C148.4 117.7 153.2 124.7 156.4 134.1L132 139.5C131.4 137.4 130.5 135.3 129.3 133.5C127.8 131.4 125.9 129.8 123.6 128.6C121.3 127.4 118.7 126.9 116.1 126.9C109.8 126.9 105 129.4 101.7 134.5C99.2 138.2 97.9 144.1 97.9 152.1C97.9 162 99.4 168.8 102.4 172.5C105.4 176.2 109.6 178 115.1 178C120.4 178 124.4 176.5 127.1 173.6C129.8 170.5 131.8 166.2 133 160.6ZM189.5 107.8H217.1V139.1H247.3V107.8H275.1V197.2H247.3V161H217.1V197.2H189.5C189.5 197.2 189.5 107.8 189.5 107.8Z" fill=" #F6F3EC99"/>
<path d="M271.3 152.5C271.3 137.9 275.4 126.5 283.5 118.4C291.6 110.3 303 106.2 317.5 106.2C332.4 106.2 343.8 110.2 351.9 118.2C360 126.2 364 137.4 364 151.8C364 162.3 362.2 170.8 358.7 177.5C355.3 184.1 350 189.5 343.5 193.1C336.8 196.8 328.5 198.7 318.6 198.7C308.5 198.7 300.2 197.1 293.6 193.9C286.8 190.5 281.2 185.2 277.5 178.7C273.4 171.7 271.3 163 271.3 152.5ZM298.9 152.6C298.9 161.6 300.6 168.1 303.9 172.1C307.2 176 311.8 178 317.6 178C323.5 178 328.1 176.1 331.4 172.2C334.7 168.3 336.3 161.4 336.3 151.4C336.3 143 334.6 136.8 331.2 133C327.8 129.1 323.2 127.2 317.4 127.2C312.3 127 307.4 129.2 304 133.1C300.6 137 298.9 143.5 298.9 152.6ZM392.3 152.5C392.3 137.9 396.4 126.5 404.5 118.4C412.6 110.3 424 106.2 438.5 106.2C453.4 106.2 464.9 110.2 472.9 118.2C480.9 126.2 485 137.4 485 151.8C485 162.3 483.2 170.8 479.7 177.5C476.3 184.1 471 189.5 464.5 193.1C457.8 196.8 449.5 198.7 439.6 198.7C429.5 198.7 421.2 197.1 414.6 193.9C407.8 190.5 402.2 185.2 398.5 178.7C394.4 171.7 392.3 163 392.3 152.5ZM419.9 152.6C419.9 161.6 421.6 168.1 424.9 172.1C428.2 176 432.8 178 438.6 178C444.5 178 449.1 176.1 452.4 172.2C455.7 168.3 457.3 161.4 457.3 151.4C457.3 143 455.6 136.8 452.2 133C448.8 129.1 444.2 127.2 438.4 127.2C433.3 127 428.3 129.2 425 133.1C421.6 137 419.9 143.5 419.9 152.6Z" fill="#F6F3EC99"/>
<path d="M482.1 107.8H509.7V175.2H552.8V197.2H482V107.8H482.1V107.8Z" fill=" #F6F3EC99"/>
<path d="M451.661 102.651C479.447 81.7119 488.016 46.2167 470.799 23.37C453.583 0.523394 417.101 -1.02305 389.314 19.9159C361.528 40.8549 352.959 76.3502 370.176 99.1968C387.392 122.043 423.874 123.59 451.661 102.651Z" stroke="#F6F3EC99" stroke-width="2" stroke-miterlimit="10"/>
<path d="M392.4 54.7L402.4 47.7L414.7 65.2C416.8 68 418.4 71 419.6 74.3C420.3 76.8 420.1 79.5 419.1 81.9C417.8 84.9 415.7 87.4 412.9 89.2C409.6 91.5 406.8 92.8 404.4 93.2C402.1 93.6 399.7 93.2 397.5 92.2C395.1 91 393 89.3 391.4 87.1L400 79.1C400.7 80.2 401.6 81.2 402.6 82C403.3 82.5 404.1 82.8 405 82.8C405.7 82.8 406.4 82.5 406.9 82.1C407.9 81.5 408.6 80.3 408.5 79.1C408.2 77.4 407.5 75.7 406.4 74.4L392.4 54.7ZM422.4 65.8L431.5 58.6C432.5 59.8 433.8 60.7 435.2 61.2C437.2 61.8 439.3 61.4 441 60.1C442.2 59.3 443.2 58.2 443.6 56.8C444.2 55 443.2 53 441.4 52.4C441.1 52.3 440.8 52.2 440.5 52.2C439.3 52.1 437.2 52.6 434.1 53.9C429 56 425 56.8 422 56.5C419.1 56.2 416.4 54.7 414.8 52.2C413.6 50.5 413 48.5 412.9 46.5C412.9 44.2 413.5 41.9 414.8 40C416.7 37.3 419 35 421.8 33.2C426 30.3 429.7 28.9 432.9 28.9C436.1 28.9 439.1 30.4 441.9 33.5L432.9 40.6C431.1 38.3 427.7 37.8 425.4 39.6L425.1 39.9C424.1 40.5 423.4 41.4 423 42.5C422.7 43.3 422.9 44.2 423.4 44.9C423.8 45.4 424.4 45.8 425.1 45.8C425.9 45.9 427.3 45.5 429.3 44.6C434.3 42.5 438.1 41.3 440.7 40.9C442.9 40.5 445.2 40.7 447.3 41.6C449.2 42.4 450.8 43.8 451.9 45.5C453.3 47.5 454.1 49.9 454.2 52.4C454.3 55 453.6 57.5 452.2 59.7C450.4 62.4 448.1 64.7 445.4 66.5C439.9 70.3 435.4 71.9 431.8 71.3C427.9 70.7 424.7 68.7 422.4 65.8Z" fill=" #F6F3EC99"/>
</g>
<defs>
<clipPath id="clip0">
<rect width="552.8" height="198.8" fill="#F6F3EC99"/>
</clipPath>
</defs>
</svg>
